{"glyphs":{"0":{"ha":1015,"x_min":65,"x_max":953,"o":"m 261 9 q 231 23 245 17 q 200 37 216 30 q 181 53 191 47 q 161 66 170 59 q 124 110 140 84 q 98 164 109 135 q 81 226 87 194 q 71 289 75 258 q 66 348 68 319 q 65 397 65 376 q 67 462 65 432 q 75 522 70 492 q 86 581 79 551 q 104 644 94 610 q 120 666 112 650 q 136 698 129 682 q 151 727 144 714 q 163 739 158 739 q 178 746 170 740 q 196 760 186 752 q 215 777 205 768 q 233 791 224 786 q 279 813 255 806 q 330 824 304 821 q 381 830 355 828 q 433 835 408 831 q 508 831 470 833 q 581 824 545 828 q 650 814 617 820 q 709 802 683 808 q 723 798 708 802 q 758 787 739 793 q 793 771 777 780 q 810 754 810 762 l 810 742 q 842 728 825 742 q 872 693 859 713 q 895 651 886 673 q 904 614 904 629 q 918 612 916 614 q 920 602 920 611 q 934 546 927 573 q 949 490 941 519 q 949 479 949 489 q 951 456 950 470 q 952 426 951 442 q 953 393 953 409 q 950 312 953 354 q 939 230 948 270 q 912 154 930 190 q 863 90 894 117 q 816 56 841 71 q 768 24 791 41 q 707 2 737 13 q 647 -20 677 -9 q 539 -26 594 -20 q 431 -33 485 -33 q 412 -31 426 -33 q 379 -26 397 -29 q 341 -19 361 -23 q 303 -9 321 -14 q 274 0 286 -5 q 261 9 262 5 m 458 211 q 466 198 459 205 q 481 184 473 191 q 498 173 490 177 q 511 168 507 168 q 551 179 536 168 q 572 205 565 190 q 581 237 579 220 q 583 267 583 254 q 585 307 584 286 q 588 349 587 328 q 589 387 589 369 q 590 421 590 406 q 580 500 590 463 q 557 581 570 538 q 546 617 555 602 q 514 633 538 633 q 478 621 491 633 q 458 589 465 608 q 449 549 451 570 q 444 513 446 528 q 432 445 440 479 q 425 376 425 411 q 427 330 425 351 q 433 290 429 309 q 444 251 437 270 q 458 211 450 232 z "},"1":{"ha":741,"x_min":51,"x_max":661,"o":"m 661 463 l 661 306 q 660 245 661 274 q 657 190 659 217 q 654 138 655 163 q 653 85 653 112 q 652 56 653 71 q 647 29 651 41 q 636 8 644 16 q 616 0 629 0 q 540 0 573 0 q 479 1 507 1 q 427 2 451 1 q 379 3 403 3 q 328 4 355 3 q 270 4 302 4 q 237 6 252 4 q 214 15 223 7 q 199 36 204 22 q 194 75 194 50 q 195 86 194 77 q 197 106 196 96 q 200 127 199 117 q 201 139 201 136 q 200 154 201 143 q 197 177 199 165 q 195 198 196 189 q 194 208 194 207 q 193 259 193 229 q 193 322 193 290 q 192 387 193 355 q 192 444 192 418 q 190 485 191 469 q 188 501 189 501 q 170 490 180 501 q 147 464 160 478 q 119 438 134 450 q 85 427 103 427 q 61 436 72 427 q 51 454 51 445 l 51 721 q 55 728 51 724 q 68 736 60 731 q 91 749 77 741 q 121 768 104 757 q 181 800 160 793 q 212 807 201 807 q 320 807 270 807 q 418 806 370 806 q 516 805 467 805 q 624 804 566 804 q 637 801 630 804 q 649 792 644 798 q 657 781 654 787 q 661 768 661 774 l 661 463 z "},"2":{"ha":861,"x_min":68,"x_max":791,"o":"m 414 1 q 354 0 383 1 q 296 0 324 0 q 209 1 250 0 q 137 7 168 3 q 89 19 106 11 q 71 41 71 27 q 81 81 71 63 q 106 114 91 98 q 117 122 106 112 q 143 152 127 133 q 180 195 159 170 q 220 245 200 220 q 257 296 239 271 q 286 341 275 321 q 304 369 294 352 q 322 405 314 386 q 337 445 331 425 q 343 482 343 465 q 338 514 343 500 q 321 536 333 528 q 290 549 310 545 q 241 553 271 553 q 203 551 220 553 q 167 544 185 549 q 130 531 149 538 q 86 511 111 523 q 83 527 85 511 q 79 566 81 543 q 75 618 77 590 q 72 673 73 647 q 69 719 70 699 q 68 745 68 739 q 68 752 68 750 l 130 780 q 204 802 165 793 q 284 818 243 812 q 365 827 324 824 q 441 830 405 830 q 569 817 507 830 q 681 772 631 803 q 761 690 730 741 q 791 566 791 640 q 743 424 791 493 q 592 280 694 355 q 650 281 623 280 q 707 281 676 281 q 735 280 720 281 q 763 276 750 279 q 783 264 775 272 q 791 244 791 257 q 791 193 791 214 q 789 154 790 172 q 788 120 789 137 q 787 81 787 103 q 786 49 787 63 q 777 25 784 35 q 756 11 770 16 q 716 5 741 5 q 697 1 715 3 q 654 0 680 0 q 594 -1 627 -1 q 528 0 561 -1 q 464 0 494 0 q 414 1 434 1 z "},"3":{"ha":845,"x_min":63,"x_max":783,"o":"m 783 260 q 773 154 783 199 q 748 78 763 109 q 718 31 734 47 q 690 9 702 14 q 613 -20 653 -9 q 531 -34 572 -30 q 446 -39 489 -39 q 362 -40 404 -40 q 343 -39 357 -40 q 312 -35 330 -37 q 275 -29 294 -32 q 238 -22 255 -26 q 210 -15 222 -18 q 197 -7 198 -11 q 166 1 181 -2 q 137 13 151 5 q 118 24 127 18 q 99 35 109 30 l 113 226 q 197 210 155 216 q 275 203 239 203 q 316 207 298 203 q 349 219 335 210 q 370 241 363 227 q 378 276 378 256 q 354 318 378 304 q 292 334 330 331 q 235 333 262 334 q 178 330 208 332 l 176 480 q 201 480 189 480 q 228 479 214 479 q 271 481 250 479 q 307 491 291 484 q 332 511 323 498 q 342 549 342 525 q 334 577 342 566 q 313 595 327 588 q 280 605 299 602 q 239 608 262 608 q 161 596 203 608 q 77 565 119 583 l 63 762 q 136 790 96 777 q 221 811 176 802 q 314 825 266 820 q 410 830 361 830 q 458 827 433 829 q 507 822 483 825 q 552 815 530 819 q 591 806 573 811 q 600 804 589 807 q 623 796 610 801 q 646 785 635 791 q 656 773 656 779 l 656 764 q 682 752 671 764 q 703 723 694 739 q 719 690 712 706 q 729 666 726 673 q 740 627 738 647 q 748 587 743 607 q 743 546 748 568 q 728 505 738 525 q 704 467 718 485 q 672 438 690 450 q 754 363 724 408 q 783 260 783 319 z "},"4":{"ha":1010,"x_min":45,"x_max":961,"o":"m 298 859 q 337 858 313 859 q 385 857 360 858 q 432 856 410 857 q 467 854 454 855 q 490 860 475 859 q 514 861 505 861 q 569 859 543 861 q 627 857 596 857 q 629 859 628 859 q 632 860 631 859 l 685 860 q 689 858 686 859 q 693 857 692 857 q 697 858 694 857 q 703 859 700 858 q 712 860 707 859 q 722 859 715 860 q 729 857 728 857 q 746 858 736 858 q 767 857 756 857 q 787 856 777 857 q 804 856 798 856 q 820 836 818 856 q 820 785 822 816 q 816 715 818 753 q 821 642 814 677 q 820 623 821 640 q 818 570 819 606 q 815 481 817 535 q 814 354 814 428 l 814 329 l 912 329 q 940 313 930 329 q 955 274 950 296 q 960 228 960 252 q 961 189 961 204 q 960 170 961 184 q 959 139 960 155 q 958 110 958 123 q 957 97 957 98 q 946 90 954 92 q 929 86 939 87 q 911 85 920 85 q 895 85 901 85 q 853 85 873 85 q 811 83 832 85 l 808 61 q 807 12 806 34 q 805 -26 807 -10 q 797 -51 804 -42 q 775 -60 791 -60 q 773 -58 774 -60 q 770 -57 772 -57 q 766 -58 768 -57 q 760 -59 763 -58 q 754 -61 758 -60 q 737 -60 744 -61 q 726 -59 730 -60 q 718 -58 722 -58 q 709 -57 714 -57 q 705 -58 708 -57 q 701 -61 703 -60 l 611 -61 q 601 -63 610 -61 q 581 -67 592 -65 q 559 -72 570 -70 q 546 -74 549 -74 q 527 -61 533 -74 q 518 -31 521 -48 q 515 2 515 -14 q 514 26 515 19 l 511 78 l 505 78 q 407 78 455 78 q 311 78 359 78 q 212 76 262 77 q 109 74 162 75 q 76 78 88 75 q 57 85 63 81 q 48 94 50 90 q 45 102 45 98 q 45 175 45 146 q 47 225 45 204 q 51 265 48 247 q 59 306 54 283 q 74 360 65 329 q 97 440 83 392 q 105 460 96 439 q 127 516 113 481 q 160 593 142 550 q 198 682 178 637 q 238 768 218 726 q 275 840 258 810 q 286 849 279 844 q 298 859 292 854 m 363 332 q 429 331 395 332 q 497 330 463 330 l 497 351 l 497 696 q 475 635 487 668 q 451 568 463 602 q 426 499 438 534 q 401 433 413 465 q 380 376 390 402 q 363 332 370 350 z "},"5":{"ha":817,"x_min":68,"x_max":752,"o":"m 752 273 q 742 161 752 209 q 717 81 732 113 q 687 32 703 50 q 659 9 671 14 q 582 -20 622 -9 q 499 -34 541 -30 q 415 -39 458 -39 q 331 -40 372 -40 q 312 -39 326 -40 q 281 -35 298 -37 q 243 -29 263 -32 q 207 -22 224 -26 q 179 -15 191 -18 q 165 -7 167 -11 q 135 1 150 -2 q 106 13 119 5 l 68 35 l 77 82 l 75 132 l 77 170 l 81 226 q 166 210 123 216 q 244 203 208 203 q 285 207 267 203 q 318 219 304 210 q 339 241 332 227 q 347 276 347 256 q 322 318 347 304 q 260 334 298 331 q 189 333 224 334 q 113 330 153 332 l 108 385 l 109 408 q 110 438 110 425 q 110 458 110 450 q 111 468 110 467 l 110 503 q 106 529 110 508 q 103 595 103 550 l 103 794 q 106 801 103 796 q 113 808 110 806 q 119 808 117 808 q 124 807 121 807 q 156 810 141 807 q 189 814 172 814 q 242 811 216 814 q 298 808 269 808 l 303 812 l 364 812 q 369 810 366 811 q 374 808 373 808 q 379 809 375 808 q 387 810 382 810 q 394 812 391 811 q 398 812 397 812 q 408 811 401 812 q 417 808 415 810 l 636 808 q 641 806 637 807 q 646 804 645 804 q 653 805 648 804 q 665 806 659 806 q 676 808 671 807 q 683 808 682 808 q 697 793 692 808 q 707 754 703 779 q 712 699 711 730 q 714 635 714 667 q 707 623 714 627 q 690 618 700 620 q 669 617 680 617 q 652 618 659 618 l 637 618 q 615 617 623 618 q 601 615 608 616 q 584 613 593 614 q 560 612 575 612 q 533 612 547 612 q 516 614 520 612 l 507 608 q 501 582 507 603 q 493 515 496 560 q 549 508 522 512 q 597 497 576 503 q 606 495 595 498 q 629 487 616 492 q 652 476 642 482 q 663 464 663 470 l 663 455 q 688 443 677 455 q 709 413 700 430 q 725 380 718 397 q 735 357 732 364 q 743 338 739 349 q 748 316 746 328 q 751 293 750 304 q 752 273 752 282 z "},"6":{"ha":1001,"x_min":58,"x_max":943,"o":"m 486 505 q 572 527 530 520 q 653 534 614 534 q 746 523 703 534 q 825 491 790 513 q 911 407 880 460 q 943 281 943 354 q 908 152 943 208 q 817 59 874 96 q 685 4 760 22 q 531 -15 611 -15 q 416 -3 473 -15 q 306 32 359 8 q 208 91 254 56 q 129 174 163 126 q 77 281 96 221 q 58 412 58 340 q 62 514 58 466 q 84 606 67 563 q 135 697 103 654 q 204 772 168 739 q 366 842 274 818 q 570 865 458 865 q 662 858 616 865 q 759 837 709 851 q 804 820 781 829 q 846 796 827 812 q 860 789 852 792 q 873 775 868 785 q 877 745 878 766 q 861 685 875 724 q 841 638 848 656 q 825 610 833 620 q 805 597 817 600 q 772 600 793 595 q 716 614 747 608 q 654 620 686 620 q 585 613 613 620 q 538 597 556 607 q 509 574 519 587 q 494 549 499 562 q 488 524 490 536 q 486 505 487 513 m 593 209 q 645 224 624 209 q 665 276 665 240 q 647 317 665 306 q 602 328 628 328 q 563 325 582 328 q 529 317 544 321 q 496 306 511 312 q 535 231 509 253 q 593 209 560 209 z "},"7":{"ha":831,"x_min":50,"x_max":787,"o":"m 325 479 q 257 481 288 480 q 200 483 227 482 q 150 483 174 483 q 102 484 126 484 q 72 506 83 484 q 57 561 62 529 q 51 626 52 593 q 50 681 50 659 q 51 702 50 686 q 52 734 52 718 q 54 765 53 751 q 54 779 54 779 q 66 787 58 784 q 84 791 75 790 q 104 792 94 792 q 122 793 115 793 q 203 797 164 793 q 283 802 241 802 q 499 802 393 802 q 720 806 606 802 q 754 801 741 804 q 775 792 768 797 q 785 783 782 788 q 787 775 787 779 l 787 553 q 780 512 787 534 q 757 461 772 491 q 722 390 743 431 q 675 292 701 349 q 664 265 671 283 q 644 215 657 246 q 608 138 630 183 q 554 33 587 93 l 519 -31 q 503 -59 512 -44 q 482 -89 494 -72 q 453 -122 469 -105 q 441 -130 448 -126 q 425 -134 433 -134 q 375 -122 405 -134 q 313 -93 345 -111 q 248 -53 280 -75 q 189 -9 215 -31 q 148 32 163 13 q 132 62 132 51 q 139 82 132 65 q 159 125 146 99 q 187 185 171 152 q 220 255 203 219 q 254 326 237 291 q 285 392 271 361 q 310 446 300 422 q 325 479 321 469 z "},"8":{"ha":1031,"x_min":67,"x_max":970,"o":"m 67 260 q 70 315 67 289 q 82 363 73 340 q 107 404 91 385 q 149 438 123 422 q 117 467 132 450 q 93 505 103 485 q 78 546 83 525 q 73 587 73 568 q 84 661 73 626 q 117 724 96 695 q 135 743 125 736 q 157 759 145 749 q 184 779 169 768 q 214 796 199 790 q 293 824 251 815 q 379 835 335 833 q 469 837 424 838 q 558 836 515 836 q 615 833 585 836 q 672 827 644 831 q 726 814 700 822 q 772 794 751 806 q 852 751 821 775 q 897 707 884 727 q 921 650 912 681 q 930 590 930 619 q 925 549 930 570 q 912 506 921 527 q 890 468 903 486 q 859 438 876 450 q 940 363 911 408 q 970 260 970 319 q 960 182 970 218 q 922 104 948 136 q 859 50 895 72 q 817 28 839 37 q 769 12 794 19 q 750 6 760 9 q 730 2 740 4 q 702 -1 716 -1 q 673 -3 688 -1 q 645 -8 659 -5 q 618 -12 631 -11 q 574 -14 596 -14 q 528 -15 551 -15 q 454 -13 491 -15 q 381 -6 418 -11 q 271 17 321 1 q 176 58 220 33 q 158 67 169 62 q 141 76 147 71 q 102 111 117 92 q 79 153 87 130 q 70 202 72 176 q 67 260 67 229 m 503 370 q 475 347 486 370 q 464 269 464 323 q 469 196 464 223 q 481 155 473 169 q 501 138 490 142 q 525 134 512 134 q 546 138 536 134 q 563 156 555 142 q 574 196 570 170 q 578 269 578 223 q 563 347 578 323 q 526 370 549 370 l 503 370 m 504 683 q 486 681 496 682 q 467 669 476 679 q 452 637 458 659 q 446 576 446 615 q 450 524 446 543 q 463 495 455 505 q 482 482 471 485 q 505 479 493 479 q 529 483 518 479 q 547 498 540 487 q 558 527 554 509 q 562 576 562 546 q 557 633 562 612 q 543 665 551 654 q 524 679 534 675 q 504 683 514 682 z "},"9":{"ha":1001,"x_min":58,"x_max":943,"o":"m 515 345 q 429 323 471 330 q 348 317 387 317 q 255 327 298 317 q 176 359 211 338 q 90 444 121 391 q 58 570 58 496 q 93 699 58 643 q 184 791 127 754 q 316 847 241 828 q 470 865 390 865 q 585 854 528 865 q 695 819 642 842 q 793 760 747 795 q 872 677 838 724 q 924 570 905 629 q 943 438 943 510 q 939 336 943 385 q 917 245 934 288 q 866 154 898 196 q 797 78 833 111 q 635 9 727 33 q 431 -15 543 -15 q 339 -8 385 -15 q 242 14 292 -1 q 197 30 220 22 q 155 54 174 39 q 141 62 149 58 q 128 75 133 65 q 124 105 123 85 q 140 165 126 126 q 160 212 153 194 q 176 241 168 231 q 196 253 184 251 q 229 250 208 255 q 285 236 254 242 q 347 231 315 231 q 416 237 388 231 q 463 254 445 243 q 492 276 481 264 q 507 302 502 289 q 513 326 511 315 q 515 345 514 338 m 408 642 q 356 626 377 642 q 336 574 336 610 q 341 550 336 559 q 354 534 346 540 q 374 525 363 528 q 399 522 386 522 q 438 526 419 522 q 472 533 457 529 q 505 545 490 538 q 466 620 492 597 q 408 642 441 642 z "}," ":{"ha":357,"x_min":0,"x_max":0,"o":""},"!":{"ha":571,"x_min":60,"x_max":512,"o":"m 441 200 q 442 161 441 178 q 443 129 442 144 q 444 99 444 114 q 446 63 445 83 q 445 10 446 28 q 439 -18 444 -9 q 422 -29 433 -27 q 391 -31 411 -31 q 354 -30 370 -31 q 315 -26 337 -30 q 300 -25 315 -26 q 265 -25 286 -25 q 219 -24 243 -24 q 173 -22 194 -24 q 138 -19 152 -21 q 123 -12 123 -16 l 119 109 q 119 143 119 131 q 119 163 119 156 q 120 173 119 170 q 121 180 120 176 q 122 188 121 183 q 122 204 122 193 q 123 211 121 207 q 129 219 125 216 q 137 225 132 222 q 147 228 142 228 q 174 228 158 228 q 208 229 191 229 q 242 229 225 229 q 271 229 258 229 l 325 229 q 364 228 344 229 q 402 223 385 227 q 430 214 419 220 q 441 200 441 208 m 97 571 q 94 599 96 579 q 91 640 93 618 q 89 678 90 661 q 87 697 87 695 q 85 729 87 709 q 78 772 82 750 q 72 816 75 795 q 69 850 69 837 q 67 878 69 865 q 60 908 65 892 q 68 918 58 914 q 94 924 78 922 q 130 927 110 926 q 168 929 150 928 q 201 932 186 930 q 220 936 215 933 l 454 936 q 472 928 462 931 q 491 919 481 924 q 506 906 500 914 q 512 886 512 899 q 509 834 512 861 q 497 783 505 808 l 463 581 q 460 570 461 578 q 458 553 459 562 q 455 535 456 543 q 454 525 454 527 q 443 440 454 489 q 420 340 431 392 q 401 329 418 333 q 356 324 383 326 q 295 322 329 323 q 225 322 260 322 q 206 323 220 322 q 176 326 192 324 q 147 330 160 328 q 130 334 134 332 q 125 350 127 338 q 121 376 123 362 q 118 402 119 390 q 117 419 117 415 q 113 449 115 427 q 107 495 111 471 q 101 541 104 519 q 97 571 98 563 z "},"\"":{"ha":1018,"x_min":71,"x_max":946,"o":"m 424 478 q 415 432 418 456 q 408 386 411 409 q 399 340 404 363 q 388 294 395 317 q 379 295 384 294 q 369 295 374 295 q 333 294 353 295 q 288 294 314 294 l 206 294 l 199 294 q 184 293 192 294 q 168 292 176 292 q 150 303 157 292 q 139 329 143 314 q 133 358 135 343 q 129 382 131 374 q 111 505 116 443 q 97 628 105 566 q 83 776 90 702 q 71 925 76 850 l 79 935 l 91 935 q 127 941 115 939 q 147 944 140 943 q 155 945 153 945 q 157 945 157 945 l 241 945 q 256 944 248 945 q 284 940 264 943 q 309 944 293 945 q 344 942 326 944 q 380 938 362 940 q 410 937 397 936 q 439 930 429 933 q 455 923 450 927 q 463 912 461 919 q 465 895 465 905 q 464 874 465 889 q 462 840 463 859 q 459 797 460 820 q 456 751 458 774 q 453 710 454 729 q 450 677 452 690 q 443 628 446 652 q 438 578 440 603 q 432 528 435 553 q 424 478 429 503 m 906 478 q 897 432 901 456 q 890 386 893 409 q 882 340 886 363 q 869 294 877 317 q 861 295 865 294 q 850 295 856 295 q 817 294 835 295 q 787 293 800 294 l 785 293 l 775 298 l 770 294 l 688 294 l 682 294 q 666 293 673 294 q 650 292 659 292 q 632 303 639 292 q 621 329 625 314 q 614 358 616 343 q 610 382 612 373 q 600 443 604 412 q 592 504 595 473 q 586 566 589 535 q 578 628 583 597 q 565 776 572 702 q 553 925 558 850 l 562 935 q 634 936 605 935 q 685 939 664 937 q 723 942 707 941 q 756 942 739 943 q 778 940 768 941 q 793 941 787 939 q 814 935 802 937 q 842 934 827 934 q 869 936 856 935 q 892 937 883 937 q 921 930 910 933 q 937 923 931 927 q 944 912 943 919 q 946 895 946 905 q 945 874 946 889 q 943 840 945 859 q 941 797 942 820 q 938 752 939 774 q 935 710 936 730 q 932 677 933 690 q 924 628 927 652 q 920 578 922 603 q 915 528 918 553 q 906 478 911 503 z "},"#":{"ha":1229,"x_min":62,"x_max":1168,"o":"m 1086 939 q 1104 910 1101 924 q 1107 888 1107 895 l 1107 882 q 1102 852 1107 882 q 1086 777 1096 823 l 1089 777 q 1117 777 1103 777 q 1144 773 1132 776 q 1163 764 1156 770 q 1168 748 1171 758 q 1161 708 1164 724 q 1154 679 1157 692 q 1147 652 1150 665 q 1141 623 1144 640 q 1135 597 1139 608 q 1123 579 1132 587 q 1100 567 1115 571 q 1059 564 1084 564 l 1042 560 l 1012 413 l 1023 413 q 1051 412 1036 413 q 1078 407 1065 411 q 1097 396 1090 404 q 1102 376 1104 389 q 1094 324 1098 345 q 1087 286 1090 303 q 1081 252 1084 269 q 1075 213 1078 235 q 1069 180 1072 195 q 1057 157 1065 166 q 1033 142 1048 147 q 993 137 1018 137 q 983 134 987 136 q 970 132 975 132 l 958 132 q 940 45 949 82 q 919 -7 930 9 q 883 -10 897 -9 q 858 -13 869 -12 q 838 -14 847 -14 q 814 -16 828 -15 q 740 -17 774 -17 q 682 -17 707 -17 q 641 -16 656 -16 q 622 -16 626 -16 q 612 -8 614 -16 q 610 10 610 -1 q 612 38 610 22 q 616 67 614 53 q 621 94 619 82 q 623 113 623 106 q 624 122 624 117 q 626 132 625 127 l 475 132 q 457 45 466 82 q 436 -7 448 9 q 412 -8 424 -7 q 391 -10 400 -9 q 375 -12 381 -11 q 368 -12 369 -12 l 364 -12 q 352 -9 355 -12 q 342 -7 348 -7 q 336 -9 339 -7 q 331 -12 331 -12 l 228 -12 q 214 -14 227 -13 q 186 -15 201 -14 q 157 -15 171 -15 q 139 -16 143 -16 q 129 -8 132 -16 q 127 10 127 -1 q 129 38 127 22 q 134 67 131 53 q 138 94 136 82 q 140 113 140 106 q 141 122 141 117 q 143 132 142 127 q 110 133 125 132 q 83 138 95 134 q 66 150 72 142 q 62 173 60 159 q 69 229 66 204 q 75 276 72 253 q 81 322 78 298 q 89 377 84 347 q 94 390 90 383 q 104 401 98 396 q 117 410 111 406 q 130 413 124 413 q 162 414 146 413 q 194 416 178 414 l 203 471 l 220 560 q 183 560 201 560 q 152 563 165 560 q 132 573 139 566 q 127 591 125 579 q 134 634 131 616 q 140 671 137 653 q 146 707 143 688 q 154 749 149 726 q 159 759 155 754 q 170 768 163 764 q 182 774 176 772 q 195 777 189 777 q 229 778 213 777 q 262 779 245 779 l 290 924 q 292 927 290 925 q 296 931 294 929 q 301 936 299 934 q 302 939 302 937 q 309 938 307 939 q 314 937 310 937 q 331 942 323 937 q 348 946 338 946 q 366 942 357 946 q 383 939 374 939 q 398 945 389 943 q 417 946 407 946 q 437 945 427 946 q 456 945 447 945 q 461 941 456 943 q 467 939 465 939 q 472 940 468 939 q 480 942 476 941 q 489 944 485 943 q 492 945 492 945 q 504 945 495 945 q 525 944 513 945 q 550 943 537 943 q 575 942 564 943 q 594 940 587 941 q 604 939 602 939 q 621 910 618 924 q 625 888 625 895 l 625 882 q 619 853 625 882 q 604 781 613 825 l 745 779 l 772 924 q 799 940 783 933 q 831 946 815 946 l 900 946 q 918 947 904 946 q 952 948 932 947 q 993 948 971 948 q 1035 947 1015 948 q 1068 945 1054 947 q 1086 939 1082 943 m 530 417 q 601 417 564 417 q 677 416 638 416 l 686 471 l 703 560 l 559 560 l 530 417 z "},"$":{"ha":890,"x_min":55,"x_max":842,"o":"m 842 282 q 831 182 842 227 q 801 104 820 138 q 754 45 781 71 q 694 3 727 20 l 690 -127 l 551 -139 l 543 -29 q 472 -32 509 -31 q 401 -33 435 -33 l 398 -127 l 360 -136 q 355 -132 357 -136 q 351 -127 354 -127 q 350 -132 350 -130 q 349 -136 349 -134 l 311 -136 q 302 -137 309 -137 q 286 -138 294 -138 q 269 -139 277 -138 q 259 -139 261 -139 q 250 -130 253 -139 q 245 -105 247 -121 q 244 -68 244 -90 q 243 -21 243 -47 q 179 8 211 -10 q 126 52 148 26 q 94 160 106 105 q 80 275 82 216 q 85 295 80 286 q 98 304 90 304 q 171 294 136 303 q 240 274 207 285 q 303 255 273 263 q 358 246 333 246 q 383 247 370 246 q 407 251 396 248 q 426 259 418 254 q 439 274 435 264 q 355 314 399 294 q 268 356 311 334 q 186 405 225 378 q 119 466 148 432 q 72 544 90 500 q 55 642 55 587 q 66 753 55 705 q 96 837 77 802 q 141 897 115 873 q 195 935 166 920 l 195 1074 q 203 1095 195 1084 q 226 1105 210 1105 q 247 1104 237 1105 q 267 1102 258 1103 q 281 1100 275 1101 q 290 1099 288 1099 q 296 1099 295 1099 q 296 1101 296 1100 q 314 1094 307 1095 q 326 1092 322 1092 q 329 1094 327 1092 l 331 1096 q 336 1085 334 1096 q 341 1057 339 1075 q 346 1014 344 1038 q 349 962 348 989 l 465 965 l 466 1074 l 466 1082 q 469 1088 466 1084 q 476 1096 471 1092 q 486 1103 480 1100 q 496 1105 491 1105 q 523 1103 511 1105 q 546 1099 534 1101 q 569 1095 557 1097 q 595 1093 581 1093 q 601 1095 598 1093 l 602 1096 q 607 1085 604 1096 q 612 1055 610 1074 q 616 1010 614 1036 q 620 957 618 985 q 684 941 655 951 q 736 926 712 930 q 743 923 740 926 q 748 916 745 920 q 753 909 751 912 q 760 905 756 906 q 761 906 761 905 q 762 907 761 907 q 769 833 765 869 q 774 758 774 796 q 774 732 774 747 q 771 704 774 718 q 763 682 769 691 q 746 673 758 673 q 701 678 726 673 q 646 689 675 683 q 586 699 616 694 q 527 704 555 704 q 484 702 504 704 q 449 694 464 699 q 425 680 434 688 q 416 660 416 672 q 435 648 416 656 q 483 625 453 639 q 551 593 513 612 q 629 551 589 574 q 707 499 669 528 q 775 437 745 471 q 823 365 805 404 q 842 282 842 326 z "},"%":{"ha":1729,"x_min":46,"x_max":1679,"o":"m 956 277 q 924 194 937 228 q 898 133 910 160 q 875 81 886 106 q 848 27 863 56 q 828 4 841 12 q 803 -7 815 -4 q 782 -12 791 -11 q 772 -12 772 -12 l 768 -12 q 755 -9 758 -12 q 747 -7 753 -7 q 741 -9 743 -7 q 734 -12 734 -12 l 659 -12 q 647 -11 657 -11 q 624 -10 637 -10 q 598 -11 610 -10 q 583 -11 587 -11 q 566 -3 571 -11 q 561 16 561 4 q 563 42 560 28 q 569 71 566 57 q 577 96 573 84 q 583 113 581 107 q 656 292 618 199 q 732 471 694 384 l 908 924 q 910 927 908 925 q 916 932 913 930 q 922 936 919 934 q 924 939 924 937 q 930 938 929 939 q 935 937 931 937 q 966 942 950 937 q 998 946 982 946 q 1027 946 1011 946 q 1062 946 1044 946 q 1099 944 1080 945 q 1137 939 1118 942 q 1137 937 1135 938 q 1140 936 1138 937 q 1146 935 1143 935 l 1159 939 q 1181 932 1171 939 q 1192 905 1190 925 q 1186 847 1194 884 q 1154 747 1177 809 l 1112 650 q 1096 614 1103 631 q 1083 582 1088 596 q 1073 559 1077 568 q 1069 550 1069 551 q 1061 529 1069 549 q 1041 479 1053 509 q 1014 414 1028 449 q 986 350 999 380 q 965 299 974 319 q 956 277 957 278 m 296 330 q 225 338 259 330 q 156 368 191 347 q 105 414 126 385 q 71 476 84 443 q 52 544 58 509 q 46 607 46 578 q 63 715 46 661 q 113 813 81 769 q 191 884 144 857 q 294 911 237 911 q 311 911 302 911 q 327 910 319 911 q 331 911 329 911 q 334 911 332 911 q 399 910 371 911 q 451 906 428 909 q 494 896 474 903 q 533 879 513 890 q 597 828 570 854 q 641 769 624 801 q 667 700 659 737 q 675 616 675 662 q 665 529 675 571 q 633 448 654 486 q 629 440 631 445 q 624 432 626 436 q 619 425 621 428 q 617 422 617 422 l 611 419 q 556 366 588 385 q 487 338 524 347 q 412 327 450 329 q 337 326 373 326 q 316 328 326 326 q 296 330 307 330 m 321 594 q 322 585 321 593 q 325 564 323 576 q 331 536 328 551 q 340 505 335 520 q 346 498 341 499 q 353 498 350 498 q 370 509 363 498 q 383 536 378 519 q 391 572 388 552 q 396 611 394 593 q 398 644 397 629 q 399 665 399 659 q 398 677 399 663 q 396 708 398 691 q 388 740 393 726 q 372 755 382 755 q 346 734 359 755 q 327 663 333 713 l 321 613 l 321 594 m 1300 -12 q 1229 -3 1263 -12 q 1160 26 1194 5 q 1109 72 1130 43 q 1075 134 1088 101 q 1056 202 1061 168 q 1050 265 1050 237 q 1067 373 1050 319 q 1116 471 1084 427 q 1194 542 1148 515 q 1297 570 1240 570 q 1314 570 1306 570 q 1331 568 1322 570 q 1334 569 1333 569 q 1337 569 1336 569 q 1403 568 1375 569 q 1455 564 1432 567 q 1497 554 1478 561 q 1537 537 1517 548 q 1601 486 1574 513 q 1645 427 1628 459 q 1671 358 1662 395 q 1679 274 1679 320 q 1669 187 1679 229 q 1636 106 1658 144 q 1632 99 1635 103 q 1627 90 1630 94 q 1623 83 1625 86 q 1621 81 1621 81 l 1615 77 q 1559 24 1592 43 q 1491 -4 1527 5 q 1415 -15 1454 -13 q 1341 -16 1377 -16 q 1320 -14 1329 -16 q 1300 -12 1311 -12 m 1324 225 q 1325 217 1324 224 q 1329 201 1326 211 q 1335 179 1331 191 q 1344 156 1339 168 q 1349 150 1345 151 q 1357 149 1354 149 q 1374 160 1367 149 q 1387 189 1381 172 q 1395 227 1392 206 q 1399 267 1398 248 q 1402 302 1401 286 q 1402 323 1402 317 q 1402 334 1402 322 q 1399 360 1402 345 q 1392 387 1397 374 q 1375 399 1386 399 q 1350 382 1362 399 q 1331 321 1337 364 l 1324 244 l 1324 225 z "},"&":{"ha":1449,"x_min":79,"x_max":1410,"o":"m 1183 351 q 1184 296 1183 325 q 1188 245 1185 268 q 1197 207 1191 222 q 1214 192 1204 192 q 1299 192 1256 192 q 1385 202 1343 193 q 1401 191 1393 200 q 1410 173 1410 181 l 1410 9 q 1400 4 1410 6 q 1373 2 1390 3 q 1334 0 1356 1 q 1289 0 1312 0 q 1230 0 1259 0 q 1175 1 1200 1 q 1129 1 1149 1 q 1095 1 1108 1 q 1040 -1 1068 1 q 987 -3 1013 -3 q 940 4 964 -3 q 892 22 916 10 q 848 51 869 34 q 810 90 827 68 q 735 45 770 65 q 705 29 720 37 q 675 15 689 21 q 649 5 661 9 q 629 1 637 1 q 410 1 520 1 q 190 0 300 0 q 169 2 184 0 q 136 6 153 3 q 106 12 119 9 q 94 20 94 16 q 93 60 94 35 q 91 116 92 85 q 87 179 89 146 q 83 242 85 212 q 80 299 81 273 q 79 342 79 325 q 80 375 79 359 q 80 406 80 390 q 81 441 81 422 q 81 484 81 460 l 81 546 l 81 610 q 83 778 81 694 q 93 950 85 863 q 107 961 93 956 q 145 968 122 965 q 195 973 168 971 q 250 975 223 975 q 298 976 276 976 q 332 977 321 977 q 432 978 389 977 q 510 981 475 979 q 578 983 546 982 q 647 985 610 985 q 730 983 684 985 q 838 977 776 981 q 858 962 850 977 q 870 924 865 947 q 879 874 875 901 q 890 823 884 847 q 889 797 891 805 q 884 786 888 789 q 874 784 880 783 q 859 785 867 785 q 788 782 824 785 q 715 775 752 779 q 642 768 679 772 q 570 763 606 765 q 562 752 566 763 q 555 724 558 741 q 550 686 552 707 q 546 645 548 665 q 544 607 545 625 q 543 581 543 590 q 548 556 543 562 q 565 551 553 551 l 782 551 q 787 657 783 615 q 803 713 791 700 q 896 714 857 713 q 967 714 935 714 q 1030 714 1000 714 q 1099 715 1061 715 q 1138 711 1123 713 q 1160 700 1152 710 q 1170 666 1168 690 q 1173 595 1173 642 q 1174 574 1173 586 q 1177 550 1175 563 q 1243 548 1216 549 q 1279 546 1270 547 q 1297 544 1290 545 q 1310 541 1305 543 q 1319 532 1316 538 q 1326 514 1323 526 l 1332 390 l 1332 386 q 1329 367 1332 374 q 1316 357 1326 360 q 1287 352 1305 353 q 1238 351 1268 351 l 1183 351 m 785 202 q 784 278 785 241 q 783 351 784 315 l 588 351 q 562 350 572 351 q 548 344 553 349 q 541 328 543 339 q 538 296 539 317 q 535 244 537 269 q 534 191 533 219 q 579 192 553 191 q 633 194 605 193 q 688 196 661 195 q 738 198 715 197 l 781 198 l 785 202 z "},"'":{"ha":551,"x_min":57,"x_max":492,"o":"m 437 478 q 428 432 432 456 q 421 386 425 409 q 413 340 418 363 q 401 294 408 317 q 386 295 395 295 q 367 295 376 295 q 348 294 357 294 q 332 293 338 294 l 330 293 l 329 293 l 321 298 l 315 294 l 247 294 q 204 294 226 296 q 161 293 182 292 q 146 312 151 301 q 137 334 140 322 q 132 358 134 346 q 127 382 130 370 q 110 505 115 443 q 96 628 104 566 q 74 776 84 702 q 57 925 64 850 l 65 935 l 76 935 l 138 945 q 190 945 163 946 q 241 945 216 943 q 272 949 256 951 q 301 949 287 947 l 311 945 q 325 946 317 947 q 339 947 334 946 q 348 945 343 945 q 357 943 353 945 l 418 939 l 428 936 q 433 937 431 936 q 437 937 434 937 q 470 929 458 932 q 487 920 481 926 q 492 905 492 915 q 492 879 492 896 q 487 835 490 863 q 479 778 484 808 q 471 721 475 749 q 464 677 467 694 q 452 578 454 627 q 437 478 449 528 z "},"(":{"ha":762,"x_min":43,"x_max":644,"o":"m 397 1000 q 431 1012 410 1007 q 471 1021 451 1017 q 517 1027 493 1024 l 595 766 q 550 709 572 739 q 511 643 528 680 q 484 559 494 606 q 473 450 473 513 q 478 376 473 409 q 493 316 484 343 q 514 267 502 290 q 542 223 527 244 q 554 208 545 219 q 573 185 563 197 q 593 162 584 173 q 605 149 602 152 q 623 132 612 142 q 644 116 634 121 l 485 -170 q 368 -104 422 -140 q 267 -30 314 -68 q 227 1 249 -16 q 182 40 205 18 q 137 90 159 62 q 96 155 115 118 q 65 237 78 191 q 47 342 52 283 q 43 427 43 381 q 45 489 43 459 q 52 550 47 519 q 75 652 60 603 q 113 746 91 702 q 178 845 139 803 q 258 918 217 887 q 336 968 298 948 q 397 1000 373 988 z "},")":{"ha":762,"x_min":43,"x_max":644,"o":"m 290 1000 q 351 968 313 988 q 429 918 388 948 q 508 845 469 887 q 574 746 547 803 q 611 652 595 702 q 635 550 627 603 q 642 489 640 519 q 644 427 644 459 q 640 342 644 381 q 607 193 632 254 q 549 90 582 132 q 481 19 517 47 q 420 -30 446 -9 q 318 -104 372 -68 q 201 -170 264 -140 l 43 116 q 63 132 52 121 q 81 149 75 142 q 93 162 84 152 q 113 185 102 173 q 133 208 123 197 q 144 223 142 219 q 172 267 159 244 q 194 316 184 290 q 208 376 203 343 q 213 450 213 409 q 203 559 213 513 q 176 643 193 606 q 137 709 159 680 q 91 766 115 739 l 169 1027 q 216 1021 193 1024 q 256 1012 235 1017 q 290 1000 276 1007 z "},"*":{"ha":798,"x_min":60,"x_max":743,"o":"m 130 538 l 224 602 l 130 665 q 100 684 115 675 q 74 704 85 694 q 60 725 64 714 q 66 749 57 736 q 86 780 77 766 q 103 807 95 793 q 120 833 111 820 q 140 864 129 847 q 161 875 146 873 q 183 872 175 878 q 243 832 215 851 q 303 792 272 812 l 303 861 q 303 898 303 880 q 305 930 302 916 q 315 953 308 944 q 338 962 322 962 q 374 963 358 962 q 406 963 391 963 q 438 963 422 963 q 475 964 454 964 q 486 961 480 964 q 495 953 491 958 q 503 943 500 949 q 505 933 505 938 l 505 783 q 533 800 521 792 q 553 813 546 808 q 562 820 555 814 q 574 831 568 825 q 587 842 581 837 q 595 848 593 847 q 625 863 613 860 q 647 863 637 866 q 665 850 657 859 q 682 827 673 840 q 695 808 688 817 q 708 791 701 800 q 722 772 714 783 q 739 747 729 762 q 743 728 745 737 q 734 711 741 720 q 717 694 727 702 q 697 680 707 686 q 640 641 668 661 q 583 602 612 622 q 640 562 612 581 q 697 523 668 543 q 717 509 707 517 q 734 492 727 501 q 743 474 741 484 q 739 456 745 465 q 722 431 729 441 q 708 412 714 420 q 695 395 701 403 q 682 376 688 387 q 665 353 673 363 q 647 340 657 344 q 625 340 637 337 q 595 355 613 343 q 587 361 593 355 q 574 372 581 366 q 562 384 568 378 q 553 390 555 389 l 501 422 q 500 367 500 394 q 500 311 500 340 q 499 287 500 300 q 495 264 498 275 q 485 246 492 253 q 468 239 479 239 q 437 240 450 239 q 413 241 424 241 q 392 242 402 241 q 368 243 381 243 q 340 244 353 243 q 320 252 328 245 q 308 270 312 258 q 303 302 303 281 q 304 313 303 304 q 306 330 305 321 q 308 347 307 339 q 309 357 309 355 q 309 380 309 366 q 308 414 309 395 l 183 331 q 161 328 175 326 q 140 339 146 330 q 120 370 129 356 q 103 396 111 383 q 86 423 95 410 q 66 454 77 437 q 60 478 57 467 q 74 499 64 489 q 100 519 85 509 q 130 538 115 528 z "},"+":{"ha":767,"x_min":37,"x_max":730,"o":"m 157 204 q 115 204 136 204 q 76 207 94 203 q 48 218 59 210 q 38 244 38 227 q 38 300 38 275 q 37 350 37 326 q 37 399 37 374 q 37 454 37 424 q 40 467 37 460 q 49 478 43 473 q 61 487 54 484 q 73 490 67 490 l 245 490 l 245 570 q 244 612 245 591 q 247 651 244 633 q 259 679 250 668 q 286 689 268 689 q 342 689 317 689 q 391 690 367 690 q 439 690 414 690 q 495 690 465 690 q 508 687 501 690 q 519 678 514 684 q 528 666 524 673 q 531 654 531 660 l 531 487 q 588 485 560 486 q 645 484 616 484 q 673 483 659 484 q 701 478 688 481 q 722 466 713 474 q 730 446 730 458 q 729 394 730 416 q 728 355 728 373 q 726 320 727 337 q 726 281 726 302 q 724 248 726 262 q 715 224 722 234 q 694 209 708 214 q 655 204 680 204 l 528 204 q 526 143 527 172 q 524 82 524 113 q 523 54 524 68 q 518 26 522 39 q 507 5 515 14 q 487 -3 500 -3 q 435 -2 456 -3 q 396 -1 414 -1 q 360 1 378 0 q 321 1 343 1 q 289 3 303 1 q 265 12 275 5 q 250 33 255 19 q 245 72 245 47 q 246 83 245 74 q 249 104 247 93 q 251 124 250 115 q 252 136 252 134 q 251 150 252 140 q 249 170 250 159 q 246 191 248 181 q 245 204 245 201 l 157 204 z "},",":{"ha":568,"x_min":60,"x_max":494,"o":"m 323 -326 q 255 -353 291 -342 q 179 -364 219 -364 q 165 -364 172 -364 q 153 -363 159 -364 q 150 -347 152 -356 q 146 -329 149 -338 q 142 -310 144 -319 q 138 -294 140 -301 l 138 -293 l 142 -283 l 136 -278 l 121 -231 q 117 -224 119 -229 q 112 -214 115 -220 q 108 -204 110 -209 q 104 -197 106 -199 q 175 -168 145 -189 q 222 -122 204 -146 q 245 -81 239 -99 q 247 -61 252 -62 q 223 -59 239 -60 q 189 -57 208 -58 q 149 -56 170 -57 q 112 -52 129 -54 q 85 -45 96 -50 q 73 -33 74 -41 q 70 26 71 -12 q 67 104 68 64 q 65 183 66 145 q 60 243 63 220 l 68 253 l 140 262 l 162 262 l 222 262 q 247 264 235 262 q 271 267 259 267 l 297 267 l 304 267 l 314 262 q 328 264 319 264 q 342 265 336 264 q 351 263 346 263 q 359 261 355 262 l 420 257 l 431 254 q 435 255 434 254 q 440 256 437 256 q 461 248 453 252 q 473 241 469 245 q 479 231 477 237 q 480 215 480 225 q 480 191 480 210 q 482 148 481 172 q 486 103 484 125 q 494 71 489 81 q 490 20 490 52 q 487 -50 489 -12 q 477 -128 484 -87 q 452 -207 470 -169 q 404 -276 435 -244 q 323 -326 373 -307 z "},"-":{"ha":653,"x_min":78,"x_max":577,"o":"m 199 271 q 157 270 178 271 q 118 273 136 270 q 91 285 101 276 q 80 311 80 294 q 80 367 80 342 q 79 414 79 391 q 78 461 79 437 q 78 515 78 485 q 81 528 78 522 q 90 539 85 534 q 102 548 96 545 q 115 551 109 551 q 176 554 147 551 q 239 557 205 557 l 368 557 q 431 554 403 557 q 492 551 460 551 q 521 550 506 551 q 548 546 536 549 q 569 534 561 542 q 577 514 577 527 q 576 463 577 484 q 575 424 576 441 q 574 390 574 407 q 573 351 573 373 q 571 319 573 333 q 563 295 570 304 q 542 280 556 286 q 502 275 527 275 l 492 273 q 479 271 484 271 l 410 271 l 199 271 z "},".":{"ha":532,"x_min":73,"x_max":456,"o":"m 454 -14 q 448 -29 456 -24 q 427 -34 440 -33 q 397 -33 414 -35 q 365 -32 380 -32 q 352 -32 361 -32 q 333 -33 343 -33 q 314 -34 323 -33 q 302 -33 305 -34 q 225 -31 258 -32 q 165 -32 193 -31 q 143 -34 155 -33 q 118 -34 130 -35 q 97 -29 106 -33 q 87 -14 88 -24 q 83 46 85 8 q 81 124 82 83 q 79 202 80 165 q 73 262 77 240 l 82 272 l 126 282 l 208 282 q 234 284 222 282 q 257 286 245 286 l 290 286 l 300 282 q 313 284 304 284 q 328 285 321 283 q 336 282 332 283 q 346 281 341 282 l 379 277 l 389 273 q 393 274 391 273 q 398 275 396 275 q 419 268 411 271 q 431 260 427 264 q 437 251 435 256 q 439 235 439 245 q 447 211 444 229 q 451 169 450 192 q 452 124 452 146 q 452 90 452 102 q 456 48 456 60 q 455 28 456 35 q 453 14 454 21 q 454 -14 452 6 z "},"/":{"ha":760,"x_min":54,"x_max":711,"o":"m 534 277 q 507 182 519 228 q 482 99 494 137 q 460 34 471 62 q 438 -7 449 6 q 411 -8 426 -7 q 382 -10 396 -9 q 359 -12 369 -11 q 349 -12 350 -12 l 345 -12 q 333 -9 336 -12 q 324 -7 330 -7 q 318 -9 321 -7 q 312 -12 312 -12 l 155 -12 q 143 -14 153 -13 q 119 -15 132 -14 q 95 -15 106 -15 q 79 -16 83 -16 q 61 -8 67 -16 q 54 12 56 0 q 54 39 52 24 q 58 68 55 54 q 63 95 60 83 q 67 113 66 106 q 117 292 91 199 q 169 471 143 384 l 316 924 q 318 927 316 925 q 323 932 321 930 q 329 936 326 934 q 331 939 331 937 q 337 938 336 939 q 342 937 338 937 q 386 942 363 937 q 431 946 408 946 q 449 942 441 946 q 466 939 456 939 q 484 944 472 943 q 508 946 495 946 q 534 945 521 946 q 556 945 547 945 q 560 941 556 943 q 566 939 564 939 q 571 940 567 939 q 579 942 575 941 q 588 944 584 943 q 592 945 591 945 q 612 943 600 945 q 627 939 624 941 l 652 939 q 653 937 651 938 q 656 936 654 937 l 662 935 l 674 939 q 702 922 693 939 q 711 879 710 906 q 707 818 712 852 q 694 747 702 784 l 657 650 q 644 614 650 631 q 632 582 637 596 q 624 559 627 568 q 621 550 621 551 q 614 529 621 549 q 598 479 608 509 q 577 414 589 449 q 557 350 566 380 q 541 299 547 319 q 534 277 534 278 z "},":":{"ha":532,"x_min":73,"x_max":456,"o":"m 454 450 q 448 435 456 439 q 426 430 439 431 q 396 431 413 429 q 365 432 380 432 q 352 432 361 432 q 333 431 343 431 q 314 430 323 431 q 302 431 305 430 q 225 432 257 431 q 165 432 193 433 q 142 430 155 431 q 117 430 130 429 q 96 435 105 431 q 87 450 87 439 q 83 510 84 472 q 81 588 82 547 q 78 666 80 629 q 73 726 77 704 l 81 736 l 125 746 l 208 746 q 233 748 221 746 q 256 750 245 750 l 290 750 l 299 746 q 312 748 304 748 q 327 749 321 747 q 336 746 332 747 q 345 745 341 746 l 378 741 l 388 737 q 393 738 391 737 q 398 739 396 739 q 418 732 410 735 q 430 724 426 728 q 436 714 435 720 q 438 699 438 709 q 446 674 444 693 q 450 633 449 656 q 452 588 452 610 q 452 554 452 566 q 456 512 456 524 q 455 492 456 499 q 453 477 454 485 q 454 450 452 470 m 454 17 q 448 2 456 6 q 426 -3 439 -3 q 396 -3 413 -4 q 365 -1 380 -1 q 352 -2 361 -1 q 333 -2 343 -2 q 314 -3 323 -3 q 302 -3 305 -3 q 225 -1 257 -2 q 165 -1 193 -1 q 142 -3 155 -2 q 117 -4 130 -5 q 96 2 105 -3 q 87 17 87 6 q 83 76 84 39 q 81 155 82 114 q 78 233 80 195 q 73 293 77 271 l 81 302 l 125 313 l 208 313 q 233 315 221 313 q 256 317 245 317 l 290 317 l 299 313 q 312 314 304 315 q 327 315 321 314 q 336 313 332 313 q 345 311 341 313 l 378 307 l 388 304 q 393 305 391 304 q 398 306 396 306 q 418 298 410 302 q 430 291 426 295 q 436 281 435 287 q 438 265 438 275 q 446 241 444 260 q 450 199 449 222 q 452 154 452 176 q 452 121 452 132 q 456 78 456 91 q 455 59 456 66 q 453 44 454 52 q 454 17 452 37 z "},";":{"ha":555,"x_min":60,"x_max":498,"o":"m 494 71 q 498 3 498 40 q 493 -76 498 -35 q 474 -159 488 -118 q 437 -237 460 -200 q 378 -302 414 -274 q 293 -348 342 -331 q 179 -364 244 -364 q 165 -364 172 -364 q 153 -363 159 -364 q 150 -347 152 -356 q 146 -329 149 -338 q 141 -310 144 -319 q 138 -294 139 -301 l 121 -231 q 117 -224 119 -229 q 112 -214 115 -220 q 108 -204 110 -209 q 104 -197 106 -199 q 168 -172 141 -191 q 213 -133 195 -154 q 239 -93 231 -112 q 248 -65 248 -73 q 235 -60 248 -62 q 203 -57 222 -58 q 162 -55 184 -56 q 120 -52 139 -54 q 87 -45 100 -50 q 73 -33 74 -41 q 70 26 71 -12 q 67 104 68 64 q 65 183 66 145 q 60 243 63 220 l 68 253 l 140 262 q 225 264 184 262 q 304 267 267 267 l 314 262 q 328 264 319 264 q 342 265 336 264 q 351 263 346 263 q 359 261 355 262 l 420 257 l 431 254 q 435 255 434 254 q 440 256 437 256 q 461 248 453 252 q 473 241 469 245 q 479 231 477 237 q 480 215 480 225 q 482 191 480 210 q 486 149 484 172 q 491 104 488 126 q 494 71 493 82 m 460 450 q 454 435 462 439 q 432 430 446 431 q 402 431 419 429 q 371 432 386 432 q 358 432 367 432 q 339 431 349 431 q 320 430 329 431 q 308 431 311 430 q 231 432 263 431 q 171 432 199 433 q 149 430 161 431 q 123 430 136 429 q 102 435 111 431 q 93 450 94 439 q 89 510 90 472 q 87 588 88 547 q 84 666 86 629 q 79 726 83 704 l 87 736 l 132 746 l 214 746 q 239 748 227 746 q 262 750 251 750 l 296 750 l 305 746 q 318 748 310 748 q 333 749 327 747 q 342 746 338 747 q 351 745 347 746 l 385 741 l 394 737 q 399 738 397 737 q 404 739 402 739 q 424 732 416 735 q 436 724 432 728 q 443 714 441 720 q 444 699 444 709 q 452 674 450 693 q 456 633 455 656 q 458 588 458 610 q 458 554 458 566 q 462 512 462 524 q 461 492 462 499 q 459 477 460 485 q 460 450 458 470 z "},"<":{"ha":785,"x_min":22,"x_max":736,"o":"m 722 171 q 709 138 722 159 q 675 94 696 118 q 627 45 654 70 q 574 0 601 20 q 524 -32 548 -20 q 484 -45 500 -45 q 467 -42 475 -45 q 456 -36 460 -39 q 426 -11 439 -23 q 406 11 414 1 q 389 32 395 22 l 340 79 q 251 154 288 121 q 191 211 214 186 q 154 250 167 235 q 135 271 140 264 q 84 341 105 311 q 49 394 62 371 q 29 434 35 417 q 22 465 22 451 q 31 495 22 479 q 55 534 39 511 q 94 587 71 557 q 149 659 118 617 q 169 677 155 664 q 208 712 184 690 q 264 769 231 735 q 340 850 298 802 l 375 897 q 395 918 383 907 q 421 939 406 927 q 456 965 436 951 q 467 971 460 968 q 484 974 475 974 q 526 961 500 974 q 579 929 551 949 q 635 884 608 909 q 686 835 663 859 q 722 790 708 811 q 736 758 736 770 q 726 745 736 756 q 699 715 715 733 q 661 674 682 697 q 615 628 639 652 q 569 579 592 604 q 527 535 546 555 q 493 500 507 515 q 473 478 479 485 l 473 475 q 484 453 473 469 q 512 415 495 437 q 552 367 530 393 q 598 314 574 340 q 644 262 621 288 q 683 218 666 237 q 711 185 701 198 q 722 171 722 173 z "},"=":{"ha":741,"x_min":79,"x_max":664,"o":"m 115 483 q 103 483 109 483 q 92 485 97 482 q 84 495 87 488 q 81 519 81 503 q 80 556 81 540 q 80 587 80 572 q 79 617 79 602 q 79 653 79 633 q 82 674 79 664 q 90 685 86 685 q 177 687 134 685 q 268 690 219 690 l 419 690 q 473 689 448 690 q 522 687 498 688 q 571 686 546 686 q 623 685 595 685 q 637 684 630 685 q 650 680 644 684 q 660 670 656 677 q 664 652 664 663 q 663 621 664 633 q 662 597 663 608 q 660 576 661 587 q 659 554 659 566 q 656 504 659 522 q 634 487 652 487 q 598 485 615 486 q 570 483 584 484 q 549 483 555 483 l 469 483 l 115 483 m 115 186 q 103 186 109 186 q 92 189 97 186 q 84 199 87 191 q 81 222 81 207 q 80 259 81 243 q 80 290 80 275 q 79 321 79 305 q 79 357 79 336 q 82 379 79 368 q 90 389 86 389 q 177 391 134 389 q 268 393 219 393 l 419 393 q 473 393 448 393 q 522 391 498 392 q 571 390 546 391 q 623 389 595 389 q 637 389 630 389 q 650 385 644 388 q 660 374 656 381 q 664 356 664 368 q 663 325 664 338 q 662 302 663 313 q 660 281 661 292 q 659 258 659 271 q 656 208 659 225 q 634 191 652 191 q 598 189 615 189 q 570 187 584 187 q 549 186 555 186 l 469 186 l 115 186 z "},">":{"ha":785,"x_min":50,"x_max":763,"o":"m 63 171 q 74 185 63 173 q 102 218 85 198 q 142 262 119 237 q 188 314 164 288 q 233 367 211 340 q 273 415 256 393 q 301 453 290 437 q 312 475 312 469 l 312 478 q 292 500 307 485 q 259 535 278 515 q 216 579 239 555 q 170 628 193 604 q 125 674 146 652 q 86 715 103 697 q 60 745 70 733 q 50 758 50 756 q 63 790 50 770 q 100 835 77 811 q 150 884 122 859 q 206 929 178 909 q 259 961 234 949 q 302 974 284 974 q 318 971 311 974 q 330 965 326 968 q 365 939 349 951 q 390 918 380 927 q 410 897 402 907 l 445 850 q 521 769 488 802 q 578 712 554 735 q 616 677 602 690 q 637 659 631 664 q 691 587 667 617 q 731 534 715 557 q 755 495 747 511 q 763 465 763 479 q 756 434 763 451 q 736 394 750 417 q 702 341 723 371 q 650 271 680 311 q 632 250 645 264 q 595 211 618 235 q 534 154 571 186 q 445 79 498 121 l 397 32 q 380 11 389 22 q 359 -11 371 1 q 330 -36 347 -23 q 318 -42 326 -39 q 302 -45 311 -45 q 261 -32 286 -45 q 211 0 237 -20 q 158 45 184 20 q 111 94 132 70 q 76 138 90 118 q 63 171 63 159 z "},"?":{"ha":770,"x_min":68,"x_max":739,"o":"m 408 334 q 370 335 390 334 q 333 336 349 336 q 316 334 322 336 l 178 334 q 150 343 160 334 q 134 369 140 352 q 127 409 129 385 q 125 463 125 433 q 126 504 125 483 q 126 540 126 524 q 135 586 126 568 q 160 616 144 604 q 197 638 176 629 q 241 658 218 648 q 289 682 264 669 q 336 717 313 696 q 348 726 341 720 q 361 738 355 732 q 371 752 367 745 q 375 765 375 759 q 370 786 375 778 q 350 799 365 794 q 309 806 336 804 q 241 808 283 808 q 161 804 202 808 q 83 790 119 800 q 79 789 81 789 q 70 796 73 789 q 68 813 68 803 q 70 841 68 825 q 73 869 72 856 q 77 955 75 924 q 85 1002 80 987 q 97 1022 90 1018 q 116 1027 104 1026 q 271 1031 193 1031 q 392 1026 333 1031 q 504 1011 452 1022 q 598 980 555 1000 q 673 931 642 961 q 721 859 704 901 q 739 761 739 817 q 723 697 739 726 q 681 645 707 669 q 623 601 656 621 q 558 561 591 581 q 494 523 525 542 q 442 484 464 505 l 442 464 q 444 423 443 443 q 445 388 444 406 q 445 359 445 370 q 442 340 445 347 q 429 334 439 334 l 408 334 m 496 -80 q 495 -70 495 -75 q 495 -62 495 -65 q 496 -51 495 -55 q 497 -42 496 -46 q 498 -35 497 -39 q 498 -24 498 -31 q 497 -5 498 -16 q 494 24 496 6 q 494 57 494 35 q 493 102 494 79 q 489 144 492 125 q 481 168 486 163 q 479 184 481 178 q 473 194 477 190 q 461 201 469 198 q 440 209 453 205 q 435 208 438 209 q 431 207 433 207 l 421 210 l 388 214 q 378 215 383 215 q 370 218 374 216 q 355 217 363 217 q 342 216 346 218 l 332 220 l 299 220 q 276 218 288 220 q 250 216 264 216 l 168 216 l 124 205 l 115 196 q 121 136 119 174 q 124 58 123 98 q 126 -21 125 17 q 130 -80 127 -58 q 142 -97 131 -93 q 168 -101 153 -101 q 207 -99 191 -101 q 241 -98 223 -98 q 291 -99 264 -98 q 353 -100 318 -100 q 367 -100 359 -100 q 383 -99 375 -100 q 398 -99 391 -99 q 407 -98 404 -98 q 434 -99 420 -98 q 460 -100 448 -100 q 486 -98 476 -100 q 496 -84 496 -95 q 496 -82 496 -83 q 496 -80 496 -81 z "},"@":{"ha":823,"x_min":66,"x_max":743,"o":"m 743 461 q 742 380 743 410 q 740 331 741 351 q 738 297 739 312 q 737 258 737 281 q 736 236 737 247 q 733 215 736 224 q 725 200 730 206 q 710 194 720 194 q 650 195 675 194 q 605 196 626 195 q 565 197 585 196 q 518 197 545 197 q 493 199 504 197 q 475 205 483 200 q 464 221 468 210 q 460 250 460 231 q 461 258 460 252 q 461 273 461 265 q 461 286 462 281 q 460 290 461 292 q 418 233 439 254 q 377 202 397 212 q 338 189 357 191 q 303 186 319 186 q 206 201 250 186 q 131 251 162 216 q 83 341 100 286 q 66 479 66 397 q 79 564 66 528 q 113 627 92 601 q 163 671 135 654 q 223 697 192 688 q 286 711 254 707 q 345 715 317 715 q 435 714 393 715 q 511 712 477 712 q 598 713 548 712 q 716 714 648 714 q 734 705 726 714 q 743 687 743 696 l 743 461 m 470 440 q 464 528 469 490 q 458 561 462 545 q 450 589 455 576 q 438 609 445 602 q 422 617 431 617 q 388 609 402 617 q 366 588 374 601 q 352 561 357 576 q 345 534 347 547 q 342 512 342 521 q 342 501 342 503 q 342 474 342 492 q 343 435 342 456 q 348 391 345 414 q 356 351 351 369 q 369 321 361 333 q 388 310 376 310 q 415 315 403 310 q 435 330 427 321 q 450 351 444 339 q 460 375 456 363 q 470 440 469 404 z "},"A":{"ha":1275,"x_min":76,"x_max":1199,"o":"m 485 925 q 496 925 486 925 q 522 926 507 926 q 555 928 537 927 q 587 929 572 928 q 612 931 602 930 q 621 932 621 931 q 644 932 625 932 q 691 932 664 932 q 749 932 718 932 q 807 932 780 932 q 852 929 833 931 q 873 925 871 928 q 911 928 893 925 q 949 932 929 932 q 965 928 957 932 q 982 924 973 924 q 988 924 986 924 q 994 925 991 925 q 1003 918 998 923 q 1008 909 1008 913 l 1105 471 q 1148 298 1127 387 q 1186 126 1168 210 q 1190 108 1187 120 q 1195 82 1193 96 q 1199 53 1198 68 q 1199 26 1200 39 q 1191 6 1197 14 q 1175 -1 1185 -1 q 1156 -1 1170 -1 q 1125 -1 1143 -1 q 1089 0 1107 -1 q 1054 0 1070 0 q 1027 1 1038 1 q 1015 1 1016 1 l 928 1 q 926 5 928 3 q 913 7 924 7 q 911 4 912 7 q 908 1 910 1 l 904 1 q 892 2 903 1 q 865 4 881 3 q 831 6 849 5 q 800 7 813 7 q 780 67 789 24 q 758 170 770 111 q 722 166 742 167 q 682 165 703 165 q 639 165 661 165 q 598 165 617 165 q 577 66 587 109 q 558 7 568 24 q 546 4 553 7 q 537 1 538 1 l 533 1 q 522 4 526 1 q 514 7 517 7 q 451 5 478 6 q 428 4 439 4 q 408 3 417 3 q 394 2 399 2 q 389 1 389 1 l 260 1 q 248 1 258 1 q 221 0 237 1 q 186 0 205 0 q 150 -1 167 -1 q 119 -1 132 -1 q 100 -1 105 -1 q 83 6 89 -1 q 76 26 78 14 q 76 53 75 39 q 80 82 77 68 q 85 108 83 96 q 89 126 87 120 q 127 298 106 210 q 170 471 148 387 l 267 909 q 271 918 267 913 q 281 925 276 923 q 287 924 284 925 q 293 924 289 924 q 330 928 311 924 q 368 932 349 932 q 425 928 397 932 q 485 925 452 925 m 675 689 q 672 670 675 688 q 664 624 669 652 q 652 558 659 595 q 639 484 646 522 q 626 409 633 446 q 615 343 620 372 l 686 343 q 691 346 688 345 q 696 347 694 347 l 699 347 q 723 344 712 347 q 743 339 733 341 q 732 405 738 368 q 719 480 726 441 q 706 556 712 519 q 694 623 699 593 q 686 670 689 652 q 683 689 683 688 q 682 694 682 692 q 681 701 681 697 q 679 710 680 705 q 677 701 677 705 q 675 694 676 697 q 675 689 675 692 z "},"B":{"ha":1139,"x_min":79,"x_max":1083,"o":"m 80 729 q 79 775 80 753 q 79 819 79 798 q 80 857 79 839 q 85 890 81 874 q 89 911 87 900 q 95 931 90 922 q 110 947 100 941 q 140 953 120 953 q 198 955 165 953 q 268 959 232 957 q 337 963 303 961 q 399 965 372 965 q 533 958 465 965 q 667 943 602 951 q 746 933 703 939 q 833 917 789 927 q 916 891 876 907 q 987 850 956 875 q 1037 789 1018 825 q 1055 703 1055 753 q 1032 600 1055 643 q 960 526 1008 557 q 936 515 948 520 q 912 506 924 511 q 892 496 901 501 q 879 484 884 490 q 881 481 880 482 q 883 478 882 479 q 975 431 937 456 q 1037 381 1013 407 q 1072 330 1061 356 q 1083 278 1083 304 q 1058 198 1083 237 q 990 124 1034 159 q 889 61 947 90 q 764 14 831 33 q 662 -11 712 -1 q 567 -25 612 -20 q 481 -32 521 -30 q 408 -33 441 -33 q 255 -29 317 -33 q 156 -10 193 -24 q 103 30 119 4 q 87 100 87 56 q 88 134 87 113 q 90 177 89 155 q 91 219 90 199 q 92 249 92 239 q 86 489 92 368 q 80 729 80 609 m 554 354 q 542 348 545 354 q 538 335 538 342 l 538 224 q 543 215 538 216 q 550 214 547 214 q 553 214 551 214 q 554 215 554 214 q 774 318 665 269 q 781 323 777 321 q 787 328 785 326 q 729 342 756 337 q 674 350 701 348 q 617 353 646 353 q 554 354 589 354 m 562 629 q 563 618 562 622 q 573 614 564 614 q 589 619 576 614 q 620 632 602 624 q 657 649 637 640 q 693 666 676 658 q 721 679 709 673 q 733 684 732 684 q 744 687 738 685 q 750 695 750 688 q 734 715 750 708 q 697 727 718 723 q 654 732 675 731 q 622 733 633 733 q 587 725 599 733 q 569 702 574 716 q 563 668 564 687 q 562 629 562 650 z "},"C":{"ha":939,"x_min":57,"x_max":876,"o":"m 528 454 q 528 422 528 437 q 530 392 529 406 q 545 315 534 347 q 571 264 555 283 q 605 236 586 245 q 647 228 625 228 q 691 234 668 228 q 739 252 714 241 q 788 279 763 264 q 838 311 813 294 l 850 83 q 787 35 823 57 q 712 -2 751 14 q 633 -25 673 -17 q 559 -33 594 -33 q 483 -32 522 -33 q 407 -25 445 -30 q 333 -10 370 -20 q 264 16 297 0 q 237 29 250 22 q 211 46 224 37 q 172 85 190 64 q 138 134 153 107 q 93 203 111 163 q 66 306 76 249 q 57 435 57 363 q 74 586 57 517 q 121 711 90 654 q 274 891 178 827 q 490 964 370 956 q 507 965 498 965 q 525 965 515 965 q 643 953 583 965 q 759 919 701 941 q 876 861 817 896 l 851 681 q 769 701 811 690 q 686 711 727 711 q 621 699 652 711 q 569 654 591 687 q 538 576 549 625 q 528 454 528 528 z "},"D":{"ha":1191,"x_min":81,"x_max":1127,"o":"m 520 -1 q 430 -1 475 -1 q 337 0 385 -1 q 237 1 289 1 q 125 1 185 1 q 105 9 113 1 q 94 30 98 18 q 89 58 90 43 q 88 86 88 73 q 87 175 88 119 q 84 301 86 232 q 82 446 83 370 q 81 590 81 521 l 81 896 q 93 920 81 909 q 117 932 104 932 q 277 930 210 932 q 393 929 345 929 q 555 931 469 929 q 743 933 641 933 q 824 926 781 933 q 910 901 867 919 q 992 853 953 884 q 1061 777 1031 823 q 1109 667 1091 731 q 1127 517 1127 602 q 1096 276 1127 374 q 993 116 1065 177 q 806 26 922 54 q 520 -1 690 -1 m 531 183 q 557 183 545 182 q 577 186 567 184 q 593 193 588 188 q 610 223 602 202 q 626 274 618 245 q 638 337 633 302 q 648 409 644 372 q 655 480 652 445 q 657 547 657 516 q 657 573 657 552 q 655 622 656 593 q 649 681 653 650 q 638 740 646 713 q 620 784 631 766 q 593 802 609 802 q 573 799 582 802 q 559 794 565 797 q 547 787 551 791 q 546 713 547 755 q 544 622 545 670 q 542 522 543 573 q 538 422 540 471 l 531 183 z "},"E":{"ha":962,"x_min":79,"x_max":895,"o":"m 79 546 q 80 721 79 634 q 90 903 81 808 q 100 918 90 912 q 124 926 109 923 q 157 930 139 929 q 193 930 176 930 q 357 933 279 930 q 510 937 434 935 q 667 937 587 938 q 842 929 748 936 q 862 914 854 929 q 874 877 869 899 q 883 827 879 854 q 895 775 888 800 q 893 750 895 758 q 888 739 892 742 q 878 736 884 736 q 863 737 871 737 q 792 734 828 737 q 720 728 756 732 q 646 721 683 725 q 574 715 610 718 q 563 699 568 715 q 554 659 557 682 q 549 614 551 636 q 547 581 547 591 q 552 556 547 562 q 569 551 557 551 q 693 552 632 551 q 815 546 754 552 q 833 544 826 545 q 846 541 841 543 q 856 532 852 538 q 863 514 859 526 l 868 390 l 868 386 q 854 367 868 374 q 818 357 841 360 q 766 352 795 353 q 707 351 737 351 q 614 353 647 351 q 565 350 581 354 q 546 334 549 347 q 543 296 543 322 q 540 244 543 270 q 538 191 537 219 q 673 195 606 191 q 806 199 740 199 q 816 189 810 199 q 827 162 821 178 q 838 126 833 146 q 848 89 844 107 q 855 57 852 71 q 858 36 858 42 q 851 15 858 24 q 830 7 845 7 q 733 4 780 7 q 633 1 686 1 q 414 1 524 1 q 194 0 304 0 q 173 2 189 0 q 140 6 157 3 q 111 12 123 9 q 98 20 98 16 q 97 60 98 35 q 95 116 96 85 q 91 179 93 146 q 87 242 89 212 q 84 299 85 273 q 83 342 83 325 q 83 383 83 364 q 81 424 82 401 q 79 474 80 446 q 79 546 79 503 z "},"F":{"ha":919,"x_min":79,"x_max":870,"o":"m 79 909 q 82 920 79 917 q 90 924 85 923 q 98 924 94 925 q 102 924 102 924 q 231 927 151 924 q 406 930 310 930 q 420 930 408 930 q 447 930 433 930 q 473 929 461 930 q 487 929 486 929 q 552 928 519 929 q 620 927 585 928 q 695 926 656 926 q 781 925 735 925 q 798 923 791 925 q 811 920 805 921 q 823 919 817 919 q 835 925 829 920 q 861 909 853 925 q 870 866 868 892 q 870 804 871 839 q 868 733 868 770 q 860 720 868 724 q 841 715 852 716 q 818 714 830 713 q 798 714 806 714 l 736 714 q 712 713 721 714 q 695 711 703 712 q 677 709 687 710 q 651 708 668 708 q 631 708 641 708 q 618 710 621 709 q 612 707 614 709 q 607 704 609 705 q 605 691 606 701 q 601 663 603 681 q 598 619 600 646 q 597 555 597 593 q 596 551 597 556 q 601 541 595 547 l 629 541 l 768 541 q 791 536 783 541 q 804 520 800 532 q 809 487 808 508 q 810 433 810 466 q 810 368 810 393 q 808 330 810 344 q 802 312 806 317 q 789 308 798 308 q 768 307 782 308 q 737 305 753 306 q 704 303 720 304 q 676 302 688 302 q 661 302 666 302 q 650 300 655 301 q 640 298 646 299 q 623 296 634 297 q 604 295 612 294 q 587 295 595 296 q 573 290 580 294 q 559 277 566 286 q 559 183 559 227 q 557 104 559 139 q 552 44 556 69 q 543 7 549 19 q 508 6 528 7 q 471 4 488 5 q 440 2 453 3 q 427 1 428 1 q 417 2 421 1 q 411 4 414 3 q 407 6 409 5 q 401 7 404 7 q 396 5 400 7 q 390 1 391 3 l 275 1 q 255 -3 273 0 q 214 -9 237 -6 q 171 -14 191 -12 q 143 -16 150 -16 q 117 1 125 -16 q 105 39 109 18 q 102 82 102 61 q 101 113 102 103 q 97 201 98 156 q 93 292 95 246 q 88 382 91 337 q 79 471 85 427 l 79 909 z "},"G":{"ha":1149,"x_min":59,"x_max":1085,"o":"m 1080 197 q 1079 134 1080 165 q 1078 77 1079 102 q 1075 32 1077 51 q 1067 4 1072 13 q 1042 3 1056 4 q 1014 2 1027 3 q 983 0 998 1 l 979 0 q 965 2 968 0 q 963 4 963 3 l 959 3 q 955 0 955 1 l 817 0 q 809 0 816 0 q 795 -1 803 -1 q 779 -1 787 -1 q 768 -1 771 -1 q 759 7 763 -1 q 751 31 754 16 q 746 67 748 46 q 742 114 744 88 q 711 51 734 78 q 654 5 688 24 q 575 -22 619 -13 q 482 -32 531 -32 q 386 -20 435 -32 q 289 16 336 -9 q 200 79 242 41 q 127 173 159 118 q 77 300 96 228 q 59 463 59 372 q 102 677 59 583 q 221 834 145 770 q 400 932 297 899 q 624 965 504 965 q 804 942 711 965 q 989 875 897 920 l 937 639 q 883 653 911 646 q 827 668 855 661 q 771 679 799 675 q 716 684 743 684 q 643 674 677 684 q 584 638 609 664 q 544 568 559 612 q 530 454 530 524 q 538 353 530 394 q 563 288 547 313 q 601 252 579 263 q 649 241 623 241 q 689 247 668 241 q 732 261 711 252 q 729 358 731 311 q 728 452 728 406 q 728 490 728 477 q 732 507 728 503 q 745 512 736 512 q 771 511 754 511 l 918 511 q 1003 512 970 511 q 1053 510 1035 513 q 1077 497 1071 507 q 1084 468 1084 488 q 1084 457 1084 462 q 1084 444 1084 452 q 1085 421 1084 436 q 1085 380 1085 407 l 1085 239 q 1084 231 1085 237 q 1082 218 1083 225 q 1080 204 1081 210 q 1080 197 1080 198 z "},"H":{"ha":1292,"x_min":78,"x_max":1216,"o":"m 719 647 q 721 742 720 700 q 722 778 722 760 q 723 810 722 795 q 723 834 723 825 q 724 846 724 844 q 724 886 724 871 q 731 909 725 901 q 750 921 736 918 q 789 924 763 924 q 826 924 798 924 q 892 925 854 924 q 972 927 930 926 q 1053 929 1015 928 q 1119 930 1091 930 q 1156 930 1147 930 q 1183 929 1171 930 q 1202 922 1194 928 q 1213 906 1209 916 q 1216 877 1216 895 q 1215 800 1216 835 q 1212 731 1213 764 q 1208 662 1210 697 q 1207 586 1207 627 q 1209 572 1207 578 q 1211 558 1211 565 l 1178 32 q 1175 22 1178 28 q 1167 12 1172 17 q 1157 3 1163 7 q 1146 0 1152 0 l 764 0 q 755 6 759 0 q 749 23 751 12 q 744 46 746 33 q 742 74 743 60 l 727 329 q 716 329 726 329 q 689 330 705 330 q 655 332 673 331 q 620 334 636 333 q 592 335 604 334 q 578 335 580 335 q 570 326 571 335 q 568 311 568 317 q 568 180 568 233 q 566 92 568 127 q 562 38 565 57 q 553 11 559 19 q 539 0 547 2 q 517 -1 530 -1 q 367 -8 440 -7 q 302 -8 336 -9 q 236 -6 269 -8 q 174 0 204 -4 q 120 9 144 3 q 114 16 117 10 q 109 27 111 21 q 105 40 106 34 q 104 47 104 45 l 78 553 l 78 566 l 78 579 q 79 618 78 591 q 80 682 79 646 q 82 755 81 717 q 84 824 83 793 q 87 877 85 856 q 90 899 88 897 q 98 907 92 901 q 112 918 104 912 q 131 927 121 924 q 153 930 142 931 l 233 930 q 255 930 234 930 q 306 929 276 930 q 371 928 336 929 q 436 927 406 928 q 487 927 467 927 q 509 926 507 926 q 537 924 525 926 q 557 916 549 922 q 569 899 565 910 q 573 868 573 887 q 572 854 573 864 q 570 832 571 844 q 568 809 569 820 q 567 793 567 798 q 569 781 567 787 q 571 766 571 774 q 570 713 571 739 q 568 657 568 688 q 603 655 584 657 q 643 652 623 654 q 682 649 663 650 q 719 647 702 647 z "},"I":{"ha":667,"x_min":81,"x_max":589,"o":"m 581 277 q 579 188 580 231 q 577 108 578 144 q 573 45 576 72 q 564 7 570 19 q 529 6 549 7 q 492 4 509 5 q 462 2 474 3 q 449 1 450 1 l 445 1 q 432 4 437 1 q 422 7 428 7 q 417 5 420 6 q 412 1 412 2 l 283 1 q 259 0 281 1 q 209 0 237 0 q 156 -1 181 -1 q 123 -1 131 -1 q 104 6 111 -1 q 92 26 96 14 q 85 53 87 39 q 82 82 83 68 q 81 108 81 96 q 81 126 81 120 q 83 298 83 210 q 87 471 83 387 l 87 909 q 94 922 87 921 q 111 924 102 924 q 249 924 180 924 q 388 925 317 925 q 401 927 394 925 q 420 929 408 928 q 452 930 432 930 q 502 925 471 929 q 513 921 508 920 q 524 925 518 923 q 556 923 543 925 q 576 910 568 920 q 586 879 583 899 q 589 821 589 858 l 589 550 q 589 529 589 549 q 587 479 588 509 q 585 414 587 449 q 583 350 584 380 q 582 299 583 319 q 581 277 581 278 z "},"J":{"ha":911,"x_min":31,"x_max":843,"o":"m 747 90 q 656 27 705 51 q 566 -10 608 3 q 469 -33 517 -26 q 278 -37 374 -46 q 93 9 182 -27 l 32 37 q 32 52 31 42 q 34 76 33 62 q 37 104 35 89 q 40 134 39 119 q 41 155 40 141 q 44 182 43 169 q 47 203 45 195 q 50 210 49 212 q 112 189 85 197 q 163 176 138 181 q 215 170 189 172 q 273 168 241 168 q 300 180 290 168 q 317 208 311 192 q 328 240 324 224 q 334 267 332 257 q 337 327 336 290 q 339 421 339 364 q 340 499 340 463 q 341 564 340 536 q 342 624 342 597 l 340 909 q 348 922 340 921 q 363 924 355 924 q 502 924 433 924 q 642 925 571 925 l 778 925 q 809 923 797 925 q 829 910 822 920 q 840 879 837 899 q 843 821 843 858 l 843 550 q 843 539 843 549 q 842 513 842 528 q 840 480 841 498 q 839 447 840 463 q 838 420 838 431 q 838 408 838 410 q 836 325 838 368 q 825 239 833 281 q 798 158 816 197 q 747 90 780 120 z "},"K":{"ha":1187,"x_min":77,"x_max":1137,"o":"m 558 933 q 576 927 570 933 q 584 911 582 921 q 585 891 585 902 q 585 871 585 880 q 582 768 585 818 q 578 681 578 718 q 596 683 590 681 q 608 688 603 684 q 617 697 612 692 q 631 710 623 703 q 656 733 635 713 q 706 781 677 753 q 770 841 736 808 q 836 900 804 873 q 890 945 867 927 q 924 965 914 964 q 932 960 926 965 q 943 948 937 955 q 953 936 948 942 q 961 928 958 930 q 970 918 962 925 q 987 902 978 911 q 1004 885 996 893 q 1015 873 1013 878 q 1036 844 1024 859 q 1059 814 1047 829 q 1082 783 1071 799 q 1100 751 1093 768 l 1100 749 q 1088 719 1100 735 q 1062 687 1077 703 q 1031 657 1046 671 q 1008 633 1016 643 q 996 624 1006 632 q 971 604 985 616 q 942 578 958 592 q 913 553 926 565 q 889 533 899 541 q 876 524 879 525 q 864 516 870 518 q 854 511 859 513 q 848 505 850 509 q 846 493 846 501 q 852 470 846 480 q 867 451 858 460 q 887 434 876 442 q 905 418 897 426 q 937 389 916 408 q 983 347 958 370 q 1036 299 1009 324 q 1086 251 1063 274 q 1123 208 1109 227 q 1137 178 1137 189 q 1136 164 1137 170 q 1126 151 1135 159 q 1076 117 1103 132 q 1025 82 1048 102 q 986 48 1007 67 q 944 18 966 30 q 927 9 933 13 q 916 3 921 6 q 904 -4 911 0 q 885 -16 897 -9 q 845 -30 863 -30 q 816 -23 828 -29 q 797 -10 804 -18 q 788 0 789 -2 l 642 168 q 630 183 639 173 q 611 205 621 194 q 591 225 600 216 q 578 233 581 233 q 569 230 572 233 q 566 222 566 227 q 566 202 566 216 q 565 172 566 189 q 564 137 565 155 q 563 101 564 118 q 563 71 563 84 q 562 52 562 58 q 563 32 562 40 q 561 17 564 23 q 552 9 559 12 q 530 8 545 7 q 390 5 458 4 q 250 7 322 7 q 227 7 241 7 q 198 7 212 7 q 174 8 184 7 q 163 8 164 8 l 101 14 l 97 25 q 96 40 96 25 q 95 80 96 56 q 93 135 94 104 q 91 197 92 165 q 90 257 90 228 q 89 306 89 286 q 81 410 85 357 q 77 514 77 463 q 78 528 77 517 q 80 553 79 540 q 81 578 81 566 q 82 593 82 589 q 81 604 82 595 q 80 621 81 612 q 78 637 79 629 q 77 647 77 645 q 78 663 77 650 q 80 690 79 675 q 81 716 81 704 q 82 732 82 728 q 82 752 82 739 q 81 783 81 766 q 80 818 81 800 q 79 851 79 836 q 78 878 78 867 q 77 892 77 889 q 85 919 75 910 q 110 931 95 928 q 143 935 125 935 q 174 935 161 935 q 328 934 262 935 q 440 934 393 934 q 515 933 486 934 q 558 933 544 933 z "},"L":{"ha":869,"x_min":82,"x_max":831,"o":"m 83 345 q 82 478 83 408 q 82 613 82 548 q 84 735 83 679 q 90 828 85 791 q 90 860 90 842 q 93 894 90 878 q 103 922 96 910 q 127 933 111 933 q 229 932 186 933 q 306 931 271 932 q 375 930 341 930 q 450 929 408 929 q 492 929 473 929 q 523 922 511 928 q 543 902 536 916 q 549 859 549 887 q 548 847 549 857 q 546 827 547 838 q 543 806 544 816 q 542 794 542 797 q 543 779 542 790 q 546 756 544 768 q 548 735 547 745 q 549 725 549 726 q 550 624 550 672 q 551 531 551 576 q 551 442 551 486 q 551 355 551 399 q 551 339 551 345 q 553 330 551 333 q 562 325 556 326 q 580 323 568 323 q 682 324 628 323 q 796 325 736 325 q 821 316 811 325 q 831 297 831 307 l 831 31 q 829 22 831 27 q 819 12 828 16 q 790 3 810 7 q 734 0 770 0 l 531 0 q 422 0 473 0 q 324 1 372 1 q 226 2 276 2 q 119 3 176 3 q 106 6 113 3 q 95 15 100 9 q 86 26 90 20 q 83 39 83 33 l 83 345 z "},"M":{"ha":1409,"x_min":80,"x_max":1329,"o":"m 721 603 q 730 624 722 606 q 751 670 739 643 q 778 729 764 697 q 806 789 793 761 q 829 840 819 818 q 842 868 839 861 q 853 890 846 878 q 867 911 861 901 q 880 927 874 921 q 890 933 886 933 q 998 934 914 933 q 1233 935 1082 935 q 1253 934 1246 935 q 1268 934 1261 934 q 1286 933 1276 934 q 1316 933 1297 933 q 1322 912 1320 933 q 1325 857 1324 891 q 1328 778 1326 822 q 1329 686 1329 733 q 1329 595 1329 640 q 1329 514 1329 550 q 1325 410 1329 463 q 1318 306 1322 357 q 1318 257 1318 286 q 1319 197 1319 228 q 1320 135 1320 165 q 1321 80 1321 104 q 1322 40 1322 56 q 1323 25 1322 25 l 1319 14 l 1257 -1 q 1246 -2 1256 -1 q 1222 -2 1236 -2 q 1194 -2 1208 -2 q 1171 -3 1179 -3 q 1117 -2 1143 -3 q 1065 1 1090 -1 q 1014 4 1040 2 q 960 8 987 6 q 954 7 958 8 q 944 7 949 7 q 936 21 939 7 q 930 60 932 36 q 927 117 928 85 q 925 186 926 150 q 924 261 924 223 q 924 334 924 298 q 921 341 924 338 q 912 345 918 345 q 903 331 909 345 q 889 298 897 317 q 874 258 882 279 q 863 225 867 238 q 856 210 861 222 q 842 182 850 198 q 823 147 833 165 q 800 114 812 129 q 772 88 787 98 q 743 78 758 78 q 722 78 735 78 q 694 78 709 78 q 664 79 679 79 q 636 81 648 79 q 572 191 597 142 q 532 274 547 240 q 510 327 517 309 q 500 345 503 345 q 492 341 494 345 q 489 334 489 338 q 489 268 489 304 q 489 196 489 232 q 487 125 488 159 q 484 65 486 91 q 478 23 481 39 q 468 7 474 7 q 459 7 464 7 q 452 8 454 8 q 347 1 397 4 q 241 -3 297 -3 q 218 -2 233 -3 q 190 -2 203 -2 q 166 -2 176 -2 q 155 -1 156 -1 l 93 14 l 89 25 q 87 40 88 25 q 86 80 87 56 q 84 135 85 104 q 83 197 83 165 q 81 257 82 228 q 80 306 81 286 q 84 447 81 378 q 87 593 87 516 q 87 604 87 595 q 85 621 86 612 q 84 637 85 629 q 83 647 83 645 q 84 685 83 668 q 87 719 85 701 q 89 757 88 736 q 90 806 90 777 q 90 820 90 810 q 89 843 90 831 q 88 866 88 855 q 87 880 87 876 q 85 885 86 882 q 83 890 83 888 q 95 914 83 905 q 122 927 106 923 q 154 933 138 932 q 179 935 170 935 q 414 934 330 935 q 522 933 498 933 q 532 927 526 933 q 545 911 538 921 q 558 890 551 901 q 570 868 565 878 q 582 839 573 861 q 601 788 590 817 q 625 728 612 760 q 649 669 638 696 q 668 623 660 642 q 677 603 675 604 q 699 581 687 581 q 712 587 706 581 q 721 603 718 594 z "},"N":{"ha":1212,"x_min":87,"x_max":1133,"o":"m 1129 311 q 1129 180 1129 233 q 1127 92 1128 127 q 1123 38 1126 57 q 1114 11 1120 19 q 1099 0 1108 2 q 1078 -1 1090 -1 q 1054 -1 1078 -1 q 992 -1 1029 -1 q 909 0 954 -1 q 825 0 865 0 q 804 -1 817 0 q 778 0 792 -2 q 749 7 764 1 q 722 25 734 12 l 581 224 q 569 243 578 229 q 549 275 559 258 q 530 303 539 291 q 516 316 520 316 q 508 313 511 316 q 505 305 505 309 q 505 275 505 296 q 504 229 505 255 q 503 175 504 203 q 502 122 503 147 q 502 78 502 98 q 501 52 501 59 q 502 32 501 40 q 500 17 503 23 q 491 9 498 12 q 469 8 484 7 q 363 1 414 4 q 258 -3 313 -3 q 235 -2 249 -3 q 207 -2 220 -2 q 183 -2 193 -2 q 172 -1 172 -1 l 109 14 l 105 25 q 104 40 104 25 q 102 80 103 56 q 100 135 101 104 q 99 197 100 165 q 98 257 98 228 q 97 306 97 286 q 88 449 89 377 q 88 592 87 521 q 91 736 89 664 q 90 880 92 808 q 92 909 87 898 q 107 925 97 920 q 131 933 118 931 q 157 935 144 935 q 287 938 229 935 q 385 944 344 941 q 451 945 427 946 q 483 933 475 943 q 500 910 487 928 q 531 865 513 892 q 572 804 549 838 q 618 735 594 770 q 665 664 642 699 q 709 597 689 628 q 710 653 710 622 q 711 718 711 685 q 713 783 712 751 q 714 841 713 815 q 716 882 715 866 q 719 899 718 897 q 728 907 722 901 q 742 918 734 912 q 761 927 751 924 q 783 930 772 931 l 862 930 q 880 930 864 930 q 918 929 895 930 q 966 928 940 929 q 1015 927 992 928 q 1052 927 1037 927 q 1069 926 1067 926 q 1097 924 1085 926 q 1117 916 1109 922 q 1129 899 1125 910 q 1133 868 1133 887 q 1132 854 1133 864 q 1130 832 1131 844 q 1128 809 1129 820 q 1127 793 1127 798 q 1129 781 1127 787 q 1132 766 1132 774 q 1132 723 1132 758 q 1131 641 1131 688 q 1131 541 1131 594 q 1130 439 1130 487 q 1129 356 1130 391 q 1129 311 1129 321 z "},"O":{"ha":1193,"x_min":64,"x_max":1131,"o":"m 608 -33 q 474 -28 541 -33 q 347 -8 408 -24 q 235 39 287 8 q 145 121 183 69 q 85 250 107 174 q 64 435 64 327 q 95 677 64 576 q 194 841 127 777 q 368 935 262 905 q 622 965 473 965 q 729 957 672 965 q 843 929 787 949 q 952 874 900 909 q 1043 788 1004 840 q 1107 663 1083 735 q 1131 493 1131 590 q 1114 300 1131 382 q 1064 159 1097 218 q 986 63 1032 100 q 882 4 940 26 q 755 -25 824 -17 q 608 -33 686 -33 m 534 454 q 535 399 534 433 q 537 325 535 364 q 542 245 538 286 q 553 173 546 205 q 570 120 559 140 q 597 100 581 100 q 624 123 613 100 q 642 182 635 146 q 653 262 649 218 q 659 349 657 307 q 661 427 661 391 q 661 482 661 463 q 661 517 661 488 q 659 584 661 545 q 653 667 657 623 q 642 748 649 711 q 624 809 635 785 q 597 833 613 833 q 570 817 581 833 q 553 773 559 801 q 542 707 546 745 q 537 628 538 670 q 535 541 535 586 q 534 454 534 496 z "},"P":{"ha":1166,"x_min":81,"x_max":1126,"o":"m 81 896 q 92 920 81 909 q 117 932 104 932 q 277 930 210 932 q 393 929 344 929 q 554 931 469 929 q 743 933 640 933 q 824 928 781 933 q 909 909 867 923 q 991 873 952 896 q 1061 814 1031 850 q 1108 730 1090 779 q 1126 614 1126 680 q 1099 429 1126 505 q 1020 308 1071 354 q 897 241 969 262 q 737 221 825 221 l 547 221 q 548 182 548 197 q 548 153 549 167 q 548 121 548 138 q 547 77 547 104 q 542 37 547 52 q 527 16 537 23 q 503 7 517 9 q 471 5 489 5 q 386 5 422 5 q 313 3 350 4 q 232 2 276 3 q 125 1 189 1 q 104 9 112 1 q 93 30 97 18 q 89 58 90 43 q 87 86 87 73 q 86 175 87 119 q 84 301 85 232 q 82 446 83 370 q 81 590 81 521 l 81 896 m 558 392 q 566 389 558 391 q 584 388 571 388 q 621 387 597 387 q 648 403 637 387 q 666 443 659 418 q 676 496 673 467 q 682 555 680 526 q 684 607 684 583 q 684 644 684 631 q 684 659 684 646 q 682 689 684 671 q 676 726 680 707 q 666 763 673 746 q 647 790 659 779 q 621 802 636 802 q 600 784 609 802 q 584 738 591 766 q 573 672 578 709 q 566 597 568 635 q 558 392 558 507 z "},"Q":{"ha":1165,"x_min":43,"x_max":1109,"o":"m 1109 493 q 1092 297 1109 380 q 1041 155 1074 214 q 961 59 1008 96 q 854 1 913 22 q 886 -42 870 -20 q 916 -86 903 -65 q 938 -124 929 -107 q 946 -151 946 -142 q 931 -178 945 -165 q 899 -202 918 -191 q 860 -224 880 -214 q 827 -244 840 -235 q 802 -252 815 -248 q 775 -260 789 -256 q 757 -267 772 -262 q 723 -277 741 -272 q 689 -286 705 -282 q 671 -289 673 -290 q 665 -295 669 -295 q 660 -296 660 -295 q 656 -295 659 -296 q 647 -291 653 -294 q 633 -281 642 -288 q 612 -262 625 -275 q 607 -255 609 -255 q 604 -254 606 -254 q 601 -252 602 -253 q 595 -245 599 -251 l 486 -65 q 478 -51 484 -61 q 465 -29 473 -41 q 356 -15 409 -25 q 256 17 302 -4 q 170 72 209 38 q 102 155 130 105 q 58 274 74 205 q 43 435 43 343 q 74 677 43 576 q 173 841 106 777 q 347 935 241 905 q 602 965 452 965 q 709 957 652 965 q 823 929 766 949 q 931 874 879 909 q 1022 788 983 840 q 1086 663 1062 735 q 1109 493 1109 590 m 514 454 q 514 399 514 433 q 516 325 515 364 q 522 245 518 286 q 532 173 526 205 q 550 120 539 140 q 576 100 561 100 q 603 123 592 100 q 622 182 614 146 q 632 262 629 218 q 638 349 636 307 q 640 427 640 391 q 640 482 640 463 q 640 517 640 488 q 638 584 640 545 q 632 667 636 623 q 622 748 629 711 q 603 809 614 785 q 576 833 592 833 q 550 817 561 833 q 532 773 539 801 q 522 707 526 745 q 516 628 518 670 q 514 541 515 586 q 514 454 514 496 z "},"R":{"ha":1212,"x_min":75,"x_max":1171,"o":"m 780 -18 q 776 -9 778 -11 q 772 -8 774 -8 q 769 -7 771 -8 q 764 -1 768 -5 l 646 174 q 636 190 644 178 q 621 212 629 201 q 605 233 612 224 q 593 241 597 241 q 585 224 587 241 q 582 181 583 207 q 580 125 581 155 q 578 68 580 94 q 573 25 576 43 q 562 8 569 8 q 551 9 556 8 q 545 9 547 9 q 400 1 471 5 q 255 -3 329 -3 q 231 -2 246 -3 q 202 -2 216 -2 q 177 -2 188 -2 q 165 -1 166 -1 l 116 16 l 111 26 q 109 42 111 26 q 105 83 107 58 q 101 140 103 109 q 96 204 98 172 q 92 266 94 236 q 88 317 90 296 q 81 424 85 370 q 77 532 77 479 q 78 547 77 535 q 80 573 79 559 q 82 598 81 587 q 83 614 83 610 q 79 700 83 659 q 75 787 75 741 q 77 850 75 820 q 84 902 79 880 q 100 939 90 925 q 127 953 111 953 q 283 952 202 953 q 446 949 364 951 q 608 944 528 947 q 763 940 689 942 q 923 913 857 937 q 1033 852 990 890 q 1096 765 1076 814 q 1116 664 1116 717 q 1109 598 1116 628 q 1091 545 1102 569 q 1065 501 1080 520 q 1036 467 1051 481 q 958 411 1002 432 q 979 392 968 401 q 999 375 989 384 q 1017 361 1008 366 q 1038 335 1024 352 q 1069 297 1052 318 q 1104 253 1086 276 q 1137 209 1122 230 q 1162 170 1152 188 q 1171 143 1171 153 q 1158 116 1171 129 q 1126 90 1145 102 q 1088 66 1107 78 q 1056 45 1068 55 q 1004 17 1031 32 q 945 -8 977 1 q 934 -12 943 -9 q 913 -20 925 -16 q 889 -28 902 -24 q 865 -35 876 -32 q 847 -40 854 -39 q 841 -40 840 -41 q 834 -47 838 -47 q 829 -47 831 -47 q 826 -47 829 -47 q 817 -45 823 -47 q 802 -36 811 -42 q 780 -18 793 -31 m 564 447 q 568 445 564 446 q 578 443 571 444 q 598 443 585 443 q 640 455 623 443 q 667 486 656 467 q 684 529 678 505 q 693 574 690 552 q 696 615 696 597 q 696 644 696 634 q 696 659 696 646 q 693 689 696 671 q 684 726 690 707 q 667 763 678 746 q 640 790 656 779 q 598 802 623 802 q 586 786 591 802 q 578 746 581 771 q 572 689 574 721 q 568 624 569 657 q 564 447 564 546 z "},"S":{"ha":1001,"x_min":60,"x_max":936,"o":"m 930 279 q 904 178 925 223 q 849 98 882 133 q 773 39 817 64 q 680 -2 730 14 q 576 -26 631 -18 q 467 -33 522 -33 q 366 -27 416 -33 q 269 -11 315 -22 q 180 15 222 -1 q 105 52 138 31 q 77 171 87 110 q 60 296 68 233 l 60 300 q 65 314 61 307 q 77 325 70 321 q 177 277 127 294 q 286 261 226 261 q 320 260 298 261 q 364 260 342 258 q 406 270 387 262 q 432 294 425 277 q 356 332 396 313 q 279 372 317 351 q 206 418 241 393 q 145 476 172 444 q 104 549 119 508 q 89 642 89 589 q 109 759 89 709 q 164 845 130 809 q 246 904 199 881 q 346 941 293 928 q 454 960 398 954 q 562 965 509 965 q 665 960 618 965 q 754 949 713 956 q 830 936 795 943 q 899 926 866 930 q 905 923 902 926 q 911 916 908 920 q 916 909 913 912 q 922 905 919 906 q 924 906 924 905 q 925 907 924 907 q 931 833 927 869 q 936 758 936 796 q 935 733 936 746 q 931 708 935 720 q 922 685 928 696 q 905 668 916 675 l 778 684 q 764 684 772 684 q 745 685 756 685 q 692 682 722 685 q 636 674 663 679 q 591 666 609 670 q 572 660 572 662 q 586 624 572 640 q 617 597 599 608 q 654 579 635 586 q 683 568 673 572 q 782 527 736 553 q 863 466 829 500 q 916 395 897 433 q 936 323 936 358 q 935 302 936 312 q 930 279 934 293 z "},"T":{"ha":1003,"x_min":52,"x_max":956,"o":"m 263 610 q 258 614 263 611 l 104 614 q 74 636 85 614 q 59 691 64 659 q 53 756 54 723 q 52 811 52 789 q 53 828 52 817 q 53 852 53 840 q 54 874 54 865 q 54 884 54 884 q 62 900 54 895 q 81 909 70 906 q 104 913 92 912 q 124 914 116 914 q 229 913 175 914 q 333 911 282 911 l 833 911 q 904 909 879 911 q 941 902 929 907 q 954 889 952 897 q 956 871 956 882 l 956 642 q 952 629 956 633 q 942 623 948 625 q 930 620 937 621 q 919 620 924 620 q 877 620 900 620 q 830 620 854 620 q 782 620 806 620 q 739 621 759 621 q 731 620 734 621 q 726 617 728 620 q 724 607 724 614 q 723 587 723 600 q 723 540 723 577 q 721 449 722 503 q 716 332 719 395 q 708 205 713 268 l 708 72 q 703 33 708 46 q 688 14 698 20 q 663 6 678 7 q 627 3 648 5 q 552 2 585 3 q 483 1 518 1 q 405 -1 447 0 q 307 -1 363 -1 q 277 23 288 -1 q 262 90 267 47 q 257 190 257 132 q 258 316 256 248 q 261 459 259 384 q 263 610 263 534 z "},"U":{"ha":1230,"x_min":77,"x_max":1152,"o":"m 698 49 q 623 16 663 31 q 541 -9 583 1 q 455 -26 498 -20 q 368 -32 411 -32 q 250 -16 298 -32 q 168 29 201 0 q 117 97 136 58 q 90 185 99 137 q 79 287 81 233 q 77 397 77 340 q 79 508 77 452 q 86 621 82 564 q 92 736 90 678 q 95 854 95 795 q 92 884 95 870 q 90 913 90 897 q 104 932 90 928 q 136 936 119 936 q 219 937 177 936 q 303 936 260 937 q 390 931 346 935 q 478 918 433 927 q 509 906 497 913 q 527 889 521 900 q 536 862 534 879 q 538 818 538 844 q 536 704 538 762 q 533 581 535 646 q 530 442 531 516 q 528 281 528 368 q 532 207 528 230 q 555 183 536 183 q 597 190 576 183 q 636 203 618 196 q 675 224 656 212 l 675 782 q 671 814 673 798 q 669 844 670 830 q 669 868 669 858 q 669 880 669 878 q 670 901 669 893 q 678 915 672 909 q 694 922 684 920 q 724 924 705 924 q 767 925 739 924 q 828 927 796 926 q 888 930 860 929 q 930 933 917 932 q 946 932 932 933 q 977 931 960 932 q 1019 929 995 930 q 1093 918 1066 924 q 1133 907 1120 912 q 1149 896 1146 901 q 1152 884 1152 890 q 1149 676 1152 779 q 1144 471 1147 573 q 1138 267 1141 369 q 1135 60 1135 164 q 1123 18 1135 31 q 1084 4 1111 4 q 1055 4 1074 4 q 1013 2 1036 3 q 963 0 989 1 q 911 -1 937 -1 q 780 -7 850 -4 q 726 6 745 -7 q 698 49 706 19 z "},"V":{"ha":1275,"x_min":76,"x_max":1199,"o":"m 873 7 q 616 1 745 1 q 368 0 488 0 q 330 4 349 0 q 293 8 311 8 q 287 7 289 8 q 281 7 284 7 q 271 14 276 9 q 267 22 267 19 l 170 461 q 127 633 148 545 q 89 806 106 722 q 83 836 87 815 q 76 879 78 857 q 79 917 75 901 q 100 933 83 933 q 119 933 105 933 q 150 933 132 933 q 186 932 167 932 q 221 931 205 932 q 248 931 237 931 q 260 930 258 930 l 389 930 q 395 927 389 930 q 403 925 398 926 q 411 928 408 925 q 422 930 414 930 l 427 930 q 441 929 427 930 q 475 927 455 928 q 518 926 495 926 q 558 925 541 925 q 572 886 566 913 q 587 824 579 860 q 602 745 594 788 q 621 656 610 701 q 625 634 621 654 q 635 583 629 613 q 648 518 641 553 q 661 453 654 483 q 671 402 667 422 q 675 382 675 382 q 675 376 675 379 q 677 370 676 374 q 679 361 677 366 q 681 370 680 366 q 682 376 681 374 q 683 382 682 379 q 687 402 683 382 q 697 453 691 422 q 710 518 703 483 q 723 583 717 553 q 733 634 729 613 q 737 656 737 654 q 755 745 747 701 q 771 824 764 788 q 785 886 779 860 q 800 925 792 913 q 831 926 813 925 q 865 927 849 926 q 892 929 881 928 q 904 930 903 930 l 908 930 q 911 928 910 930 q 913 925 912 925 q 926 927 924 925 q 928 930 928 929 l 1015 930 q 1027 931 1016 931 q 1054 931 1038 931 q 1089 932 1070 932 q 1125 933 1107 932 q 1156 933 1143 933 q 1175 933 1169 933 q 1196 917 1192 933 q 1199 879 1200 901 q 1193 836 1198 857 q 1186 806 1188 815 q 1148 633 1168 722 q 1105 461 1127 545 l 1008 22 q 1003 14 1008 19 q 994 7 998 9 q 988 7 991 7 q 982 8 986 8 q 965 4 973 8 q 949 0 957 0 q 911 3 929 0 q 873 7 893 7 z "},"W":{"ha":1626,"x_min":66,"x_max":1563,"o":"m 1000 7 q 959 7 980 7 q 920 8 939 8 l 907 7 q 895 14 897 9 q 893 22 893 19 l 800 481 l 708 22 q 691 4 705 8 q 663 0 678 0 q 598 -1 627 0 q 534 -1 570 -1 q 471 -1 497 -1 q 422 -1 445 -1 q 375 0 399 -1 q 318 0 351 0 q 294 4 307 0 q 271 8 282 8 l 258 7 q 246 14 248 9 q 244 22 244 19 l 147 461 q 113 633 130 545 q 81 806 95 722 q 73 820 75 810 q 68 842 70 830 q 67 867 67 854 q 66 892 66 880 q 72 921 66 909 q 92 933 77 933 q 111 933 97 933 q 141 933 124 933 q 178 932 159 932 q 213 931 197 932 q 239 931 229 931 q 251 930 250 930 l 311 930 q 319 929 317 930 q 323 927 321 928 l 325 925 q 333 928 328 925 q 345 930 337 930 l 349 930 q 360 929 349 930 q 388 927 372 928 q 421 926 404 926 q 452 925 439 925 q 467 883 460 911 q 481 814 474 854 q 497 727 489 774 q 515 628 505 679 q 517 615 515 627 q 522 588 519 604 q 528 553 525 572 q 534 518 532 534 q 539 491 537 502 q 541 479 541 480 q 543 473 542 476 q 544 467 543 470 q 546 458 545 463 q 548 467 547 463 q 549 473 548 470 q 550 479 549 476 q 552 491 550 480 q 557 518 554 502 q 563 553 559 534 q 570 588 567 572 q 574 615 572 604 q 576 628 576 627 q 609 794 596 730 q 633 895 623 859 q 638 910 635 903 q 648 923 641 918 q 671 930 656 928 q 712 933 686 933 q 736 933 718 933 q 776 933 754 933 q 819 933 798 933 q 854 932 840 932 q 858 932 855 932 q 861 933 860 933 q 869 932 865 933 q 872 930 872 932 q 930 929 910 930 q 960 927 951 928 q 973 925 972 926 q 982 928 977 925 q 997 930 987 930 q 1005 931 998 930 q 1022 931 1013 931 q 1039 930 1031 931 q 1048 924 1047 928 q 1058 882 1053 909 q 1067 820 1062 855 q 1078 743 1072 785 q 1095 656 1084 701 q 1097 640 1095 654 q 1101 604 1099 625 q 1107 559 1104 583 q 1114 514 1111 535 q 1118 480 1116 494 q 1120 465 1120 466 q 1122 460 1121 463 q 1123 453 1122 457 q 1125 444 1124 449 q 1127 453 1126 449 q 1128 460 1127 457 q 1129 465 1128 463 q 1131 480 1129 466 q 1136 514 1133 494 q 1142 559 1139 535 q 1149 604 1146 583 q 1154 640 1152 625 q 1156 656 1156 654 q 1174 745 1166 701 q 1190 824 1182 788 q 1204 886 1197 860 q 1218 925 1211 913 q 1237 926 1226 925 q 1257 928 1248 926 q 1280 930 1269 929 l 1284 930 q 1288 928 1286 930 q 1290 925 1289 925 q 1302 927 1301 925 q 1304 930 1304 929 l 1377 930 q 1388 931 1377 931 q 1414 931 1398 931 q 1450 932 1430 932 q 1487 933 1469 932 q 1518 933 1504 933 q 1537 933 1532 933 q 1557 921 1551 933 q 1563 892 1563 909 q 1554 867 1557 880 q 1550 842 1552 854 q 1549 820 1549 830 q 1548 806 1548 810 q 1504 613 1529 713 q 1454 419 1480 513 l 1357 22 q 1344 14 1346 19 q 1343 7 1343 9 l 1331 8 q 1314 7 1321 8 q 1297 6 1307 6 q 1227 6 1267 6 q 1147 6 1187 6 q 1067 7 1106 7 q 1000 7 1029 7 z "},"X":{"ha":1269,"x_min":69,"x_max":1200,"o":"m 549 78 l 521 32 l 488 1 q 485 3 488 2 q 480 4 483 3 l 473 5 q 467 3 473 5 q 454 -2 462 1 q 439 -7 447 -5 q 428 -8 432 -9 q 398 -5 418 -6 q 351 -3 378 -4 q 292 -3 323 -3 q 229 -2 260 -3 q 168 0 197 -1 q 115 5 138 2 l 110 5 q 101 8 104 5 q 98 15 98 11 q 98 23 97 18 q 98 31 98 27 q 104 54 98 38 q 120 90 111 70 q 142 132 130 110 q 165 175 154 155 q 188 212 177 195 q 204 239 198 229 q 216 259 208 245 q 233 292 223 273 q 253 333 242 311 q 275 376 264 355 q 330 489 301 428 l 316 513 q 303 535 310 523 q 289 561 296 548 q 275 582 287 563 q 246 628 262 601 q 210 687 229 656 q 174 746 191 718 q 145 792 157 773 q 132 812 134 810 q 115 837 125 821 q 94 869 104 852 q 77 905 84 887 q 69 937 69 923 q 87 940 79 939 q 101 942 95 941 q 106 943 106 943 q 124 943 108 943 q 165 941 140 942 q 223 939 191 940 q 289 936 256 937 q 355 932 323 934 q 414 930 388 931 q 456 928 439 929 q 473 928 472 928 q 491 913 479 928 q 518 875 503 898 q 550 825 534 852 q 581 773 567 798 q 604 732 595 749 q 615 711 614 715 q 617 703 615 707 q 622 694 619 698 q 626 687 624 690 q 629 684 629 684 q 637 691 633 687 q 645 700 641 694 q 654 711 650 705 q 665 732 655 715 q 689 773 675 749 q 719 825 703 798 q 751 875 736 852 q 778 913 766 898 q 795 928 790 928 q 825 929 798 928 q 893 932 853 930 q 980 936 934 934 q 1067 939 1027 937 q 1134 942 1107 941 q 1162 943 1161 943 q 1168 942 1162 943 q 1181 940 1173 941 l 1200 937 q 1192 908 1200 924 q 1175 876 1185 892 q 1154 847 1164 861 q 1137 827 1143 833 q 1124 805 1135 825 q 1096 756 1112 785 q 1060 694 1079 727 q 1023 632 1040 661 q 995 583 1006 603 q 981 561 983 563 q 962 535 972 548 q 945 513 953 523 q 925 489 935 500 q 968 408 948 446 q 986 377 977 393 q 1002 347 994 361 q 1016 322 1010 333 q 1025 307 1021 312 q 1047 270 1033 294 q 1077 217 1061 246 q 1110 157 1093 189 q 1140 98 1126 126 q 1162 49 1154 71 q 1171 17 1171 27 q 1171 9 1171 14 q 1171 1 1172 5 q 1168 -5 1171 -3 q 1160 -8 1166 -8 l 1154 -8 q 1104 -7 1133 -8 q 1046 -6 1076 -7 q 986 -5 1016 -5 q 929 -4 956 -4 q 884 -5 903 -4 q 855 -8 864 -6 q 844 -7 851 -9 q 829 -2 836 -5 q 816 3 821 1 q 810 5 810 5 q 802 4 808 5 q 794 1 795 3 l 762 32 l 762 43 q 761 45 762 45 q 758 44 760 45 q 753 44 756 44 q 747 49 751 45 l 677 174 q 668 194 674 181 q 654 219 661 207 q 640 241 646 232 q 629 250 633 250 l 591 174 l 549 78 z "},"Y":{"ha":1138,"x_min":39,"x_max":1101,"o":"m 637 -123 q 630 -125 633 -123 q 626 -126 627 -126 q 621 -124 623 -126 q 614 -114 618 -122 q 552 -102 580 -110 q 503 -87 524 -94 q 497 -86 502 -87 q 485 -85 492 -85 q 473 -83 479 -84 q 466 -82 467 -83 q 434 -73 454 -79 q 391 -59 414 -67 q 344 -42 368 -51 q 300 -23 320 -33 q 269 -6 281 -14 q 256 9 256 3 q 260 37 256 22 q 270 66 264 52 q 282 94 275 80 q 295 121 289 109 q 310 148 300 133 q 330 178 320 163 q 346 209 339 194 q 353 236 353 224 q 346 259 353 250 q 331 278 339 269 q 315 297 322 288 q 308 319 308 307 q 302 319 303 319 q 300 318 302 318 q 298 319 299 318 q 295 323 297 319 q 253 382 277 347 q 205 457 230 417 q 155 541 180 498 q 111 625 131 585 q 99 649 106 634 q 84 683 92 665 q 68 722 76 702 q 54 761 60 743 q 43 794 47 779 q 39 817 39 809 q 48 834 39 825 q 69 852 56 844 q 97 869 82 861 q 124 882 112 876 q 156 888 141 884 q 181 897 170 892 q 201 905 193 901 q 214 908 209 908 q 239 912 220 908 q 283 922 258 916 q 335 936 308 928 q 385 951 363 944 q 389 952 387 951 q 392 952 391 952 q 395 953 394 953 q 418 949 409 953 q 435 938 428 945 q 448 921 442 931 q 460 899 454 911 q 471 883 465 891 q 483 866 477 874 q 495 851 490 858 q 503 840 500 844 q 528 801 513 825 q 556 752 542 776 q 583 712 570 729 q 604 694 595 694 q 617 709 608 694 q 638 747 627 724 q 662 799 650 770 q 686 853 675 827 q 707 900 698 879 q 720 930 716 921 q 726 948 723 940 q 732 961 728 956 q 742 970 736 967 q 759 974 749 974 q 811 968 781 974 q 875 953 842 963 q 944 930 909 943 q 1009 901 979 916 q 1064 869 1040 886 q 1101 835 1088 852 q 1096 798 1101 815 q 1084 765 1091 780 q 956 482 1019 623 q 829 200 893 341 q 825 198 827 199 q 821 196 823 197 q 737 34 779 114 q 653 -126 695 -46 q 646 -132 651 -131 q 637 -132 641 -132 l 637 -123 z "},"Z":{"ha":976,"x_min":75,"x_max":897,"o":"m 99 294 q 249 447 182 377 q 304 506 277 476 q 352 561 331 536 q 387 605 374 586 q 399 632 399 624 q 392 637 399 637 l 128 642 q 106 651 115 642 q 91 674 97 660 q 82 708 85 689 q 77 745 79 726 q 76 781 76 764 q 75 811 75 798 q 76 832 75 817 q 77 865 77 848 q 79 896 78 882 q 79 909 79 909 l 87 917 q 115 926 96 926 q 132 925 123 926 q 148 924 140 924 q 249 928 199 924 q 351 932 300 932 q 548 934 451 932 q 749 936 646 936 q 825 933 796 936 q 870 926 854 930 q 891 917 886 922 q 897 905 897 911 l 897 684 q 887 640 897 667 q 846 567 877 613 q 757 451 815 520 q 602 282 699 382 q 693 283 648 282 q 775 283 732 283 q 854 283 819 283 q 879 274 868 283 q 889 256 889 264 l 889 31 q 888 22 889 27 q 877 12 886 16 q 848 3 868 7 q 792 0 829 0 l 548 0 q 439 0 490 0 q 341 1 389 1 q 242 2 292 2 q 135 3 193 3 q 122 6 129 3 q 111 15 116 9 q 102 26 106 20 q 99 39 99 33 l 99 294 z "},"[":{"ha":768,"x_min":79,"x_max":689,"o":"m 85 639 l 85 707 q 84 752 85 726 q 82 804 83 777 q 80 858 81 831 q 79 905 79 884 q 80 929 79 911 q 81 967 81 947 q 83 1002 82 987 q 83 1018 83 1017 l 90 1025 q 122 1023 107 1023 q 151 1022 136 1022 q 225 1024 191 1022 q 298 1026 258 1026 q 356 1026 332 1026 q 402 1027 381 1027 q 441 1028 422 1028 q 482 1029 460 1029 q 530 1030 503 1030 q 593 1031 557 1031 q 613 1027 597 1031 q 646 1019 629 1024 q 676 1009 663 1015 q 689 1000 689 1004 l 689 819 q 680 800 689 810 q 661 787 671 789 q 609 798 635 796 q 555 799 584 799 q 539 798 545 799 q 521 791 532 797 q 508 714 510 756 q 505 629 505 671 q 505 623 505 625 q 505 620 505 622 q 505 613 505 618 q 505 596 505 608 q 504 564 505 584 q 504 510 504 543 q 503 506 504 509 q 500 497 502 502 q 498 488 499 492 q 497 482 497 484 q 498 472 497 478 q 500 460 499 466 q 503 450 502 454 q 504 444 504 445 q 504 391 504 411 q 505 358 505 370 q 505 341 505 347 q 505 334 505 336 q 505 331 505 332 q 505 325 505 330 q 508 240 505 283 q 521 163 510 198 q 539 156 532 157 q 555 155 545 155 q 608 154 584 155 q 661 153 633 153 q 679 146 669 153 q 689 135 689 139 l 689 -46 q 676 -52 689 -50 q 646 -57 663 -55 q 613 -61 629 -60 q 593 -62 597 -62 q 469 -64 540 -62 q 298 -65 399 -65 q 261 -63 279 -65 q 225 -60 243 -62 q 189 -56 207 -58 q 151 -54 171 -54 q 122 -55 136 -54 q 90 -57 107 -56 l 83 -50 q 83 -36 83 -50 q 81 -5 82 -22 q 80 27 81 12 q 79 49 79 43 q 80 96 79 70 q 82 150 81 123 q 84 202 83 176 q 85 248 85 228 l 85 390 l 85 639 z "},"\\":{"ha":760,"x_min":48,"x_max":706,"o":"m 226 277 q 219 299 226 278 q 203 350 212 319 q 182 414 193 380 q 161 479 171 449 q 145 529 152 509 q 138 550 138 549 q 135 559 138 551 q 127 582 132 568 q 115 614 122 596 q 102 650 109 631 q 66 747 85 692 q 53 818 58 784 q 48 879 47 852 q 58 922 50 906 q 85 939 66 939 l 98 935 l 103 936 q 107 937 105 937 q 108 939 109 938 l 132 939 q 148 943 136 941 q 168 945 160 945 q 172 944 168 945 q 180 942 176 943 q 189 940 184 941 q 194 939 193 939 q 200 941 196 939 q 203 945 203 943 q 226 945 213 945 q 252 946 239 946 q 276 944 264 946 q 294 939 288 943 q 311 942 303 939 q 328 946 319 946 q 374 942 352 946 q 417 937 396 937 q 422 938 421 937 q 429 939 424 939 q 431 936 429 937 q 436 932 433 934 q 441 927 439 930 q 444 924 444 925 l 591 471 q 643 292 616 384 q 692 113 669 199 q 696 95 694 106 q 702 68 699 83 q 706 39 705 54 q 706 12 707 24 q 698 -8 704 0 q 681 -16 692 -16 q 665 -15 677 -16 q 640 -15 653 -15 q 617 -14 627 -14 q 605 -12 606 -13 l 448 -12 q 446 -11 448 -12 q 441 -9 444 -10 q 435 -7 439 -7 q 427 -9 430 -7 q 414 -12 423 -12 l 410 -12 q 400 -12 410 -12 q 377 -10 391 -11 q 349 -8 363 -9 q 321 -7 334 -7 q 300 34 311 6 q 277 99 289 62 q 253 182 266 137 q 226 277 240 228 z "},"]":{"ha":768,"x_min":79,"x_max":689,"o":"m 683 390 q 684 295 683 338 q 686 212 685 252 q 688 132 687 172 q 689 49 689 92 q 688 15 689 33 q 684 -19 686 -3 q 680 -45 682 -35 q 677 -57 678 -56 l 671 -57 q 616 -58 642 -57 q 567 -61 591 -60 q 519 -64 543 -62 q 469 -65 495 -65 q 320 -65 391 -65 q 196 -63 250 -65 q 111 -58 142 -62 q 79 -46 79 -54 l 79 135 q 94 138 79 136 q 130 140 109 139 q 173 141 151 141 q 212 142 196 142 q 239 156 229 142 q 255 194 250 170 q 263 249 261 218 q 265 314 265 280 q 264 381 265 347 q 264 444 264 415 q 265 465 264 449 q 267 501 266 481 q 270 543 269 522 q 271 579 271 564 q 270 584 271 580 q 267 593 269 589 q 265 602 266 597 q 264 607 264 606 q 262 695 260 654 q 268 775 264 736 q 267 795 269 789 q 259 801 264 800 q 243 801 253 802 q 219 799 233 799 l 107 799 q 89 804 98 799 q 79 819 79 810 l 79 1000 q 93 1009 79 1004 q 122 1019 106 1015 q 155 1027 139 1024 q 175 1031 170 1031 q 251 1030 219 1031 q 310 1028 283 1029 q 365 1026 338 1027 q 426 1024 391 1025 q 506 1023 460 1023 q 616 1022 551 1022 q 646 1023 631 1022 q 677 1025 661 1023 l 684 1018 q 685 1002 684 1017 q 687 967 686 987 q 688 929 688 947 q 689 905 689 911 q 688 834 689 871 q 686 764 687 798 q 684 697 685 729 q 683 639 683 665 l 683 390 z "},"^":{"ha":842,"x_min":66,"x_max":775,"o":"m 332 833 q 343 833 332 833 q 366 832 353 833 q 389 832 378 832 q 398 832 399 832 l 591 832 q 602 833 597 832 q 612 833 607 833 l 621 833 q 627 829 625 832 q 629 823 629 825 l 714 538 q 742 426 728 484 q 767 314 755 369 q 771 295 768 309 q 775 268 774 281 q 772 243 776 254 q 758 232 769 232 q 737 232 753 232 q 703 233 721 233 q 671 234 685 233 q 656 234 656 234 l 597 234 q 596 237 597 235 q 589 238 595 238 q 588 236 589 238 q 585 234 587 234 l 585 234 q 576 235 584 234 q 558 236 569 235 q 536 237 548 237 q 516 238 525 238 q 507 263 511 246 q 497 303 502 280 q 487 355 492 327 q 475 412 481 382 q 472 429 475 413 q 466 467 469 444 q 457 517 462 490 q 449 567 452 544 q 442 605 445 590 q 439 621 439 621 q 439 625 439 623 q 437 635 437 627 q 429 602 430 615 q 429 587 428 595 q 426 574 429 587 q 420 542 424 561 q 413 500 417 523 q 406 459 410 478 q 400 426 403 439 q 398 412 398 413 q 388 355 393 382 q 378 303 382 327 q 369 263 374 280 q 359 238 364 246 q 333 237 347 238 q 304 236 318 237 q 274 234 289 235 l 271 234 q 262 236 264 234 q 258 238 260 238 q 254 237 256 237 q 250 234 250 235 l 186 234 q 171 234 184 234 q 139 233 157 233 q 104 232 121 233 q 83 232 88 232 q 69 243 72 232 q 67 268 66 254 q 71 295 68 281 q 75 314 73 309 q 100 426 86 369 q 127 538 113 484 l 212 823 q 214 829 212 825 q 220 833 216 832 l 332 833 z "},"_":{"ha":818,"x_min":79,"x_max":741,"o":"m 519 130 l 589 130 q 607 130 594 130 q 633 127 619 129 q 665 125 648 126 q 705 120 690 125 q 726 106 720 115 q 735 82 733 96 q 736 50 736 68 q 737 11 736 28 q 739 -23 738 -6 q 740 -62 739 -41 q 741 -113 741 -83 q 732 -134 741 -126 q 709 -145 723 -141 q 680 -150 696 -149 q 649 -151 663 -151 q 547 -150 597 -151 q 437 -149 498 -149 l 308 -149 q 208 -149 254 -149 q 115 -148 163 -148 q 103 -144 109 -148 q 91 -136 96 -141 q 82 -124 85 -131 q 79 -112 79 -118 q 79 -58 79 -82 q 80 -12 79 -35 q 80 35 80 11 q 81 90 81 59 q 91 116 81 107 q 119 128 102 125 q 157 131 136 131 q 200 130 178 130 l 519 130 z "},"`":{"ha":587,"x_min":25,"x_max":524,"o":"m 214 1055 q 190 1103 200 1080 q 169 1149 179 1126 q 149 1195 159 1173 q 125 1242 138 1218 q 106 1273 117 1255 q 84 1310 96 1291 q 62 1348 73 1329 q 42 1382 51 1367 q 29 1408 34 1398 q 25 1419 24 1418 q 35 1435 25 1430 q 72 1446 45 1440 q 77 1445 75 1446 q 82 1444 79 1444 l 92 1447 l 151 1451 q 160 1453 155 1453 q 168 1455 165 1453 q 182 1454 174 1454 q 197 1453 191 1455 l 205 1457 q 281 1455 241 1457 q 371 1453 321 1453 l 431 1443 l 441 1434 q 469 1326 457 1377 q 492 1219 481 1275 q 500 1146 495 1183 q 511 1072 506 1109 q 520 999 516 1035 q 524 926 524 962 q 519 898 524 911 q 497 885 515 885 q 459 886 478 885 q 422 886 441 886 l 382 886 l 376 890 l 367 885 q 342 886 356 886 q 315 886 328 886 q 292 906 305 886 q 266 952 279 925 q 238 1007 252 979 q 214 1055 224 1036 z "},"a":{"ha":1120,"x_min":73,"x_max":1048,"o":"m 428 791 q 470 792 452 791 q 500 793 487 793 q 526 795 514 794 q 552 797 538 796 q 586 798 567 798 q 633 799 606 799 q 652 799 638 799 q 684 798 666 798 q 724 797 703 797 q 763 795 745 796 q 797 794 782 795 q 817 794 811 794 q 831 791 825 794 q 846 789 838 789 l 857 789 q 865 783 861 787 q 868 775 868 779 l 966 408 q 1004 260 985 336 q 1038 110 1022 183 q 1043 83 1039 102 q 1048 46 1047 64 q 1045 13 1049 27 q 1026 -1 1041 -1 q 1010 -1 1022 -1 q 983 -1 998 -1 q 952 0 968 -1 q 923 0 937 0 q 899 1 909 1 q 889 1 890 1 l 812 1 q 811 5 812 3 q 802 7 810 7 q 799 4 800 7 q 795 1 798 1 l 791 1 q 781 2 791 1 q 757 4 771 3 q 728 6 743 5 q 701 7 713 7 q 684 59 693 22 q 665 147 675 97 q 634 143 651 144 q 599 142 617 142 q 562 143 581 142 q 528 143 544 143 q 509 58 517 95 q 492 7 500 22 q 481 4 488 7 q 473 1 475 1 l 471 1 q 459 4 463 1 q 452 7 456 7 q 398 5 422 6 q 361 3 378 3 q 345 1 345 2 l 232 1 q 222 1 231 1 q 199 0 213 1 q 169 0 185 0 q 138 -1 153 -1 q 111 -1 123 -1 q 94 -1 99 -1 q 76 13 80 -1 q 73 46 72 27 q 78 83 75 64 q 83 110 82 102 q 117 260 99 183 q 154 408 135 336 l 248 778 q 252 786 248 781 q 260 791 256 790 l 271 791 q 298 794 286 791 q 326 798 309 798 q 376 794 352 798 q 428 791 399 791 m 593 599 q 590 583 593 598 q 583 542 587 567 q 573 485 579 517 q 562 419 568 452 q 551 354 557 386 q 542 297 546 322 l 603 297 q 607 300 604 298 q 611 301 610 301 l 614 301 q 634 299 625 301 q 652 294 643 296 q 643 352 648 319 q 632 417 637 384 q 621 483 627 451 q 611 541 615 515 q 604 582 607 566 q 602 599 602 598 q 600 603 601 600 q 599 608 600 605 q 597 616 598 612 q 595 608 595 612 q 593 603 594 605 q 593 599 593 600 z "},"b":{"ha":976,"x_min":79,"x_max":920,"o":"m 79 610 q 79 647 79 631 q 80 678 79 663 q 81 709 81 693 q 84 747 82 726 q 91 754 86 748 q 98 761 96 760 q 107 769 100 764 q 122 782 114 775 q 137 793 130 788 q 146 801 144 799 q 245 805 195 799 q 345 810 296 810 q 457 805 400 810 q 568 793 513 799 q 635 784 599 789 q 707 770 671 779 q 776 748 743 762 q 836 714 810 734 q 877 663 861 693 q 892 593 892 633 q 892 580 892 589 q 890 561 891 571 q 888 542 889 551 q 886 529 887 532 q 874 504 882 517 q 856 479 866 491 q 834 458 846 468 q 812 444 823 449 q 803 439 810 443 q 787 432 795 435 q 770 425 778 428 q 762 420 763 421 q 752 415 758 419 q 743 408 747 411 l 748 402 q 818 369 787 386 q 872 327 850 351 q 907 271 895 303 q 920 193 920 238 q 920 181 920 189 q 918 172 920 173 l 914 163 q 907 154 913 162 q 891 137 900 146 q 872 118 882 127 q 856 104 862 109 q 813 76 835 85 q 766 59 791 68 q 743 50 759 56 q 708 36 726 43 q 672 22 689 28 q 649 14 656 16 q 616 10 640 12 q 565 4 592 7 q 513 -1 537 1 q 478 -5 488 -4 q 467 -6 475 -5 q 450 -7 459 -7 q 432 -8 441 -8 q 420 -9 424 -9 q 415 -11 418 -9 q 410 -14 412 -14 q 346 -14 377 -14 q 283 -12 314 -14 q 223 -7 253 -11 q 164 3 194 -4 l 120 23 q 111 25 114 25 q 106 26 109 25 q 103 32 104 28 q 98 45 101 35 q 88 88 90 65 q 87 135 86 111 q 89 182 87 159 q 90 226 90 205 q 82 418 85 323 q 79 610 79 514 m 474 300 q 464 293 467 300 q 460 280 460 286 l 460 186 q 464 181 460 182 q 470 180 468 180 q 473 180 471 180 q 474 182 474 180 l 659 268 l 669 276 q 656 279 663 278 q 646 284 650 281 q 581 294 610 288 q 519 300 552 300 l 474 300 m 478 529 q 478 520 478 524 q 485 516 479 516 l 488 516 q 495 517 490 516 q 502 519 500 519 q 535 534 515 525 q 575 553 555 544 q 608 568 594 562 q 623 574 622 574 l 637 583 q 617 597 631 591 q 587 607 603 603 q 556 613 571 611 q 531 615 541 615 q 500 608 511 615 q 484 590 489 602 q 479 562 479 578 q 478 529 478 547 z "},"c":{"ha":825,"x_min":58,"x_max":763,"o":"m 463 389 q 471 296 463 334 q 492 236 478 259 q 525 203 506 214 q 566 193 543 193 q 603 199 583 193 q 644 215 623 205 q 686 237 665 224 q 728 264 707 250 l 742 66 q 687 25 718 43 q 623 -6 656 7 q 554 -26 589 -19 q 490 -33 520 -33 q 388 -29 439 -33 q 288 -11 336 -25 q 198 30 240 3 q 125 101 156 56 q 76 213 94 146 q 58 372 58 279 q 89 569 58 483 q 174 713 120 654 q 302 803 229 772 q 460 833 376 833 q 609 811 532 833 q 763 743 686 788 l 744 586 q 672 604 709 595 q 600 612 635 612 q 546 603 571 612 q 503 568 522 593 q 474 500 485 543 q 463 389 463 456 z "},"d":{"ha":1043,"x_min":81,"x_max":979,"o":"m 457 -1 q 380 0 418 -1 q 300 1 341 0 q 214 2 259 1 q 118 2 169 2 q 101 9 107 2 q 91 26 94 16 q 87 50 88 37 q 86 75 86 63 q 86 121 86 93 q 85 184 85 149 q 83 259 84 219 q 82 341 83 299 q 81 426 81 383 q 81 508 81 468 l 81 770 q 91 791 81 781 q 111 801 100 801 q 249 800 191 801 q 349 798 307 798 q 487 800 414 798 q 650 802 561 802 q 719 796 682 802 q 793 775 756 790 q 863 733 829 760 q 923 667 897 707 q 964 572 949 627 q 979 444 979 517 q 952 237 979 321 q 864 100 926 153 q 703 23 802 47 q 457 -1 603 -1 m 467 157 q 489 157 478 157 q 507 160 498 158 q 521 166 515 161 q 542 212 532 178 q 559 291 552 246 q 571 383 567 335 q 575 470 575 431 q 575 492 575 474 q 573 533 574 509 q 568 585 572 557 q 559 635 565 612 q 544 673 553 658 q 521 688 534 688 q 503 686 511 688 q 490 682 496 684 q 480 677 484 680 q 479 612 480 649 q 478 534 479 576 q 476 448 477 492 q 473 362 475 404 q 467 157 471 264 z "},"e":{"ha":878,"x_min":79,"x_max":807,"o":"m 79 473 q 80 624 79 549 q 89 778 81 698 q 103 793 89 788 q 136 801 117 799 q 177 803 155 803 q 212 803 198 803 q 330 800 272 803 q 448 796 389 796 q 469 797 459 796 q 489 798 478 798 l 497 791 q 604 805 549 803 q 709 807 659 807 q 716 802 713 807 l 760 802 q 778 788 772 802 q 789 755 785 775 q 798 710 794 734 q 807 664 801 686 q 805 638 807 651 q 793 625 802 625 q 788 628 791 625 q 783 631 785 631 q 767 629 774 632 q 750 625 760 625 q 736 628 741 625 q 724 631 731 631 q 693 626 711 631 q 664 621 676 622 q 634 620 654 619 q 592 620 614 620 q 550 616 570 619 q 521 607 530 614 l 521 611 q 510 597 515 611 q 503 566 506 584 q 498 531 500 549 q 497 504 497 513 q 502 483 497 488 q 517 478 506 478 q 524 479 520 478 q 530 482 528 480 q 538 481 532 482 q 546 478 543 479 l 664 478 q 669 481 665 479 q 673 482 672 482 q 694 479 685 484 q 711 473 703 475 q 728 471 721 472 q 739 469 734 471 q 747 461 744 467 q 754 444 751 456 l 783 353 q 774 334 785 340 q 742 323 762 327 q 695 319 722 320 q 640 318 668 318 l 579 318 q 538 318 555 318 q 511 315 521 318 q 496 305 500 313 q 492 283 492 298 q 492 277 492 280 q 492 273 492 275 q 493 268 492 270 q 492 254 493 262 q 491 238 492 245 q 489 221 490 230 q 489 208 489 215 q 490 194 490 201 q 490 182 490 187 q 490 174 490 176 q 617 178 553 174 q 744 182 682 182 q 750 176 748 182 q 754 161 753 170 q 757 143 756 153 q 760 127 758 134 q 765 104 762 114 q 770 85 768 95 q 773 64 772 76 q 774 36 774 53 q 774 32 774 35 q 774 27 774 30 q 773 21 773 24 l 764 11 q 758 10 761 10 q 754 9 756 9 q 750 9 751 9 q 731 13 736 9 q 721 16 725 16 q 711 12 719 16 q 703 5 704 7 l 703 12 q 686 12 699 12 q 665 11 673 11 q 655 13 661 11 q 646 16 650 16 q 610 14 630 16 q 574 5 589 13 l 549 5 l 133 5 q 128 11 132 5 q 121 24 125 16 q 113 42 117 33 q 108 58 110 51 q 98 87 102 68 q 91 130 94 106 q 86 179 88 153 q 84 230 85 205 q 83 276 83 255 q 83 310 83 296 q 83 343 83 328 q 81 375 82 357 q 79 415 80 392 q 79 473 79 439 z "},"f":{"ha":829,"x_min":79,"x_max":789,"o":"m 79 786 q 82 793 79 788 q 89 800 85 798 q 94 800 92 800 q 100 799 96 799 q 132 802 117 799 q 165 806 147 806 q 218 803 191 806 q 273 800 244 800 l 279 804 l 340 804 q 345 802 341 803 q 350 800 349 800 q 354 801 351 800 q 362 802 358 802 q 370 804 366 803 q 374 804 373 804 q 384 803 377 804 q 393 800 391 802 l 711 800 q 716 798 712 799 q 721 796 720 796 q 726 798 722 796 q 730 800 729 800 q 758 785 747 800 q 776 746 769 770 q 786 690 783 722 q 789 627 789 659 q 782 615 789 618 q 765 610 774 612 q 744 609 755 609 q 726 610 733 610 l 671 610 q 649 609 657 610 q 634 607 642 608 q 618 605 627 606 q 594 604 609 604 q 576 604 585 604 q 564 606 567 604 l 554 600 q 552 588 553 597 q 549 563 551 579 q 547 524 548 547 q 546 467 546 500 q 545 463 547 467 q 550 453 543 459 l 575 453 q 616 451 593 453 q 662 446 640 450 q 701 434 684 441 q 726 415 719 427 q 735 388 734 404 q 737 357 737 372 q 736 309 737 330 q 736 262 736 288 q 710 253 726 257 q 677 245 694 248 q 643 240 660 242 q 616 239 627 239 q 612 241 613 239 q 607 244 611 244 q 600 241 602 244 q 593 239 598 239 q 586 241 589 239 q 579 243 583 243 q 574 239 578 243 q 569 233 570 235 q 553 232 561 232 q 538 232 545 233 q 525 227 531 231 q 512 215 518 224 q 512 141 512 176 q 510 79 511 106 q 506 31 509 51 q 497 0 503 10 q 466 -1 484 0 q 432 -2 448 -1 q 405 -3 416 -3 q 393 -4 393 -4 q 384 -4 387 -5 q 378 -2 380 -3 q 374 -1 376 -1 q 369 0 372 0 q 364 -1 368 0 q 359 -4 361 -3 l 256 -4 q 246 -4 254 -4 q 226 -4 238 -4 q 200 -5 214 -5 q 173 -5 186 -5 q 150 -5 160 -5 q 136 -5 140 -5 q 113 9 121 -5 q 103 44 106 24 q 99 82 100 63 q 98 110 99 102 q 86 250 94 179 q 79 390 79 320 l 79 786 m 593 245 q 590 243 590 245 q 591 242 590 242 q 593 241 591 241 q 594 242 594 241 l 594 243 q 593 245 594 245 z "},"g":{"ha":1008,"x_min":59,"x_max":945,"o":"m 941 165 q 940 111 941 137 q 939 62 940 84 q 936 23 938 39 q 930 -1 934 7 q 907 -2 920 -1 q 883 -3 895 -2 q 856 -4 870 -3 l 853 -4 q 841 -3 844 -4 q 840 -1 839 -2 q 836 -2 838 -1 q 833 -4 833 -3 l 713 -4 q 707 -4 712 -4 q 694 -5 701 -5 q 681 -5 687 -5 q 671 -5 674 -5 q 656 22 662 -5 q 649 94 651 50 q 623 39 643 63 q 573 0 603 16 q 505 -24 543 -16 q 424 -32 467 -32 q 341 -22 384 -32 q 258 9 298 -12 q 181 64 217 31 q 118 145 145 98 q 75 255 91 193 q 59 395 59 317 q 96 580 59 499 q 199 716 134 661 q 354 801 264 772 q 547 829 443 829 q 702 810 622 829 q 863 751 783 790 l 817 547 q 771 559 795 553 q 722 572 747 566 q 673 582 697 578 q 625 586 648 586 q 563 577 592 586 q 512 547 534 569 q 478 486 491 524 q 466 387 466 447 q 473 301 466 336 q 495 244 481 266 q 527 214 509 223 q 568 204 546 204 q 604 208 585 204 q 641 221 622 212 q 635 297 637 260 q 625 368 632 334 l 625 422 q 633 432 625 432 l 641 432 q 657 435 649 432 q 674 437 665 437 q 700 435 688 437 q 726 432 712 432 q 740 436 730 435 q 762 437 749 437 q 794 439 779 437 q 817 441 810 441 l 833 446 q 870 444 853 445 q 896 443 884 444 q 907 441 907 443 l 938 441 l 943 439 l 943 400 q 944 391 944 395 q 945 379 945 387 q 945 359 945 372 q 945 323 945 347 l 945 201 q 944 195 945 201 q 943 183 943 190 q 941 172 942 177 q 941 165 941 166 z "},"h":{"ha":1148,"x_min":79,"x_max":1069,"o":"m 926 0 q 821 3 873 0 q 716 5 770 7 l 693 5 q 675 8 682 5 q 666 19 669 12 q 662 37 663 26 q 660 66 661 49 l 646 296 q 631 295 642 295 q 608 296 621 295 q 584 297 595 296 q 569 300 572 298 l 512 300 q 504 292 505 300 q 503 279 503 285 l 503 272 l 503 49 q 503 22 503 31 q 501 9 503 13 q 495 4 499 5 q 483 0 491 3 q 385 -3 433 -1 q 288 -4 336 -4 q 200 -2 245 -4 q 117 9 155 -1 q 109 15 111 10 q 104 25 106 20 q 103 36 103 31 q 102 43 102 41 q 87 260 96 150 q 79 489 79 371 q 80 524 79 500 q 82 577 81 547 q 84 641 83 608 q 86 704 85 674 q 87 758 87 734 q 89 793 88 782 q 90 796 89 794 q 93 798 92 798 q 117 801 106 798 q 146 803 128 804 q 191 802 171 802 q 229 802 211 802 q 266 803 248 802 q 305 803 283 803 q 383 802 344 803 q 463 800 422 800 q 485 798 477 800 q 498 789 494 795 q 503 772 502 783 q 504 745 504 762 q 504 732 504 741 q 505 713 505 723 q 505 694 505 703 q 505 681 505 686 q 506 669 505 675 q 507 657 507 663 q 505 614 507 633 q 504 575 504 594 q 507 554 504 559 q 517 547 511 548 q 534 549 524 547 q 558 551 544 551 q 572 551 559 551 q 598 551 584 551 q 624 552 612 551 q 636 555 635 553 l 636 612 q 636 633 636 619 q 637 666 637 648 q 638 705 637 685 q 639 744 639 725 q 640 777 640 762 q 640 798 640 791 q 645 797 642 798 q 651 797 648 797 q 656 798 654 797 q 660 803 659 800 l 726 803 q 787 800 758 803 q 847 798 817 798 q 883 798 859 798 q 935 800 908 799 q 987 802 962 801 q 1022 803 1011 803 q 1058 798 1047 803 q 1069 770 1069 793 l 1069 660 q 1068 615 1069 640 q 1065 566 1067 591 q 1063 515 1064 541 q 1063 469 1062 490 l 1050 29 q 1047 21 1050 26 q 1041 11 1045 16 q 1033 3 1038 6 q 1023 0 1028 0 l 926 0 z "},"i":{"ha":571,"x_min":77,"x_max":496,"o":"m 482 139 q 480 81 479 107 q 478 37 480 56 q 469 9 476 19 q 444 -1 461 -1 q 441 0 442 -1 q 438 1 439 1 q 433 1 436 1 q 426 -1 429 0 q 418 -3 422 -2 q 399 -3 406 -3 q 387 -1 392 -2 q 377 1 381 0 q 367 1 373 1 q 362 0 366 1 q 357 -3 359 -1 l 253 -3 q 234 -5 251 -3 q 197 -11 218 -7 q 158 -16 177 -14 q 134 -18 140 -18 q 111 -3 119 -18 q 101 31 104 12 q 97 70 98 51 q 96 97 97 89 q 84 277 92 185 q 77 458 77 370 l 77 795 q 84 807 77 803 q 102 813 92 811 q 123 815 112 814 q 140 815 134 815 q 204 812 173 815 q 271 810 235 810 l 277 814 l 338 814 q 343 811 339 812 q 348 810 347 810 q 352 810 349 810 q 360 812 356 811 q 367 813 364 812 q 371 814 370 814 q 381 812 374 814 q 391 810 389 810 l 494 810 l 496 571 q 491 541 495 567 q 488 463 488 515 l 488 192 l 482 139 z "},"j":{"ha":712,"x_min":27,"x_max":644,"o":"m 562 37 q 483 -18 525 3 q 404 -51 440 -39 q 321 -71 362 -64 q 198 -72 258 -77 q 81 -47 138 -66 l 28 -23 q 27 -10 26 -19 q 29 10 28 -1 q 32 35 31 22 q 35 60 34 48 q 36 79 35 67 q 38 102 37 91 q 41 120 39 113 q 43 125 42 127 q 74 115 60 119 q 99 108 87 111 q 124 104 111 105 q 153 103 137 102 q 176 114 167 103 q 190 138 184 124 q 199 166 196 152 q 205 189 203 181 q 207 241 205 209 q 209 321 209 273 q 210 410 210 368 q 211 483 210 451 q 212 552 212 520 l 210 799 q 214 805 212 802 q 217 810 215 808 q 220 812 218 812 q 225 811 223 812 q 231 810 227 810 q 260 814 245 810 q 293 817 275 817 q 343 814 319 817 q 396 812 368 812 q 408 817 399 815 q 425 818 416 818 q 444 818 434 818 q 460 817 453 817 q 464 814 461 816 q 470 812 467 812 q 474 812 471 812 q 481 814 477 813 q 488 816 485 815 q 492 817 491 817 q 502 815 495 817 q 510 812 509 814 l 568 812 q 573 810 568 811 q 578 809 575 809 l 588 812 q 615 798 604 812 q 632 760 625 783 q 641 707 638 737 q 644 646 644 677 l 644 433 q 643 414 644 432 q 641 373 642 395 q 640 332 640 351 q 639 311 639 313 q 637 238 639 276 q 628 164 635 201 q 604 95 620 128 q 562 37 589 62 z "},"k":{"ha":1043,"x_min":77,"x_max":989,"o":"m 500 803 q 506 798 503 803 q 509 784 508 792 q 511 766 511 776 q 512 749 512 757 q 510 660 513 703 q 506 585 506 617 q 522 586 516 585 q 532 591 528 588 q 541 599 536 594 q 552 610 545 604 q 574 630 555 612 q 617 671 592 647 q 672 723 643 695 q 729 774 702 750 q 776 813 755 798 q 805 831 797 829 q 812 826 808 831 q 821 816 817 822 q 830 805 826 810 q 837 799 835 800 q 866 761 849 778 q 899 726 882 743 q 932 689 916 708 q 958 646 947 670 l 958 643 q 948 617 958 631 q 925 590 938 604 q 898 565 911 576 q 878 545 885 553 q 867 536 876 543 q 847 519 859 529 q 821 497 835 509 q 796 475 808 485 q 775 457 784 465 q 764 449 766 450 q 754 442 759 444 q 745 438 749 440 q 740 433 742 436 q 738 422 738 429 q 743 403 738 412 q 756 386 749 394 q 773 372 764 378 q 789 358 782 365 q 816 333 798 349 q 857 297 834 317 q 902 255 879 277 q 945 213 926 233 q 977 176 964 193 q 989 150 989 159 q 988 139 989 144 q 980 127 987 134 q 940 97 960 110 q 899 66 919 83 q 863 38 884 54 q 823 12 842 22 q 808 6 819 11 q 785 -5 798 1 q 763 -16 773 -11 q 751 -21 753 -20 q 713 -24 724 -34 l 686 4 q 682 9 684 7 q 680 11 681 10 q 676 14 678 12 q 671 18 674 15 l 562 142 q 551 155 559 146 q 534 174 543 165 q 517 191 526 184 q 506 199 509 199 q 498 196 500 199 q 496 189 496 193 q 496 159 496 180 q 494 114 495 138 q 493 70 494 91 q 492 41 492 50 q 491 32 491 38 q 492 19 492 25 q 491 6 492 12 q 487 0 490 1 q 484 -1 487 -1 q 476 -1 480 -1 q 469 0 472 -1 q 465 0 465 0 q 344 -3 403 -4 q 223 -3 286 -3 q 202 -3 215 -3 q 178 -3 190 -3 q 157 -4 166 -3 q 148 -4 149 -4 l 95 8 l 91 18 q 90 32 90 18 q 89 66 90 45 q 87 114 88 87 q 86 167 87 140 q 85 219 85 194 q 84 261 84 243 q 81 474 83 366 q 80 693 80 582 q 80 706 80 696 q 79 725 79 715 q 78 744 78 735 q 77 757 77 753 q 77 762 77 758 q 77 771 77 766 q 78 781 77 777 q 79 786 78 785 q 92 803 83 798 q 111 807 100 807 q 133 806 121 808 q 156 804 145 804 q 392 804 308 804 q 500 803 477 803 z "},"l":{"ha":785,"x_min":77,"x_max":747,"o":"m 83 351 q 87 511 86 433 q 94 650 89 588 q 109 753 98 711 q 140 806 119 794 q 232 805 194 806 q 301 804 269 804 q 362 802 332 803 q 429 802 391 802 q 461 799 448 800 q 483 793 474 798 q 495 775 492 787 q 498 739 499 763 q 497 729 498 737 q 495 710 496 720 q 493 692 494 701 q 490 682 491 684 q 491 669 490 679 q 492 649 492 660 q 494 630 493 639 q 494 619 494 621 q 495 587 495 608 q 496 544 495 566 q 498 504 496 522 q 503 478 499 485 q 501 434 503 458 q 499 385 500 410 q 501 336 499 360 q 508 292 503 312 q 525 287 519 288 q 540 286 530 286 q 632 287 585 286 q 724 296 679 288 q 740 284 732 294 q 747 267 747 275 l 737 29 q 726 17 736 22 q 698 9 715 12 q 661 3 681 5 q 621 -1 640 0 q 587 -3 602 -3 q 564 -4 571 -4 q 522 -6 543 -4 q 483 -8 502 -8 q 475 -8 481 -8 q 464 -7 470 -7 q 453 -5 458 -6 q 446 -4 448 -5 q 424 -3 439 -4 q 390 -1 409 -2 q 351 1 371 0 q 313 3 330 2 q 282 5 295 4 q 267 5 269 5 q 202 4 234 7 q 137 1 171 1 q 110 1 123 1 q 85 0 97 1 l 79 5 q 79 21 79 6 q 79 55 79 36 q 79 91 79 74 q 80 114 79 109 q 80 159 81 134 q 79 210 80 185 q 78 257 79 235 q 77 292 77 279 l 83 351 z "},"m":{"ha":1236,"x_min":80,"x_max":1156,"o":"m 632 518 q 640 536 633 520 q 659 576 648 553 q 682 628 669 600 q 706 680 694 655 q 725 723 717 704 q 736 747 733 741 q 746 766 740 756 q 758 784 752 776 q 769 798 764 792 q 778 803 774 803 q 871 804 799 803 q 1074 804 943 804 q 1090 804 1084 804 q 1103 804 1097 804 q 1119 803 1109 804 q 1144 803 1128 803 q 1149 785 1147 803 q 1152 737 1151 766 q 1154 669 1154 707 q 1155 590 1155 631 q 1156 511 1156 550 q 1156 441 1156 473 q 1153 352 1156 397 q 1145 262 1150 307 q 1146 220 1145 245 q 1147 169 1147 195 q 1148 116 1147 142 q 1149 68 1149 90 q 1151 34 1150 47 q 1152 21 1151 21 l 1147 11 l 1093 -1 q 1083 -2 1092 -1 q 1063 -2 1075 -2 q 1040 -2 1052 -2 q 1019 -3 1027 -3 q 928 0 970 -3 q 838 7 886 3 q 832 6 836 7 q 825 5 828 5 q 815 32 819 5 q 810 100 812 59 q 807 191 808 142 q 807 286 807 241 q 804 293 807 290 q 797 296 801 296 q 789 284 794 296 q 777 256 783 272 q 764 222 770 239 q 754 193 758 205 q 743 169 751 189 q 720 126 734 149 q 688 85 706 103 q 651 66 671 66 q 633 66 644 66 q 609 67 622 66 q 582 67 595 67 q 558 69 568 68 q 504 164 525 122 q 470 235 482 206 q 451 280 457 264 q 441 296 444 296 q 432 286 432 296 q 432 230 432 260 q 432 168 432 199 q 431 107 431 136 q 428 55 430 78 q 422 19 426 33 q 414 5 419 5 q 407 6 410 5 q 401 7 403 7 q 310 0 353 3 q 219 -3 268 -3 q 199 -2 212 -3 q 175 -2 186 -2 q 154 -2 163 -2 q 144 -1 145 -1 l 92 11 l 87 21 q 86 34 87 21 q 85 68 85 47 q 83 116 84 90 q 82 169 83 142 q 81 220 81 195 q 80 262 81 245 q 84 385 81 326 q 86 510 86 444 q 86 520 86 513 q 85 534 85 527 q 84 549 84 542 q 83 557 83 555 q 84 589 83 574 q 86 619 85 604 q 88 652 87 634 q 89 693 89 669 q 89 706 89 696 q 87 726 88 715 q 86 745 87 736 q 86 758 86 755 q 83 766 83 761 q 93 787 83 779 q 116 799 103 795 q 143 803 130 802 q 165 804 157 804 q 368 804 296 804 q 461 803 440 803 q 469 798 464 803 q 480 784 475 792 q 492 766 486 776 q 503 747 498 756 q 512 723 505 741 q 529 679 519 704 q 549 626 538 654 q 570 575 560 599 q 586 536 579 552 q 594 518 593 519 q 612 500 604 500 q 624 506 618 500 q 632 518 629 512 z "},"n":{"ha":1058,"x_min":79,"x_max":979,"o":"m 975 267 q 974 154 975 199 q 973 78 974 108 q 969 31 972 47 q 962 7 966 15 q 950 -1 957 0 q 932 -3 943 -3 q 857 -2 895 -3 q 786 -2 825 -2 q 713 -1 748 -1 q 696 -2 706 -1 q 674 -2 686 -3 q 649 4 662 -1 q 626 20 637 9 l 504 191 q 494 204 502 195 q 477 223 486 214 q 460 240 468 233 q 448 248 452 248 q 441 244 444 248 q 439 237 439 241 q 438 214 439 229 q 438 179 438 198 q 437 138 438 159 q 437 98 437 117 q 436 64 437 79 q 436 43 436 50 q 434 35 435 40 q 432 23 433 29 q 430 12 431 17 q 426 5 429 7 q 417 5 425 4 q 408 5 410 5 q 318 -1 361 2 q 227 -4 275 -4 q 207 -4 219 -4 q 183 -3 195 -3 q 162 -3 171 -3 q 153 -3 153 -3 l 98 11 l 96 20 q 94 33 95 20 q 93 67 94 46 q 92 115 92 88 q 91 168 91 141 q 90 219 90 194 q 89 261 89 243 q 82 351 85 305 q 79 440 79 396 q 79 453 79 443 q 80 474 80 463 q 81 496 81 486 q 82 509 82 506 q 81 517 82 511 q 80 532 81 524 q 79 547 80 540 q 79 555 79 553 q 79 569 79 558 q 80 591 80 579 q 81 614 81 604 q 82 628 82 625 q 82 636 82 629 q 83 654 83 644 q 84 675 84 665 q 85 692 85 686 q 84 704 85 694 q 83 723 84 713 q 82 743 83 733 q 82 755 82 752 q 80 760 82 757 q 79 765 77 764 q 93 785 83 778 q 114 797 102 793 q 137 802 125 801 q 161 803 150 803 q 269 806 223 803 q 347 810 315 808 q 396 811 378 812 q 420 802 414 810 q 435 781 424 797 q 461 742 446 765 q 497 690 477 719 q 536 630 516 661 q 577 569 557 600 q 615 513 597 539 q 616 561 615 534 q 617 616 616 588 q 618 672 617 645 q 619 722 618 700 q 621 757 620 743 q 623 771 622 770 q 630 778 625 773 q 643 788 635 783 q 659 796 650 793 q 677 799 667 800 l 746 799 q 761 799 747 799 q 794 798 774 798 q 836 797 814 797 q 877 795 858 796 q 909 794 897 795 q 924 794 922 794 q 948 792 938 794 q 965 786 958 791 q 976 771 972 781 q 979 745 979 761 q 979 732 979 741 q 977 713 978 723 q 975 694 976 703 q 975 681 975 685 q 976 670 975 676 q 978 659 978 665 q 978 621 978 650 q 977 550 977 591 q 976 463 977 509 q 976 376 976 416 q 975 305 975 335 q 975 267 975 275 z "},"o":{"ha":1050,"x_min":61,"x_max":990,"o":"m 431 -29 q 366 -23 399 -29 q 300 -5 334 -16 l 290 -5 q 280 -4 284 -5 q 269 0 275 -3 q 252 11 262 4 q 224 28 242 17 q 148 96 179 53 q 98 188 117 138 q 70 288 79 237 q 61 380 61 338 q 73 487 61 433 q 106 591 84 541 q 159 685 127 641 q 232 761 191 728 q 321 812 273 793 q 427 831 370 831 q 451 830 439 831 q 476 828 464 830 q 481 829 478 829 q 486 829 484 829 q 583 828 541 829 q 660 822 625 827 q 723 808 694 817 q 781 783 752 799 q 875 707 836 747 q 940 620 914 667 q 978 517 966 573 q 990 393 990 461 q 975 266 990 328 q 928 146 959 203 q 922 135 926 142 q 915 123 918 129 q 908 113 911 117 q 904 109 905 109 l 895 103 q 813 24 861 52 q 712 -17 766 -4 q 601 -32 658 -30 q 490 -35 543 -35 q 460 -32 475 -35 q 431 -29 446 -29 m 467 322 q 467 305 467 319 q 469 271 468 291 q 471 229 470 252 q 474 187 473 207 q 477 152 475 167 q 480 132 479 137 l 496 79 q 504 72 497 74 q 515 69 510 69 q 535 84 526 69 q 551 124 544 99 q 562 182 557 149 q 570 249 567 214 q 576 319 574 284 q 580 383 578 353 q 582 435 581 413 q 582 467 582 457 q 582 478 582 464 q 581 514 582 492 q 577 564 580 537 q 571 614 575 591 q 559 653 566 637 q 542 669 552 669 q 515 648 529 669 q 496 574 502 627 l 467 350 l 467 322 z "},"p":{"ha":1029,"x_min":81,"x_max":990,"o":"m 81 774 q 91 795 81 785 q 113 806 101 806 q 251 804 193 806 q 353 803 310 803 q 492 805 418 803 q 656 807 566 807 q 727 802 690 807 q 802 786 765 798 q 873 754 839 774 q 933 704 907 734 q 975 630 959 673 q 990 529 990 587 q 966 369 990 434 q 897 262 941 303 q 790 204 852 222 q 651 186 728 186 l 486 186 q 483 135 486 151 q 480 117 480 119 q 481 106 480 115 q 483 89 482 98 q 485 71 484 79 q 486 61 486 63 q 482 27 486 39 q 469 9 477 15 q 448 1 460 3 q 419 0 435 0 q 346 -1 377 0 q 282 -2 314 -1 q 212 -3 250 -3 q 119 -4 174 -4 q 101 3 108 -4 q 92 21 95 10 q 88 45 89 32 q 87 71 87 58 q 86 148 87 98 q 84 257 85 197 q 82 382 83 317 q 81 509 81 448 l 81 774 m 496 335 q 503 333 496 334 q 519 332 508 332 q 551 332 530 332 q 574 345 565 332 q 589 380 583 359 q 599 427 595 401 q 604 478 602 453 q 605 524 605 503 q 606 555 606 545 q 605 568 606 557 q 604 594 605 578 q 599 626 602 609 q 589 658 595 644 q 574 682 583 673 q 551 692 565 692 q 533 676 541 692 q 519 636 525 661 q 509 579 513 611 q 503 513 505 547 q 496 335 496 435 z "},"q":{"ha":1042,"x_min":43,"x_max":986,"o":"m 986 418 q 970 244 986 318 q 926 119 955 171 q 855 35 897 67 q 761 -17 813 2 q 789 -55 775 -35 q 815 -94 804 -75 q 834 -128 827 -113 q 842 -151 842 -143 q 829 -175 841 -163 q 800 -197 817 -186 q 766 -216 783 -207 q 737 -233 748 -225 q 715 -240 726 -237 q 690 -248 704 -244 q 674 -254 688 -250 q 645 -263 661 -258 q 615 -271 629 -268 q 599 -273 601 -274 q 593 -278 597 -279 q 589 -279 589 -278 q 586 -279 588 -279 q 578 -276 583 -279 q 565 -267 573 -273 q 547 -250 557 -261 q 542 -243 544 -243 q 538 -243 540 -243 q 536 -241 537 -241 q 532 -235 535 -240 l 435 -75 q 428 -63 433 -72 q 416 -43 423 -54 q 320 -30 367 -39 q 231 -2 273 -21 q 155 46 190 16 q 96 120 121 75 q 57 225 71 164 q 43 367 43 286 q 71 581 43 492 q 158 727 98 670 q 312 810 218 783 q 537 836 406 836 q 632 829 582 836 q 733 804 683 822 q 828 755 783 786 q 909 679 874 725 q 965 568 944 632 q 986 418 986 503 m 460 385 q 460 335 460 366 q 462 270 460 305 q 467 200 463 235 q 476 135 470 164 q 492 89 482 106 q 515 71 501 71 q 539 91 529 71 q 555 143 549 111 q 564 214 561 175 q 569 291 568 254 q 571 360 570 329 q 571 408 571 391 q 571 439 571 414 q 569 499 570 465 q 564 572 568 534 q 555 644 561 611 q 539 698 549 677 q 515 720 529 720 q 492 705 501 720 q 476 666 482 690 q 467 608 470 641 q 462 537 463 574 q 460 461 460 500 q 460 385 460 422 z "},"r":{"ha":1042,"x_min":77,"x_max":972,"o":"m 906 81 q 890 65 904 75 q 856 43 876 55 q 814 20 836 32 q 772 0 791 9 q 738 -13 752 -8 q 722 -16 724 -18 q 667 42 691 14 q 618 105 642 71 q 566 183 593 139 q 500 286 538 227 q 497 288 498 288 q 489 287 494 288 q 484 286 485 286 q 483 245 484 271 q 482 188 482 219 q 480 126 481 157 q 478 68 479 94 q 474 26 477 42 q 469 9 472 9 q 460 10 464 9 q 454 11 456 11 q 343 3 397 7 q 231 0 289 0 q 211 0 224 0 q 185 1 198 1 q 164 1 173 1 q 154 1 155 1 l 111 16 l 106 25 q 104 39 106 25 q 101 75 103 53 q 98 124 100 96 q 94 179 96 151 q 90 233 92 207 q 87 277 88 258 q 81 353 84 313 q 77 429 77 393 q 78 442 77 432 q 79 465 79 452 q 81 487 80 477 q 81 500 81 497 q 81 509 81 502 q 79 524 80 516 q 78 539 79 532 q 77 549 77 547 q 78 582 77 567 q 80 612 79 597 q 82 646 81 628 q 83 690 83 665 q 82 704 83 694 q 82 724 82 713 q 82 743 82 734 q 81 757 81 753 q 79 761 80 758 q 77 765 77 763 q 87 783 77 777 q 112 793 98 790 q 141 798 126 797 q 163 799 155 799 q 446 793 326 799 q 649 776 565 788 q 787 746 734 764 q 871 700 841 727 q 912 636 901 672 q 924 554 924 600 q 910 476 924 508 q 878 424 897 444 q 840 392 859 404 q 811 375 821 380 q 830 336 817 358 q 860 292 844 315 q 894 246 876 269 q 927 203 912 223 q 953 168 943 183 q 966 144 964 152 q 972 128 979 138 q 949 107 964 118 q 906 81 932 95 m 475 646 q 472 560 474 603 q 469 473 469 517 q 492 475 479 473 q 517 480 505 477 q 541 487 530 483 q 559 497 552 492 q 578 510 569 503 q 595 525 588 517 q 607 543 603 533 q 612 566 612 553 q 605 602 612 587 q 588 627 598 618 q 564 642 577 637 q 536 646 550 646 l 498 646 l 475 646 z "},"s":{"ha":861,"x_min":58,"x_max":805,"o":"m 58 195 q 60 208 58 202 q 71 215 63 214 q 249 180 163 180 q 291 180 268 180 q 334 182 315 179 q 368 192 354 184 q 381 216 381 200 q 365 254 381 240 q 327 278 349 269 q 280 295 304 288 q 238 311 255 302 q 232 315 237 312 q 221 321 227 317 q 210 329 216 325 q 201 335 203 333 q 200 338 207 335 q 182 348 193 342 q 162 362 172 354 q 152 378 152 370 l 152 385 q 117 406 132 385 q 92 457 102 428 q 77 516 82 487 q 71 562 71 546 q 102 681 71 633 q 182 762 132 730 q 297 811 233 793 q 430 837 361 829 q 565 847 498 845 q 686 848 631 848 q 716 841 704 843 q 737 835 729 839 q 750 822 745 831 q 758 795 755 813 q 762 746 760 777 q 766 667 764 715 q 763 650 771 656 q 737 641 755 644 q 695 635 720 637 q 644 630 670 633 q 591 623 617 627 q 545 609 566 618 q 512 587 524 600 q 499 553 499 573 q 502 538 499 543 q 515 525 504 532 q 587 490 551 507 q 655 455 623 473 q 714 418 687 437 q 762 373 742 398 q 793 318 782 349 q 805 249 805 288 q 803 214 805 230 q 795 182 802 199 q 741 97 777 136 q 660 32 705 59 q 562 -12 614 4 q 462 -28 511 -27 l 258 -32 q 241 -27 254 -30 q 210 -22 228 -25 q 171 -15 191 -19 q 133 -6 151 -11 q 103 4 115 -1 q 91 16 92 9 l 58 187 l 58 195 z "},"t":{"ha":907,"x_min":50,"x_max":863,"o":"m 234 533 l 96 533 q 69 553 79 533 q 55 602 60 574 q 50 661 51 631 q 50 711 50 692 q 50 730 50 716 q 52 760 51 745 q 53 787 52 775 q 54 800 54 800 l 59 806 q 85 804 71 804 q 112 804 98 804 q 204 805 158 804 q 296 806 250 806 q 321 806 302 806 q 368 805 341 806 q 427 805 395 805 q 487 805 458 805 q 538 804 515 804 q 573 804 562 804 q 581 806 575 805 q 592 807 586 806 q 603 808 597 808 q 610 808 608 808 q 650 806 629 808 q 691 804 670 804 q 727 805 701 804 q 783 806 753 806 q 813 805 798 806 q 839 804 827 805 q 857 801 850 803 q 863 796 863 799 l 863 558 q 855 541 863 550 q 838 529 846 531 q 753 539 796 538 q 667 539 709 539 q 647 524 654 539 q 638 486 641 508 q 636 440 636 464 q 637 399 637 416 q 637 357 637 378 q 638 319 638 337 q 636 269 638 296 q 632 214 634 241 q 628 161 630 187 q 626 115 626 136 q 624 45 626 68 q 613 11 621 21 q 591 -1 606 1 q 552 -4 576 -2 q 484 -4 515 -4 q 420 -3 453 -3 q 349 -3 388 -3 q 256 -3 310 -3 q 246 23 250 5 q 240 67 242 41 q 236 126 237 93 q 235 200 235 160 q 237 353 235 270 q 238 529 238 437 l 234 533 z "},"u":{"ha":1112,"x_min":90,"x_max":1034,"o":"m 659 4 q 647 18 652 8 q 640 38 643 28 q 633 55 636 47 q 627 62 631 62 q 610 58 618 62 q 592 47 601 54 q 575 33 583 41 q 559 20 566 26 q 516 1 539 8 q 470 -12 492 -7 q 431 -18 448 -16 q 406 -20 414 -20 q 359 -21 382 -20 q 312 -21 336 -22 q 265 -17 288 -20 q 220 -4 242 -13 q 158 40 182 10 q 120 106 134 69 q 99 186 105 144 q 91 270 93 229 q 90 347 89 311 q 91 408 91 383 q 91 428 91 414 q 92 455 92 441 q 92 480 92 469 q 92 494 92 491 l 96 504 q 97 517 96 504 q 99 551 98 530 q 101 598 100 572 q 103 650 102 625 q 105 696 104 675 q 106 730 106 718 q 104 756 106 744 q 102 782 102 768 q 115 799 102 795 q 144 803 128 803 l 164 803 q 177 803 171 803 q 186 806 182 804 l 356 803 q 358 800 356 802 q 361 799 360 799 l 370 803 q 428 800 405 803 q 466 787 452 797 q 486 758 480 777 q 492 707 492 739 q 494 646 492 674 q 496 585 496 617 l 496 571 q 494 508 495 542 q 491 439 492 474 q 490 371 490 404 q 488 312 489 338 q 487 268 488 286 q 487 245 487 250 q 487 224 487 238 q 488 196 486 210 q 494 172 490 182 q 506 161 498 161 q 531 168 513 161 q 568 182 549 174 q 601 198 587 191 q 616 210 616 206 l 616 667 q 613 691 614 681 q 611 712 612 702 q 610 732 610 722 q 610 754 610 742 q 610 768 610 761 q 611 782 610 776 q 616 792 612 788 q 630 796 621 796 q 636 794 632 796 q 640 787 640 791 l 640 786 q 663 792 647 789 q 698 796 678 794 q 739 799 718 798 q 781 800 761 800 q 816 800 800 800 q 840 800 832 800 l 863 800 l 1010 796 q 1018 792 1017 793 q 1020 787 1020 791 q 1019 783 1020 785 q 1019 778 1019 780 q 1024 779 1021 778 q 1029 781 1027 781 q 1034 775 1034 781 q 1031 411 1034 591 q 1020 47 1029 231 q 1017 38 1020 43 q 1008 26 1013 32 q 999 16 1004 20 q 991 8 994 11 q 980 12 989 9 q 967 14 970 14 q 962 11 966 14 q 958 8 959 8 q 870 0 916 1 q 783 -1 825 -1 q 720 -1 752 -1 q 659 4 688 -1 z "},"v":{"ha":1072,"x_min":71,"x_max":1002,"o":"m 419 1 q 369 -1 392 1 q 321 -4 346 -4 q 300 -1 310 -4 q 285 1 291 1 l 272 1 q 264 7 268 3 q 261 16 261 12 l 150 390 q 114 537 131 462 q 81 685 96 612 q 76 710 79 692 q 71 746 72 728 q 73 779 69 764 q 92 793 77 793 q 120 792 98 793 q 165 792 142 792 q 207 791 189 791 q 227 790 225 791 l 311 790 q 317 787 311 789 q 322 785 319 785 q 328 787 326 785 q 339 790 330 790 l 343 790 q 384 787 363 789 q 421 785 401 786 q 456 785 440 785 q 468 752 462 774 q 479 699 473 729 q 492 631 486 668 q 507 555 499 595 q 510 534 507 554 q 519 483 514 513 q 531 418 525 453 q 543 352 537 382 q 552 302 548 322 q 555 281 555 281 l 555 275 q 556 269 555 273 q 557 262 556 266 q 558 271 558 267 q 559 277 559 275 q 561 281 560 279 q 564 302 561 281 q 573 352 568 322 q 584 418 578 382 q 595 483 590 453 q 604 534 600 513 q 607 555 607 554 q 623 631 616 595 q 636 699 630 668 q 649 752 643 729 q 661 785 655 774 q 688 785 673 785 q 717 787 703 786 q 741 789 731 788 q 751 790 751 790 l 753 790 q 756 787 755 790 q 758 785 757 785 q 768 787 766 785 q 769 790 769 789 l 846 790 q 856 790 846 790 q 878 791 865 791 q 908 792 892 791 q 939 792 924 792 q 965 793 954 793 q 981 793 977 793 q 999 779 995 793 q 1002 746 1003 764 q 997 710 1001 728 q 991 685 993 692 q 959 537 976 612 q 922 390 941 462 l 811 16 q 808 7 811 12 q 800 1 804 3 l 789 1 q 774 -1 781 1 q 760 -4 768 -4 q 729 -1 744 -4 q 696 1 713 1 q 680 -2 694 -1 q 646 -4 666 -3 q 603 -5 626 -5 q 559 -5 580 -5 q 525 -4 539 -5 q 507 -4 510 -4 q 494 -3 507 -3 q 464 -1 481 -2 q 434 1 448 0 q 419 1 420 1 z "},"w":{"ha":1388,"x_min":66,"x_max":1324,"o":"m 851 7 q 832 4 842 7 q 812 1 822 1 q 797 5 803 1 q 783 8 791 8 l 772 7 q 762 13 764 8 q 761 21 761 18 l 683 406 l 606 21 q 595 13 597 18 q 594 7 594 8 l 583 8 q 576 5 579 8 q 568 1 572 1 q 530 4 547 1 q 492 7 513 7 q 481 1 490 3 q 460 0 471 0 q 419 1 435 0 q 392 3 404 2 q 369 6 380 5 q 340 7 358 7 q 310 4 325 7 q 277 1 294 1 q 258 5 268 1 q 239 8 248 8 l 228 7 q 217 13 218 8 q 215 21 215 18 l 134 389 q 105 533 120 459 q 77 677 90 608 q 71 691 73 682 q 67 709 68 699 q 66 730 66 720 q 66 750 66 741 q 71 776 66 766 q 87 786 76 786 q 103 786 92 786 q 129 786 115 786 q 160 785 144 785 q 189 784 176 785 q 212 784 203 784 q 222 783 220 783 l 272 783 q 282 780 279 783 q 283 778 283 779 q 290 781 287 778 q 300 783 294 783 l 304 783 q 314 782 304 783 q 337 780 323 781 q 365 779 350 779 q 391 778 380 778 q 404 742 397 766 q 416 685 410 718 q 429 612 422 652 q 444 529 436 572 q 446 518 444 528 q 450 495 448 509 q 455 466 452 481 q 460 436 458 450 q 464 414 462 423 q 465 404 465 405 q 466 399 465 402 q 467 393 467 397 q 469 386 468 390 q 471 393 471 390 q 472 399 471 397 q 473 404 473 402 q 475 414 473 405 q 479 436 477 423 q 484 466 481 450 q 489 495 487 481 q 493 518 491 509 q 494 529 494 528 q 510 612 503 572 q 524 685 517 652 q 536 742 530 718 q 549 778 543 766 q 570 778 559 778 q 595 779 582 778 q 600 784 595 783 q 610 786 604 786 q 630 786 614 786 q 663 786 645 786 q 700 786 682 786 q 729 785 718 785 q 732 785 730 785 q 734 786 733 786 q 741 785 738 786 q 744 783 744 785 l 817 783 q 827 780 825 783 q 829 778 829 779 q 835 781 831 778 q 844 783 839 783 l 848 783 q 861 781 850 783 q 878 778 871 778 q 890 746 884 768 q 902 693 896 724 q 915 627 908 663 q 930 551 922 591 q 932 538 930 550 q 936 509 934 526 q 942 471 939 492 q 947 434 945 451 q 951 405 949 417 q 953 393 953 393 q 953 388 952 391 q 954 382 953 385 q 956 375 954 378 q 957 382 957 378 q 958 388 958 385 q 960 393 959 391 q 961 405 960 393 q 965 434 963 417 q 971 471 968 451 q 976 509 974 492 q 980 538 979 526 q 982 551 982 550 q 997 627 990 591 q 1010 693 1004 663 q 1023 746 1017 724 q 1035 778 1029 768 q 1050 779 1042 778 q 1067 781 1059 779 q 1087 783 1077 782 l 1091 783 q 1093 781 1093 783 q 1095 778 1093 778 q 1105 780 1104 778 q 1107 783 1107 782 l 1169 783 q 1178 784 1169 783 q 1200 784 1187 784 q 1230 785 1213 785 q 1261 786 1246 785 q 1288 786 1276 786 q 1304 786 1299 786 q 1319 775 1314 786 q 1324 750 1324 765 q 1317 729 1320 740 q 1314 709 1315 719 q 1313 690 1313 699 q 1312 677 1312 682 q 1275 516 1295 600 q 1233 354 1254 432 l 1152 21 q 1140 13 1142 18 q 1139 7 1139 8 l 1129 8 q 1115 5 1122 8 q 1101 1 1109 1 q 1069 4 1084 1 q 1038 7 1054 7 q 1029 3 1036 5 q 1013 1 1022 2 q 991 0 1003 1 q 969 0 980 0 q 929 1 943 0 q 904 3 915 2 q 881 6 892 5 q 851 7 870 7 z "},"x":{"ha":1116,"x_min":69,"x_max":1046,"o":"m 483 66 l 458 28 l 431 1 l 418 4 q 412 2 417 4 q 401 -2 408 0 q 388 -6 395 -5 q 379 -7 382 -8 q 353 -4 371 -5 q 312 -3 335 -3 q 261 -2 288 -3 q 206 -2 233 -2 q 154 0 179 -1 q 109 4 128 1 l 104 4 q 94 12 94 4 q 94 26 94 20 q 100 47 94 33 q 114 78 105 60 q 132 114 122 95 q 153 151 142 134 q 172 184 163 169 q 186 207 180 199 q 196 224 189 212 q 210 252 202 236 q 228 287 218 269 q 247 325 237 306 q 294 421 269 369 q 282 442 288 431 q 270 463 277 452 q 258 485 264 473 q 246 503 256 486 q 221 543 236 519 q 190 593 207 566 q 159 644 174 620 q 135 683 145 667 q 122 701 124 699 q 108 722 117 709 q 91 750 99 735 q 76 782 82 766 q 69 810 69 798 l 101 814 q 116 813 102 814 q 152 812 130 812 q 202 810 174 811 q 259 808 230 809 q 316 805 288 806 q 366 804 344 804 q 402 802 389 803 q 418 802 416 802 q 433 789 422 802 q 457 756 444 776 q 484 712 470 736 q 511 668 498 689 q 531 632 523 647 q 541 614 540 617 q 543 606 541 610 q 547 599 545 602 q 550 593 549 595 q 553 590 552 590 q 560 597 557 593 q 574 614 566 602 q 584 632 575 617 q 604 668 592 647 q 631 712 616 689 q 658 756 645 736 q 682 789 671 776 q 697 802 692 802 q 723 803 699 802 q 781 805 747 804 q 856 808 816 806 q 931 810 897 809 q 989 813 966 812 q 1014 814 1013 814 l 1046 810 q 1040 784 1046 798 q 1025 757 1034 770 q 1007 732 1016 743 q 993 714 998 720 q 980 695 991 712 q 956 653 970 677 q 925 599 941 628 q 893 546 908 570 q 869 504 879 521 q 857 485 859 486 q 841 463 849 473 q 825 442 832 452 q 808 421 817 431 q 846 352 829 384 q 861 325 854 338 q 875 299 869 311 q 887 278 882 288 q 895 265 892 269 q 913 233 901 254 q 940 188 926 212 q 968 136 954 163 q 994 86 983 110 q 1013 43 1006 62 q 1021 16 1021 24 q 1021 1 1021 9 q 1011 -7 1021 -7 l 1007 -7 q 964 -6 988 -7 q 913 -5 939 -5 q 861 -4 886 -4 q 812 -3 835 -3 q 773 -4 790 -3 q 749 -7 756 -5 q 738 -6 745 -8 q 725 -2 732 -5 q 713 2 718 0 q 708 4 709 4 q 702 3 707 4 q 696 1 697 1 l 668 28 l 668 36 q 665 38 668 40 q 655 41 662 35 l 594 150 q 586 167 591 156 q 574 189 581 178 q 562 207 568 199 q 553 215 555 215 l 521 150 l 483 66 z "},"y":{"ha":1017,"x_min":38,"x_max":965,"o":"m 580 -142 q 564 -165 571 -158 q 546 -172 557 -172 q 529 -169 538 -172 q 504 -161 519 -166 q 487 -155 497 -159 q 469 -149 477 -151 q 450 -142 458 -148 q 432 -135 442 -137 q 426 -134 431 -134 q 415 -132 420 -133 q 404 -131 409 -132 q 398 -130 399 -130 q 308 -97 354 -117 q 218 -59 262 -77 q 211 -54 213 -58 q 210 -45 210 -50 q 214 -28 210 -34 q 234 5 224 -11 q 251 36 243 21 q 269 67 260 52 q 291 98 279 82 q 300 114 296 104 q 309 133 305 123 q 319 155 314 144 q 295 196 310 172 q 266 243 281 220 q 236 288 250 267 q 214 316 222 308 q 201 339 210 323 q 180 375 192 355 q 156 416 169 395 q 133 457 144 437 q 113 493 122 477 q 100 516 104 509 q 84 544 95 524 q 64 585 74 564 q 46 625 54 606 q 38 652 38 644 q 49 666 38 658 q 75 683 60 674 q 106 699 90 691 q 133 710 123 706 q 186 733 163 723 q 229 752 208 743 q 273 771 250 762 q 328 793 296 781 q 342 796 334 795 q 355 797 349 797 q 369 792 362 797 q 385 769 376 787 q 435 663 410 717 q 493 545 460 609 q 498 536 495 541 q 504 527 500 531 q 511 519 507 522 q 519 515 515 515 q 530 526 526 515 l 626 774 q 634 790 628 783 q 650 802 641 798 q 668 809 659 807 q 687 808 678 811 q 751 788 716 800 q 821 762 786 777 q 889 732 857 748 q 946 702 922 717 q 964 683 960 693 q 965 662 967 672 q 958 642 963 651 q 949 626 953 633 l 728 144 l 716 117 l 580 -142 z "},"z":{"ha":864,"x_min":75,"x_max":785,"o":"m 96 254 q 224 387 168 326 q 272 438 249 412 q 313 485 295 463 q 343 523 332 507 q 354 546 354 539 q 349 551 354 551 l 121 554 q 94 571 103 554 q 80 612 85 588 q 75 660 76 635 q 75 701 75 685 q 75 720 75 706 q 77 748 76 733 q 78 774 77 762 q 79 786 79 785 l 85 793 q 109 802 93 802 q 123 800 116 802 q 138 799 131 799 q 225 802 182 799 q 313 806 269 806 q 484 808 399 806 q 656 810 568 810 q 722 807 697 810 q 761 801 747 805 q 780 793 775 798 q 785 783 785 788 l 785 590 q 777 553 785 576 q 742 490 768 530 q 665 390 715 450 q 530 244 614 330 l 749 244 q 770 236 760 244 q 779 221 779 229 l 779 26 q 778 19 779 23 q 769 10 777 14 q 744 3 761 6 q 694 0 726 0 l 483 0 q 389 0 433 0 q 304 1 346 1 q 219 2 262 2 q 126 3 176 3 q 106 13 116 3 q 96 33 96 23 l 96 254 z "},"{":{"ha":694,"x_min":31,"x_max":623,"o":"m 483 816 q 478 744 483 780 q 463 676 473 709 q 436 614 452 643 q 398 563 420 585 q 373 543 386 551 q 345 530 359 536 q 314 519 330 524 q 281 507 298 514 q 314 494 298 500 q 345 482 330 489 q 372 467 359 475 q 398 446 385 458 q 436 395 420 423 q 462 335 452 367 q 478 268 473 302 q 483 199 483 234 q 498 158 483 176 q 542 135 514 140 q 582 130 562 131 q 623 126 602 130 l 602 -80 q 522 -119 561 -107 q 447 -130 483 -130 q 334 -105 384 -130 q 251 -34 285 -79 q 198 76 216 12 q 180 216 180 140 q 170 274 180 247 q 140 321 159 300 q 97 353 122 341 q 45 364 73 364 q 37 372 39 364 q 32 395 34 380 q 31 429 31 409 q 31 471 31 448 q 32 489 32 480 q 34 508 33 498 l 38 658 q 93 679 67 666 q 139 710 119 692 q 169 751 158 728 q 180 806 180 775 q 198 943 180 881 q 251 1050 216 1006 q 334 1120 285 1095 q 447 1145 384 1145 q 522 1134 483 1145 q 602 1095 561 1122 l 623 889 q 582 885 602 886 q 542 880 562 884 q 498 857 514 875 q 483 816 483 839 z "},"|":{"ha":549,"x_min":80,"x_max":473,"o":"m 465 277 q 463 206 463 246 q 462 123 463 166 q 461 38 462 81 q 459 -39 460 -4 q 454 -100 457 -75 q 448 -133 452 -125 q 412 -134 432 -133 q 375 -136 393 -135 q 345 -138 357 -137 q 332 -138 333 -138 l 328 -138 q 316 -136 320 -138 q 306 -133 311 -133 q 300 -135 303 -134 q 295 -138 295 -138 l 166 -138 q 159 -139 165 -139 q 145 -140 153 -140 q 131 -141 138 -140 q 121 -141 124 -141 q 102 -133 110 -141 q 91 -113 95 -125 q 84 -86 86 -101 q 81 -58 82 -72 q 80 -32 80 -43 q 80 -14 80 -20 q 80 53 80 14 q 81 137 81 92 q 82 229 81 181 q 82 320 82 276 q 83 404 83 365 q 85 471 84 443 l 85 1026 q 93 1039 85 1038 q 109 1040 100 1040 q 190 1041 152 1040 q 271 1042 229 1042 q 284 1043 277 1042 q 303 1046 291 1045 q 335 1046 315 1047 q 385 1042 355 1046 q 396 1038 391 1036 q 408 1042 402 1040 q 439 1039 427 1042 q 459 1026 452 1037 q 470 995 467 1016 q 473 938 473 975 l 473 550 q 472 529 473 549 q 471 479 471 509 q 469 414 470 449 q 467 350 467 380 q 465 299 466 319 q 465 277 465 278 z "},"}":{"ha":694,"x_min":71,"x_max":663,"o":"m 211 816 q 195 857 211 839 q 152 880 180 875 q 112 885 132 884 q 71 889 92 886 l 92 1095 q 172 1134 133 1122 q 247 1145 211 1145 q 359 1120 310 1145 q 443 1050 409 1095 q 495 943 477 1006 q 513 806 513 881 q 525 751 513 775 q 555 710 536 728 q 601 679 574 692 q 656 658 627 666 l 660 508 q 662 489 661 498 q 663 471 662 480 q 663 429 663 448 q 662 395 663 409 q 657 372 660 380 q 649 364 654 364 q 596 353 621 364 q 553 321 572 341 q 524 274 535 300 q 513 216 513 247 q 495 76 513 140 q 443 -34 477 12 q 359 -105 409 -79 q 247 -130 310 -130 q 172 -119 211 -130 q 92 -80 133 -107 l 71 126 q 112 130 92 130 q 152 135 132 131 q 195 158 180 140 q 211 199 211 176 q 216 268 211 234 q 230 335 220 302 q 254 395 239 367 q 289 446 269 423 q 315 467 302 458 q 342 482 328 475 q 372 494 357 489 q 406 507 388 500 q 372 519 388 514 q 342 530 357 524 q 314 543 328 536 q 289 563 301 551 q 254 614 269 585 q 229 676 239 643 q 215 744 220 709 q 211 816 211 780 z "},"~":{"ha":911,"x_min":61,"x_max":843,"o":"m 607 708 l 799 709 q 815 694 808 709 q 829 655 823 679 q 839 601 836 631 q 843 541 843 571 q 843 531 843 536 q 842 521 842 526 q 821 455 841 490 q 768 390 802 420 q 690 340 735 360 q 593 320 645 320 q 518 332 550 320 q 461 361 486 343 q 416 398 436 378 q 376 436 395 418 q 338 465 357 454 q 296 477 319 477 q 277 468 283 477 q 266 446 270 459 q 261 418 262 433 q 258 389 260 402 q 254 368 257 376 q 245 359 252 359 q 243 359 243 359 q 167 379 198 373 q 116 388 136 385 q 85 392 96 391 q 68 396 74 393 q 62 408 63 399 q 61 432 61 416 q 62 487 61 456 q 70 550 63 517 q 93 613 77 582 q 137 668 108 644 q 210 707 165 692 q 320 722 254 722 q 367 715 343 722 q 411 698 390 709 q 449 674 432 688 q 477 648 467 661 q 493 626 485 638 q 510 602 500 613 q 531 582 519 590 q 557 574 543 574 q 586 583 578 574 q 593 603 593 591 q 591 630 593 615 q 586 657 589 644 q 581 682 583 671 q 578 697 578 692 q 586 706 578 703 q 600 708 593 708 l 607 708 z "},"":{"ha":557,"x_min":60,"x_max":512,"o":"m 441 704 q 442 743 441 726 q 443 775 442 760 q 444 805 444 790 q 446 841 445 821 q 445 894 446 876 q 439 922 444 913 q 422 933 433 931 q 391 935 411 935 q 354 934 370 935 q 315 930 337 934 q 300 929 315 930 q 265 929 286 929 q 219 928 243 928 q 173 926 194 928 q 138 923 152 925 q 123 916 123 920 l 119 795 q 119 761 119 773 q 119 741 119 748 q 120 731 119 734 q 121 724 120 728 q 122 716 121 721 q 122 700 122 711 q 123 693 121 697 q 129 685 125 688 q 137 679 132 682 q 147 676 142 676 q 174 676 158 676 q 208 675 191 675 q 242 675 225 675 q 271 675 258 675 l 325 675 q 364 676 344 675 q 402 681 385 678 q 430 690 419 684 q 441 704 441 696 m 97 333 q 94 305 96 325 q 91 264 93 286 q 89 226 90 243 q 87 207 87 209 q 85 175 87 195 q 78 132 82 154 q 72 88 75 109 q 69 54 69 67 q 67 26 69 39 q 60 -4 65 12 q 68 -14 58 -10 q 94 -20 78 -18 q 130 -23 110 -22 q 168 -25 150 -24 q 201 -28 186 -26 q 220 -32 215 -29 l 454 -32 q 472 -24 462 -27 q 491 -15 481 -20 q 506 -2 500 -10 q 512 18 512 5 q 509 70 512 43 q 497 121 505 96 l 463 324 q 460 334 461 326 q 458 351 459 342 q 455 369 456 361 q 454 379 454 377 q 443 464 454 415 q 420 564 431 512 q 401 575 418 571 q 356 580 383 578 q 295 582 329 581 q 225 582 260 582 q 206 581 220 582 q 176 578 192 580 q 147 574 160 576 q 130 570 134 572 q 125 554 127 566 q 121 528 123 542 q 118 502 119 514 q 117 485 117 489 q 113 455 115 477 q 107 409 111 433 q 101 363 104 385 q 97 333 98 341 z "},"":{"ha":822,"x_min":25,"x_max":778,"o":"m 600 277 q 596 239 597 260 q 592 197 595 219 q 666 223 627 205 q 743 264 705 241 l 757 66 q 672 14 720 36 q 572 -21 623 -9 q 561 -93 566 -63 q 549 -133 555 -123 q 514 -150 530 -145 q 488 -153 499 -154 q 471 -149 477 -153 q 465 -141 465 -145 l 472 -33 q 365 -28 419 -33 q 262 -9 311 -24 q 169 33 212 5 q 94 105 125 60 q 43 215 62 150 q 25 372 25 281 q 56 569 25 483 q 142 713 87 654 q 270 803 196 772 q 428 833 343 833 q 484 831 455 833 q 542 825 513 829 l 557 1026 q 567 1039 557 1038 q 587 1040 576 1040 l 587 1042 q 625 1039 610 1042 q 648 1026 640 1037 q 659 995 656 1016 q 659 938 661 975 l 648 795 q 713 772 680 785 q 778 743 745 759 l 759 586 q 697 599 729 592 q 635 609 665 606 q 631 567 632 583 q 630 550 630 551 q 628 529 630 549 q 623 479 626 509 q 615 414 619 449 q 608 350 612 380 q 603 299 605 319 q 600 277 600 278 m 431 389 q 447 288 431 327 q 493 227 464 249 q 501 363 496 298 q 509 471 505 428 l 524 594 q 486 568 503 584 q 456 527 469 551 q 437 468 444 502 q 431 389 431 433 z "},"":{"ha":1023,"x_min":47,"x_max":966,"o":"m 140 -30 q 77 -11 123 -20 l 50 17 q 48 20 50 18 q 47 24 47 22 q 48 43 47 28 q 52 75 50 57 q 56 114 54 94 q 60 151 58 134 q 64 178 62 168 q 67 189 66 189 q 87 181 79 184 q 104 177 96 178 q 120 175 113 176 q 138 175 128 175 q 166 187 155 175 q 185 215 178 199 q 196 247 193 231 q 199 273 199 264 q 198 310 199 289 q 195 359 197 330 q 158 361 176 359 q 127 366 140 362 q 106 375 114 369 q 99 390 99 380 q 99 432 99 413 q 98 468 98 450 q 98 505 98 486 q 98 546 98 523 q 102 555 98 551 q 114 564 107 560 q 130 570 121 568 q 145 572 138 572 l 198 572 q 219 695 204 637 q 256 803 235 753 q 375 941 299 894 q 549 987 450 987 q 723 962 633 987 q 901 884 812 936 l 876 703 q 793 723 836 712 q 710 733 751 733 q 684 721 696 733 q 663 676 671 709 l 663 571 l 747 571 q 783 570 764 571 q 819 567 802 570 q 845 559 835 564 q 856 543 856 553 q 855 505 856 521 q 853 474 854 488 q 851 447 852 460 q 850 416 850 433 q 849 393 850 404 q 838 375 847 382 q 810 363 829 368 q 758 359 791 359 l 620 359 q 619 282 620 334 q 617 204 618 231 q 679 212 641 214 q 776 221 716 210 q 859 232 817 221 q 941 252 901 242 l 966 71 q 744 -7 877 18 q 492 -33 610 -33 q 455 -32 473 -33 q 419 -23 436 -31 q 140 -30 401 -15 z "},"":{"ha":829,"x_min":65,"x_max":764,"o":"m 388 241 q 312 250 350 241 q 237 286 275 260 l 184 235 q 175 223 180 229 q 165 214 170 217 q 153 210 159 210 q 139 217 146 210 q 124 229 131 224 q 111 239 117 234 q 99 248 105 243 q 84 260 92 253 q 76 273 79 264 q 77 284 74 281 q 113 320 95 302 q 149 355 132 338 q 111 402 127 377 q 85 454 95 428 q 70 506 75 480 q 65 553 65 532 q 90 688 65 621 q 159 806 114 755 q 138 831 148 819 q 121 852 129 843 q 105 873 113 863 q 96 889 98 882 q 97 902 94 896 q 105 913 99 907 q 119 925 111 919 q 133 940 128 932 q 151 958 138 947 q 164 961 157 962 q 177 955 170 960 q 189 944 183 951 q 201 930 195 937 q 224 900 213 914 q 248 872 236 886 q 292 887 269 882 q 340 892 315 892 q 358 891 349 892 q 376 890 368 891 q 380 891 378 891 q 385 891 383 891 q 452 890 422 891 q 506 886 481 889 q 551 876 530 882 q 591 857 572 869 q 615 887 603 872 q 642 920 628 903 q 654 934 648 927 q 667 945 661 941 q 680 950 673 949 q 692 946 686 951 q 709 927 705 935 q 723 913 714 920 q 744 888 739 899 q 735 860 750 878 q 718 839 727 850 q 701 817 711 829 q 679 790 690 804 q 743 692 723 746 q 764 563 764 637 q 747 451 764 507 q 691 346 730 395 l 684 336 q 711 304 698 320 q 738 271 724 288 q 739 259 741 268 q 730 247 736 251 q 716 236 722 241 q 703 227 709 231 q 690 218 696 222 q 674 206 683 213 q 660 200 666 200 q 648 204 654 200 q 638 214 643 208 q 629 227 634 220 l 595 268 q 545 253 571 258 q 493 245 519 248 q 439 242 466 242 q 388 241 413 241 m 291 549 q 292 540 291 548 q 298 520 294 532 q 309 495 302 508 q 329 470 317 481 q 358 451 341 458 q 399 443 375 443 q 453 451 430 443 q 491 473 475 460 q 516 503 507 487 q 532 534 526 519 q 539 561 537 549 q 541 578 541 572 q 540 587 541 577 q 536 610 540 596 q 524 642 532 625 q 500 673 516 659 q 459 697 484 688 q 399 707 435 707 q 365 702 384 707 q 330 681 347 696 q 302 638 313 665 q 290 566 290 610 q 290 558 290 562 q 291 549 290 554 z "},"":{"ha":1143,"x_min":53,"x_max":1093,"o":"m 229 319 q 189 319 209 319 q 152 320 168 319 q 125 326 136 321 q 115 339 115 330 q 115 369 115 355 q 115 395 115 382 q 114 421 115 408 q 114 450 114 434 q 125 461 114 456 q 149 467 137 467 l 205 467 q 161 552 182 509 q 123 639 140 596 q 113 663 119 648 q 98 697 106 678 q 82 736 90 716 q 67 775 74 757 q 57 808 61 793 q 53 831 53 823 q 61 845 53 838 q 82 860 69 852 q 110 872 95 867 q 138 882 124 878 q 194 898 171 890 q 228 908 217 906 q 258 914 241 911 q 294 920 275 917 q 332 928 313 924 q 371 937 352 932 q 375 938 373 937 q 378 938 376 938 q 380 939 380 939 q 404 935 394 939 q 420 924 413 931 q 434 907 428 918 q 446 885 439 897 q 450 866 447 876 q 457 845 454 855 q 464 826 460 835 q 468 812 467 818 q 480 777 473 797 q 495 733 487 756 q 512 687 503 711 q 528 640 520 663 q 568 528 547 586 q 633 685 603 612 q 658 747 646 716 q 682 806 671 779 q 701 856 692 834 q 712 889 709 878 q 718 906 715 899 q 725 920 721 914 q 735 929 728 926 q 751 932 741 932 q 804 927 773 932 q 868 915 834 923 q 936 897 901 907 q 1002 873 971 886 q 1056 848 1032 861 q 1093 821 1080 834 q 1088 784 1093 801 q 1076 751 1082 766 q 995 608 1036 678 q 913 467 954 538 l 941 467 q 969 466 954 467 q 995 464 983 466 q 1014 458 1006 462 q 1022 449 1022 455 q 1021 420 1022 432 q 1020 397 1021 408 q 1019 377 1019 387 q 1018 355 1018 367 q 1017 340 1018 347 q 1008 329 1015 334 q 988 322 1002 325 q 950 319 975 319 l 829 319 l 793 256 q 782 236 789 246 q 769 216 776 226 l 941 216 q 969 216 954 216 q 995 214 983 216 q 1014 208 1006 212 q 1022 199 1022 205 q 1021 170 1022 182 q 1020 147 1021 157 q 1019 127 1019 136 q 1018 106 1018 117 q 1017 91 1018 98 q 1008 79 1015 84 q 988 72 1002 75 q 950 69 975 69 l 755 69 l 755 -64 q 743 -70 745 -68 q 741 -74 741 -73 q 740 -70 740 -71 q 739 -66 740 -68 q 731 -70 733 -68 l 729 -72 q 717 -72 719 -73 q 715 -62 715 -70 q 652 -69 681 -68 q 602 -69 623 -69 q 594 -70 600 -69 q 582 -72 589 -71 q 570 -74 576 -73 q 564 -75 565 -75 q 534 -76 553 -76 q 493 -75 515 -76 q 448 -73 471 -75 q 406 -68 425 -71 q 374 -60 387 -65 q 361 -49 361 -56 q 359 -31 359 -43 q 359 -2 359 -18 q 359 32 359 14 q 359 69 359 51 l 229 69 q 189 69 209 69 q 152 70 168 68 q 125 75 136 71 q 115 89 115 79 q 115 119 115 106 q 115 145 115 132 q 114 171 115 157 q 114 200 114 184 q 125 211 114 205 q 149 216 137 216 l 347 216 q 322 264 336 235 q 300 319 309 292 l 297 319 q 295 319 295 319 q 293 318 294 318 q 289 319 290 318 l 229 319 z "},"":{"ha":500,"x_min":79,"x_max":427,"o":"m 419 108 q 417 -53 419 19 q 415 -114 416 -83 q 413 -169 414 -144 q 409 -212 411 -194 q 404 -234 407 -229 q 373 -235 391 -234 q 340 -236 355 -235 q 313 -238 324 -237 q 299 -239 301 -239 q 291 -239 308 -239 q 244 -240 274 -239 q 179 -241 214 -241 q 116 -241 144 -241 q 93 -227 100 -241 q 83 -193 86 -212 q 80 -155 80 -174 q 79 -129 80 -137 q 80 -77 79 -107 q 80 -13 80 -47 q 81 58 81 22 q 82 129 81 95 q 83 194 82 163 q 84 245 83 224 l 84 300 q 91 312 84 310 q 105 313 98 313 q 177 314 143 313 q 248 314 210 314 l 369 314 q 397 312 386 314 q 414 301 408 310 q 424 273 421 292 q 427 222 427 255 q 426 194 427 210 q 423 161 425 177 q 420 130 422 144 q 419 108 419 116 m 419 802 q 417 657 419 722 q 415 602 416 629 q 413 553 414 575 q 409 515 411 530 q 404 494 407 499 q 373 494 391 494 q 340 492 355 493 q 314 490 325 491 q 302 490 303 490 l 299 490 q 288 492 292 490 q 279 494 284 494 q 274 492 277 493 q 269 490 269 490 l 155 490 q 149 489 155 490 q 137 489 144 489 q 124 488 131 488 q 116 488 118 488 q 93 502 100 488 q 83 536 86 517 q 80 573 80 555 q 79 600 80 592 q 80 652 79 622 q 80 716 80 682 q 81 787 81 751 q 82 858 81 823 q 83 922 82 892 q 84 974 83 952 l 84 1029 q 91 1040 84 1039 q 105 1042 98 1042 q 177 1042 143 1042 q 248 1043 210 1043 q 260 1044 254 1043 q 277 1047 266 1046 q 305 1047 288 1048 q 349 1043 322 1047 q 359 1040 355 1038 q 369 1043 363 1041 q 397 1041 386 1043 q 414 1030 408 1039 q 424 1002 421 1021 q 427 951 427 984 q 426 914 427 935 q 423 871 425 892 q 420 832 422 850 q 419 802 419 813 z "},"":{"ha":821,"x_min":64,"x_max":764,"o":"m 754 387 q 722 326 743 355 q 669 274 701 298 q 716 220 699 250 q 734 152 734 191 q 732 121 734 135 q 725 92 730 107 q 677 17 709 51 q 604 -42 645 -18 q 516 -81 563 -66 q 427 -96 470 -95 l 244 -99 q 230 -95 241 -98 q 201 -90 218 -93 q 166 -84 184 -87 q 133 -77 149 -81 q 106 -67 117 -73 q 95 -57 96 -62 l 65 97 l 65 104 q 67 115 65 110 q 77 121 70 121 q 236 91 159 91 q 274 90 253 91 q 313 92 295 90 q 342 101 330 94 q 355 123 355 108 q 339 154 355 142 q 301 174 323 166 q 254 188 279 182 q 213 201 230 194 q 208 204 212 201 q 198 210 203 207 q 188 217 193 214 q 180 222 182 220 q 179 225 185 222 q 163 234 173 229 q 144 246 153 239 q 136 260 136 253 l 136 267 q 114 276 124 267 q 97 299 104 285 q 82 332 89 314 q 72 368 76 350 q 66 401 68 385 q 64 426 64 416 q 83 512 64 475 q 135 578 102 549 q 114 612 123 592 q 97 651 104 631 q 85 690 90 671 q 81 720 81 708 q 109 829 81 785 q 183 902 137 873 q 287 947 229 931 q 408 971 346 963 q 531 980 471 979 q 642 981 592 981 q 669 974 658 976 q 688 968 681 972 q 700 957 696 964 q 707 932 704 949 q 711 887 709 916 q 714 815 712 859 q 706 800 721 804 q 666 792 692 795 q 609 786 641 789 q 550 778 578 784 q 504 759 522 771 q 485 725 485 747 q 487 711 485 717 q 499 700 490 706 q 596 652 549 675 q 681 602 644 629 q 741 538 718 574 q 764 448 764 501 q 762 417 764 431 q 754 387 760 403 m 496 392 q 483 432 496 415 q 449 462 470 449 q 400 486 427 475 q 343 506 372 496 q 332 474 332 493 q 334 450 332 460 q 346 429 336 439 q 410 386 379 406 q 471 346 441 366 q 489 365 483 353 q 496 392 496 376 z "},"":{"ha":913,"x_min":81,"x_max":833,"o":"m 382 1177 q 395 1166 392 1177 q 397 1141 397 1156 q 397 1115 397 1129 q 396 1088 396 1100 q 396 1078 396 1084 q 397 1064 397 1072 q 397 1048 397 1056 q 397 1034 397 1040 q 398 1003 397 1018 q 399 972 399 988 q 395 947 399 959 q 378 935 391 936 l 102 935 l 92 943 l 83 987 l 83 1028 q 81 1055 83 1042 q 84 1082 79 1068 l 91 1125 q 90 1130 91 1127 q 90 1135 90 1133 q 97 1155 94 1147 q 104 1167 100 1163 q 114 1174 108 1172 q 130 1175 119 1175 l 274 1175 q 303 1178 292 1177 q 321 1179 314 1179 q 332 1179 328 1179 q 340 1177 336 1178 q 348 1176 344 1177 q 359 1175 352 1175 q 368 1175 363 1175 q 378 1177 372 1175 l 382 1177 m 816 1177 q 828 1166 825 1177 q 831 1141 831 1156 q 830 1115 831 1129 q 829 1088 829 1100 q 830 1078 829 1084 q 830 1064 830 1072 q 830 1048 830 1056 q 831 1034 831 1040 q 829 1017 831 1024 q 828 1004 828 1010 q 830 989 828 996 q 833 972 833 983 q 828 947 833 959 q 812 935 824 936 l 605 935 l 526 943 l 516 987 l 516 1028 q 516 1046 516 1038 q 513 1064 515 1053 q 512 1070 512 1067 q 511 1081 511 1074 q 511 1103 511 1089 q 510 1139 511 1116 q 509 1144 510 1141 q 509 1149 509 1147 q 519 1163 515 1158 q 528 1171 523 1168 q 542 1175 534 1174 q 563 1175 549 1175 l 707 1175 q 736 1178 725 1177 q 755 1179 747 1179 q 766 1179 762 1179 q 773 1177 770 1178 q 781 1176 777 1177 q 792 1175 785 1175 q 801 1175 796 1175 q 812 1177 806 1175 l 816 1177 z "},"":{"ha":1444,"x_min":57,"x_max":1387,"o":"m 751 444 q 758 360 751 394 q 777 306 765 327 q 806 276 789 286 q 844 267 823 267 q 915 286 876 267 q 991 331 953 305 l 1003 153 q 954 115 982 132 q 895 86 926 98 q 833 68 865 75 q 775 62 802 62 q 683 66 730 62 q 593 82 637 70 q 512 119 550 95 q 446 184 474 143 q 401 284 418 224 q 385 429 385 344 q 413 606 385 528 q 490 736 441 684 q 606 817 539 789 q 749 845 672 845 q 883 825 814 845 q 1022 764 952 804 l 1005 621 q 940 637 973 629 q 874 646 907 646 q 826 637 848 646 q 787 606 804 629 q 761 544 770 583 q 751 444 751 505 m 1190 458 q 1152 661 1190 575 q 1051 802 1114 747 q 905 885 987 858 q 735 911 823 911 q 621 898 678 911 q 511 857 564 884 q 413 789 458 829 q 333 698 367 749 q 280 583 299 646 q 260 446 260 519 q 298 243 260 330 q 398 99 336 156 q 539 13 460 41 q 704 -16 619 -16 q 823 -3 764 -16 q 936 37 882 10 q 1037 103 990 63 q 1117 195 1083 142 q 1171 313 1152 248 q 1190 458 1190 379 m 1387 472 q 1359 269 1387 361 q 1282 103 1331 177 q 1167 -27 1234 29 q 1024 -120 1101 -83 q 862 -175 947 -157 q 692 -194 777 -194 q 533 -176 612 -194 q 385 -124 455 -159 q 254 -36 314 -89 q 150 87 194 17 q 82 246 106 158 q 57 441 57 334 q 85 633 57 545 q 163 795 113 722 q 279 924 212 868 q 423 1018 346 980 q 584 1076 500 1056 q 751 1095 668 1095 q 912 1079 833 1095 q 1062 1029 991 1063 q 1192 945 1133 996 q 1295 825 1252 895 q 1362 668 1338 755 q 1387 472 1387 580 z "},"":{"ha":940,"x_min":66,"x_max":860,"o":"m 860 509 q 859 414 860 448 q 857 356 858 379 q 854 316 855 334 q 853 270 853 298 q 852 244 853 258 q 849 220 852 231 q 839 202 846 210 q 821 195 833 195 q 751 196 780 195 q 699 197 723 197 q 651 199 674 198 q 596 199 627 199 q 567 201 580 199 q 546 208 555 202 q 533 227 538 214 q 529 260 529 239 q 529 271 529 262 q 530 288 530 279 q 530 303 530 296 q 528 308 530 309 q 479 241 504 266 q 430 205 454 217 q 385 189 406 193 q 344 186 363 186 q 230 204 281 186 q 142 262 178 222 q 86 369 106 303 q 66 529 66 434 q 81 630 66 587 q 122 704 96 673 q 181 754 147 734 q 251 786 214 774 q 323 802 287 798 q 393 807 360 807 q 499 805 450 807 q 588 803 547 803 q 689 804 631 803 q 828 806 748 806 q 850 795 840 806 q 860 774 860 785 l 860 509 m 540 484 q 533 588 539 542 q 526 626 530 607 q 516 659 522 644 q 503 683 511 674 q 484 692 494 692 q 444 682 460 692 q 417 658 428 673 q 401 626 407 644 q 393 594 395 609 q 390 568 390 578 q 389 555 389 557 q 390 524 389 545 q 391 478 390 503 q 396 427 393 453 q 406 380 399 401 q 421 345 412 359 q 444 332 430 332 q 475 338 462 332 q 499 355 489 345 q 516 380 509 366 q 528 408 523 393 q 540 484 538 441 z "},"":{"ha":1145,"x_min":53,"x_max":1064,"o":"m 399 472 q 334 443 368 456 q 269 418 300 429 q 394 359 339 386 q 440 335 417 347 q 480 312 463 323 q 508 291 497 300 q 519 275 519 281 q 519 246 519 262 q 520 216 519 230 l 515 211 l 517 203 l 519 115 q 518 77 519 98 q 519 36 518 55 q 510 19 519 24 q 491 14 502 14 q 484 14 488 14 q 477 14 481 14 q 470 16 474 15 q 318 90 391 52 q 254 123 287 105 q 190 158 221 140 q 131 194 159 176 q 81 228 102 212 l 71 236 l 54 306 l 54 390 l 55 444 l 55 454 q 54 485 55 469 q 53 519 53 501 q 56 554 53 537 q 68 586 58 572 l 83 608 q 284 719 187 666 q 473 818 381 771 q 479 818 476 818 q 486 819 482 819 q 492 818 490 819 l 496 818 q 516 810 511 818 q 520 785 520 803 q 519 757 520 771 q 519 729 519 743 q 519 722 520 726 q 520 717 519 719 l 520 686 q 519 597 519 630 q 519 543 519 565 q 505 529 519 538 q 472 511 491 521 q 433 490 453 500 q 399 472 412 480 m 943 472 q 878 443 911 456 q 813 418 844 429 q 938 359 883 386 q 984 335 961 347 q 1024 312 1006 323 q 1052 291 1041 300 q 1063 275 1063 281 q 1063 246 1063 262 q 1064 216 1063 230 l 1059 211 l 1061 203 l 1063 115 q 1062 77 1063 98 q 1063 36 1062 55 q 1054 19 1063 24 q 1035 14 1046 14 q 1028 14 1031 14 q 1021 14 1025 14 q 1014 16 1018 15 q 891 78 952 46 q 837 106 865 92 q 781 136 809 121 q 726 166 753 151 q 677 195 700 181 l 612 235 l 597 390 l 599 444 l 599 454 q 598 485 599 469 q 597 519 597 501 q 595 539 597 528 q 596 563 594 551 q 604 586 597 574 q 627 608 611 598 q 719 664 670 636 q 819 718 768 691 q 921 769 870 744 q 1017 818 971 794 q 1023 818 1020 818 q 1029 819 1026 819 q 1036 818 1034 819 l 1040 818 q 1060 810 1055 818 q 1064 785 1064 803 q 1063 757 1064 771 q 1063 729 1063 743 q 1063 722 1064 726 q 1064 717 1063 719 l 1064 686 q 1063 597 1063 630 q 1063 543 1063 565 q 1049 529 1063 538 q 1016 511 1035 521 q 977 490 997 500 q 943 472 956 480 z "},"":{"ha":732,"x_min":31,"x_max":652,"o":"m 218 715 q 254 714 227 715 q 318 713 281 714 q 397 712 355 713 q 476 710 439 711 q 540 709 513 709 q 576 709 568 709 q 602 708 589 709 q 626 703 615 707 q 645 693 637 700 q 652 674 652 686 q 652 618 652 648 q 651 559 651 588 q 650 504 650 530 q 649 458 649 477 q 647 403 648 429 q 646 349 646 376 q 645 323 646 336 q 641 299 644 310 q 631 280 637 288 q 612 273 624 273 q 566 273 585 273 q 531 274 547 274 q 499 275 515 275 q 464 276 484 276 q 436 278 448 276 q 417 286 425 279 q 407 304 410 292 q 404 340 404 317 q 403 350 404 342 q 403 368 403 358 q 402 386 403 378 q 402 397 402 395 q 402 410 402 401 q 403 428 403 418 q 404 446 404 437 q 404 458 404 454 l 140 458 q 101 457 120 458 q 67 460 82 457 q 42 470 52 463 q 33 494 33 478 q 32 544 33 522 q 32 588 32 567 q 32 632 32 610 q 31 682 31 654 q 34 693 31 688 q 42 704 37 699 q 53 712 47 709 q 64 715 58 715 l 218 715 z "},"":{"ha":1444,"x_min":57,"x_max":1387,"o":"m 1190 458 q 1152 661 1190 575 q 1051 802 1114 747 q 905 885 987 858 q 735 911 823 911 q 621 898 678 911 q 511 857 564 884 q 413 789 458 829 q 333 698 367 749 q 280 583 299 646 q 260 446 260 519 q 298 243 260 330 q 398 99 336 156 q 539 13 460 41 q 704 -16 619 -16 q 823 -3 764 -16 q 936 37 882 10 q 1037 103 990 63 q 1117 195 1083 142 q 1171 313 1152 248 q 1190 458 1190 379 m 1387 472 q 1359 269 1387 361 q 1282 103 1331 177 q 1167 -27 1234 29 q 1024 -120 1101 -83 q 862 -175 947 -157 q 692 -194 777 -194 q 533 -176 612 -194 q 385 -124 455 -159 q 254 -36 314 -89 q 150 87 194 17 q 82 246 106 158 q 57 441 57 334 q 85 633 57 545 q 163 795 113 722 q 279 924 212 868 q 423 1018 346 980 q 584 1076 500 1056 q 751 1095 668 1095 q 912 1079 833 1095 q 1062 1029 991 1063 q 1192 945 1133 996 q 1295 825 1252 895 q 1362 668 1338 755 q 1387 472 1387 580 m 1045 184 q 1033 172 1043 180 q 1007 155 1022 164 q 975 137 992 146 q 943 121 958 127 q 917 110 928 114 q 905 109 907 106 q 863 154 882 132 q 826 204 845 177 q 786 266 807 231 q 736 348 765 300 q 734 349 736 349 q 728 348 732 349 q 724 347 725 347 q 723 315 724 336 q 722 270 723 294 q 721 221 722 246 q 720 175 721 195 q 716 141 718 155 q 712 128 715 128 q 706 129 709 128 q 701 130 703 130 q 617 123 658 126 q 532 121 576 121 q 516 121 526 121 q 497 121 507 121 q 480 122 488 121 q 473 122 473 122 l 440 133 l 437 140 q 436 152 437 140 q 433 180 435 163 q 430 219 432 197 q 427 263 429 241 q 424 305 426 285 q 422 340 422 326 q 417 400 420 369 q 414 462 414 432 q 415 472 414 464 q 416 490 416 480 q 417 507 416 499 q 418 517 418 515 q 417 525 418 519 q 416 537 416 530 q 415 549 416 543 q 414 556 414 555 q 415 583 414 571 q 416 607 416 595 q 418 634 417 619 q 418 669 418 648 q 418 680 418 672 q 418 695 418 687 q 418 711 418 703 q 418 722 418 718 q 414 728 414 725 q 422 757 414 747 q 441 773 430 768 q 463 780 452 779 q 480 782 474 782 q 695 777 604 782 q 850 762 786 772 q 955 734 914 751 q 1019 693 996 718 q 1050 636 1042 669 q 1059 561 1059 603 q 1048 499 1059 524 q 1024 457 1038 473 q 996 432 1010 441 q 973 418 981 423 q 987 388 977 405 q 1010 353 998 371 q 1036 316 1023 334 q 1061 282 1050 298 q 1081 253 1073 266 q 1091 235 1089 241 q 1096 222 1101 231 q 1078 205 1090 214 q 1045 184 1065 195 m 718 634 q 715 565 717 600 q 713 496 713 531 q 730 498 720 496 q 749 502 740 499 q 767 508 759 504 q 781 515 776 511 q 809 538 796 526 q 821 570 821 550 q 816 599 821 587 q 803 619 811 611 q 785 630 795 627 q 764 634 774 634 l 735 634 l 718 634 z "},"":{"ha":742,"x_min":79,"x_max":663,"o":"m 481 987 q 468 987 479 987 q 440 987 456 987 q 404 988 423 987 q 369 989 385 989 q 340 989 352 989 q 327 989 329 989 l 188 989 q 149 989 168 989 q 115 991 130 989 q 90 1002 100 994 q 81 1025 81 1010 q 80 1075 81 1053 q 80 1116 80 1096 q 80 1157 80 1136 q 79 1206 79 1178 q 82 1217 79 1211 q 91 1227 85 1223 q 101 1235 96 1232 q 112 1238 106 1238 l 266 1238 q 298 1238 273 1238 q 355 1237 322 1238 q 425 1235 388 1236 q 494 1234 462 1234 q 551 1233 527 1233 q 584 1232 576 1232 q 609 1231 596 1232 q 634 1227 623 1230 q 652 1217 645 1223 q 660 1198 660 1210 q 660 1165 660 1177 q 661 1143 661 1152 q 662 1128 661 1135 q 662 1112 662 1121 q 663 1091 663 1103 q 663 1059 663 1079 q 663 1034 663 1047 q 659 1009 662 1021 q 648 991 655 998 q 630 983 642 983 q 583 984 603 983 q 546 985 563 985 q 514 986 530 985 q 481 987 499 987 z "},"":{"ha":741,"x_min":61,"x_max":680,"o":"m 347 372 q 258 380 303 372 q 170 414 212 389 q 119 459 140 431 q 85 520 98 488 q 67 587 73 553 q 61 649 61 621 q 78 755 61 702 q 126 851 95 808 q 203 922 158 895 q 304 949 248 949 q 321 948 313 949 q 337 947 330 948 q 341 948 338 948 q 345 948 343 948 q 409 947 381 948 q 460 943 437 946 q 502 934 483 940 q 541 918 522 928 q 603 866 577 893 q 647 808 629 840 q 672 740 664 777 q 680 657 680 703 q 666 558 680 608 q 623 468 652 509 l 616 465 q 563 412 594 431 q 495 385 531 393 q 420 374 458 376 q 347 372 382 372 m 262 626 q 265 613 262 625 q 278 588 268 602 q 307 562 288 574 q 357 551 326 551 q 410 559 388 551 q 447 582 432 568 q 472 612 463 595 q 487 644 481 628 q 493 671 492 659 q 495 688 495 683 q 495 695 495 688 q 491 713 494 702 q 479 736 487 724 q 455 760 471 749 q 416 778 440 770 q 357 785 392 785 q 327 780 344 785 q 296 758 311 774 q 271 715 281 743 q 261 642 261 687 q 261 635 261 639 q 262 626 261 631 z "},"":{"ha":732,"x_min":56,"x_max":677,"o":"m 164 511 q 125 510 144 511 q 91 513 106 510 q 66 523 76 515 q 57 547 57 531 q 57 597 57 574 q 56 641 56 620 q 56 685 56 663 q 56 735 56 707 q 59 746 56 741 q 67 757 62 752 q 77 765 72 762 q 88 768 83 768 l 242 768 l 242 838 q 242 877 242 857 q 244 911 241 896 q 255 936 248 926 q 279 945 262 945 q 329 946 307 945 q 373 946 351 946 q 416 946 394 946 q 467 947 439 947 q 478 944 472 947 q 488 936 484 941 q 495 925 492 930 q 498 914 498 919 l 498 765 q 549 763 524 764 q 601 762 574 762 q 626 761 613 762 q 651 756 640 760 q 669 746 662 753 q 677 727 677 739 q 676 682 677 701 q 675 646 675 663 q 674 615 675 630 q 673 580 673 600 q 672 551 673 564 q 664 529 670 538 q 645 515 658 520 q 610 511 632 511 l 496 511 q 493 456 494 482 q 492 401 492 429 q 492 376 492 389 q 488 352 491 363 q 477 333 484 340 q 459 326 471 326 q 413 326 432 326 q 377 327 393 327 q 346 328 361 328 q 311 329 330 329 q 281 331 294 329 q 260 338 269 332 q 247 357 252 345 q 242 393 242 370 q 243 403 242 395 q 245 421 244 411 q 248 439 247 431 q 249 450 249 448 q 248 463 249 454 q 246 481 247 471 q 243 499 245 490 q 242 511 242 507 l 164 511 m 164 -16 q 125 -17 144 -16 q 91 -14 106 -17 q 66 -4 76 -12 q 57 20 57 4 q 57 70 57 47 q 56 114 56 93 q 56 158 56 136 q 56 208 56 180 q 59 219 56 214 q 67 230 62 225 q 77 238 72 235 q 88 241 83 241 l 404 241 q 506 238 460 241 q 601 235 553 235 q 626 234 613 235 q 651 229 640 233 q 669 219 662 226 q 677 200 677 212 q 676 155 677 174 q 675 119 675 136 q 674 88 675 103 q 673 53 673 73 q 672 24 673 37 q 664 2 670 11 q 645 -12 658 -7 q 610 -16 632 -16 l 164 -16 z "},"":{"ha":663,"x_min":68,"x_max":594,"o":"m 319 330 q 276 330 298 330 q 234 330 255 330 q 171 331 200 330 q 119 335 141 332 q 83 344 96 338 q 71 360 71 350 q 78 388 71 375 q 97 413 85 401 q 104 419 97 412 q 124 440 112 427 q 150 471 136 454 q 179 508 165 489 q 207 545 194 526 q 228 577 220 563 q 240 597 233 585 q 253 624 247 610 q 263 652 259 637 q 268 680 268 667 q 253 719 268 707 q 195 732 237 732 q 166 730 180 732 q 141 725 153 728 q 114 715 128 721 q 82 702 100 710 q 80 713 81 702 q 77 742 79 724 q 74 780 75 759 q 71 819 73 800 q 69 851 70 838 q 68 870 68 865 q 69 876 68 875 l 113 897 q 168 913 139 906 q 225 924 196 920 q 284 930 255 928 q 340 932 313 932 q 433 923 387 932 q 514 890 478 913 q 571 831 549 867 q 593 741 593 794 q 558 638 593 688 q 449 533 524 588 q 491 534 471 533 q 533 534 511 534 q 553 534 543 534 q 573 530 564 533 q 588 522 583 527 q 594 507 594 516 q 593 470 594 485 q 592 442 593 454 q 591 417 592 429 q 591 389 591 406 q 590 366 591 376 q 584 348 589 355 q 569 337 579 341 q 540 334 558 334 q 526 331 538 332 q 494 329 513 330 q 451 329 475 329 q 402 329 427 329 q 356 330 378 330 q 319 330 334 330 z "},"":{"ha":654,"x_min":62,"x_max":592,"o":"m 592 516 q 585 438 592 471 q 567 382 577 405 q 544 348 556 360 q 524 332 532 335 q 467 311 496 318 q 406 300 437 303 q 344 296 375 296 q 282 296 313 296 q 258 298 277 296 q 218 304 239 300 q 180 311 197 307 q 161 319 163 315 q 138 326 149 323 q 117 334 127 328 q 90 351 102 343 l 99 491 q 161 479 130 484 q 218 474 193 474 q 273 486 252 474 q 294 528 294 498 q 276 558 294 549 q 231 570 258 568 q 189 570 209 570 q 146 568 169 569 l 146 677 q 164 677 155 677 q 184 677 174 677 q 215 679 200 677 q 242 685 230 680 q 260 701 254 690 q 267 728 267 711 q 246 763 267 753 q 192 772 225 772 q 135 763 166 772 q 73 741 103 754 l 62 885 q 116 905 87 896 q 179 921 146 915 q 247 931 212 928 q 317 935 282 935 q 389 930 353 934 q 450 918 425 926 q 457 916 450 918 q 474 910 465 914 q 491 902 483 907 q 498 893 498 897 l 498 886 q 517 877 509 886 q 533 856 526 868 q 545 832 540 844 q 553 814 550 820 q 561 786 559 800 q 566 757 563 772 q 563 727 566 743 q 552 696 559 711 q 534 668 545 681 q 511 647 524 655 q 571 592 549 625 q 592 516 592 559 z "},"":{"ha":587,"x_min":64,"x_max":562,"o":"m 374 1069 q 349 1017 363 1048 q 322 957 336 986 q 295 907 308 928 q 272 886 282 886 q 245 886 260 886 q 220 885 231 886 l 211 890 l 205 886 l 165 886 q 128 886 146 886 q 90 885 109 885 q 68 898 73 885 q 64 926 64 911 q 67 999 64 962 q 76 1072 71 1035 q 87 1146 81 1109 q 96 1219 92 1183 q 118 1326 106 1275 q 146 1434 130 1377 l 157 1443 l 216 1453 q 306 1455 266 1453 q 382 1457 346 1457 l 390 1453 q 405 1454 397 1455 q 419 1455 414 1454 q 427 1453 422 1453 q 436 1451 432 1453 l 496 1447 l 505 1444 q 510 1445 509 1444 q 515 1446 512 1446 q 552 1435 543 1440 q 562 1419 562 1430 q 558 1408 563 1418 q 545 1382 553 1398 q 526 1348 536 1367 q 503 1310 515 1329 q 481 1273 492 1291 q 463 1242 471 1255 q 438 1199 449 1220 q 418 1156 428 1177 q 398 1113 408 1135 q 374 1069 387 1092 z "},"":{"ha":1080,"x_min":82,"x_max":1033,"o":"m 89 325 q 90 371 89 349 q 90 408 90 392 q 91 428 90 414 q 91 455 91 441 q 91 480 91 469 q 92 494 92 491 l 96 504 q 97 517 96 504 q 99 551 98 530 q 101 598 100 572 q 103 650 102 625 q 104 696 104 675 q 105 730 105 718 q 103 756 105 744 q 101 782 101 768 q 114 799 101 795 q 143 803 127 803 l 163 803 q 176 803 170 803 q 186 806 182 804 l 355 803 q 357 800 355 802 q 361 799 359 799 l 370 803 q 428 800 404 803 q 465 787 451 797 q 486 758 479 777 q 492 707 492 739 q 494 646 492 674 q 496 585 496 617 l 496 571 q 493 508 494 542 q 491 439 492 474 q 489 371 490 404 q 488 312 488 338 q 487 268 487 286 q 486 245 486 250 q 486 224 486 238 q 487 196 486 210 q 493 172 489 182 q 505 161 497 161 q 530 168 512 161 q 567 182 548 174 q 601 198 586 191 q 615 210 615 206 l 615 667 q 612 691 613 681 q 610 712 611 702 q 610 732 610 722 q 610 754 610 742 q 609 768 610 761 q 610 782 609 776 q 616 792 612 788 q 629 796 620 796 q 635 794 631 796 q 639 787 639 791 l 639 786 q 662 792 646 789 q 697 796 677 794 q 739 799 717 798 q 780 800 760 800 q 815 800 800 800 q 839 800 831 800 l 863 800 l 1010 796 q 1018 792 1016 793 q 1019 787 1019 791 q 1019 783 1019 785 q 1018 778 1018 780 q 1023 779 1020 778 q 1029 781 1027 781 q 1033 775 1033 781 q 1031 411 1033 591 q 1019 47 1029 231 q 1016 38 1019 43 q 1008 26 1013 32 q 998 16 1003 20 q 990 8 993 11 q 979 12 988 9 q 966 14 970 14 q 962 11 965 14 q 957 8 958 8 q 869 0 915 1 q 782 -1 824 -1 q 720 -1 751 -1 q 659 4 688 -1 q 647 18 651 8 q 639 38 642 28 q 633 55 635 47 q 626 62 630 62 q 609 58 618 62 q 591 47 600 54 q 574 33 583 41 q 558 20 566 26 q 518 2 540 9 q 477 -9 497 -5 q 478 -113 478 -58 q 479 -240 479 -168 q 475 -245 479 -245 q 469 -244 473 -245 q 464 -243 466 -243 q 465 -248 464 -245 q 465 -252 465 -250 q 464 -257 465 -256 q 456 -261 462 -258 l 336 -265 l 312 -265 q 289 -265 304 -265 q 253 -265 273 -265 q 212 -263 233 -264 q 170 -261 190 -262 q 135 -257 151 -259 q 112 -251 119 -254 l 112 -252 q 108 -259 112 -256 q 102 -261 104 -261 q 89 -257 93 -261 q 83 -247 85 -253 q 82 -233 82 -241 q 83 -219 83 -226 q 83 -197 83 -207 q 83 -177 83 -186 q 85 -156 84 -167 q 88 -132 86 -146 l 89 325 z "},"":{"ha":1124,"x_min":43,"x_max":1043,"o":"m 785 588 l 718 586 l 718 86 q 717 58 718 73 q 712 30 716 43 q 701 9 709 18 q 681 1 694 1 q 650 2 669 1 q 611 3 632 3 q 570 5 591 4 q 534 5 549 5 q 501 7 515 5 q 477 16 487 9 q 462 37 467 23 q 457 77 457 52 l 457 269 l 432 269 q 272 286 344 269 q 149 344 200 304 q 71 451 98 385 q 43 614 43 517 q 61 730 43 680 q 109 814 79 779 q 178 873 138 850 q 260 909 217 896 q 346 928 302 923 q 427 933 389 933 q 586 931 513 933 q 722 929 659 929 q 842 930 772 929 q 1007 932 912 932 q 1031 920 1020 932 q 1043 896 1043 909 l 1043 590 q 1042 446 1043 521 q 1040 301 1041 370 q 1037 175 1038 232 q 1036 86 1036 119 q 1035 58 1036 73 q 1030 30 1034 43 q 1019 9 1027 18 q 999 1 1012 1 q 922 2 956 1 q 861 3 888 2 q 828 4 842 3 q 804 13 814 6 q 789 35 794 20 q 784 74 784 49 l 784 218 l 785 588 z "},"":{"ha":531,"x_min":73,"x_max":456,"o":"m 454 355 q 448 340 456 345 q 427 335 440 336 q 397 336 414 334 q 365 337 380 337 q 352 337 361 337 q 333 336 343 336 q 314 335 323 336 q 302 336 305 335 q 225 338 258 337 q 165 337 193 338 q 143 335 155 336 q 118 335 130 334 q 97 340 106 336 q 87 355 88 345 q 83 415 85 377 q 81 493 82 452 q 79 571 80 534 q 73 631 77 609 l 82 641 l 126 651 l 208 651 q 234 653 222 651 q 257 655 245 655 l 300 651 q 321 649 308 650 q 348 647 334 648 q 375 645 361 646 q 398 644 389 644 q 417 636 411 640 q 427 629 424 633 q 433 618 431 625 q 439 604 435 612 q 444 578 441 597 q 448 536 446 559 q 451 492 450 513 q 452 459 452 471 q 456 417 456 429 q 455 397 456 404 q 453 382 454 390 q 454 355 452 375 z "},"":{"ha":549,"x_min":53,"x_max":511,"o":"m 125 -107 l 144 12 l 151 24 l 300 24 l 282 -65 q 393 -95 349 -77 q 463 -137 437 -114 q 500 -187 489 -160 q 511 -242 511 -214 q 498 -317 511 -279 q 451 -386 486 -355 q 357 -436 417 -417 q 201 -456 296 -456 q 176 -455 195 -456 q 134 -450 157 -454 q 89 -438 111 -446 q 53 -413 66 -429 l 66 -338 q 75 -314 70 -326 q 82 -298 80 -302 q 177 -319 127 -319 q 221 -310 203 -319 q 249 -288 239 -301 q 263 -258 259 -274 q 268 -226 268 -241 q 244 -171 268 -190 q 181 -151 220 -151 q 122 -162 153 -151 l 125 -107 z "},"":{"ha":540,"x_min":51,"x_max":460,"o":"m 460 682 l 460 576 q 458 499 460 534 q 455 428 455 464 q 454 409 455 418 q 451 390 454 399 q 444 376 449 382 q 430 371 439 371 q 358 371 387 371 q 303 372 328 372 q 255 373 279 373 q 198 374 231 374 q 176 375 186 374 q 160 380 166 376 q 150 395 153 385 q 146 422 146 405 q 147 429 146 423 q 149 443 148 435 q 151 456 150 450 q 151 465 151 463 q 151 475 151 467 q 149 490 150 482 q 147 504 148 498 q 146 511 146 510 q 146 545 146 525 q 146 587 146 565 q 145 631 146 609 q 145 670 145 652 q 144 697 144 687 q 142 708 143 708 q 131 700 138 708 q 115 683 124 692 q 96 666 106 673 q 74 658 85 658 q 58 664 64 658 q 51 676 51 670 l 51 856 q 63 866 51 861 q 98 888 75 872 q 138 909 124 905 q 159 913 151 913 q 232 913 198 913 q 298 912 265 913 q 363 912 330 912 q 435 911 397 911 q 452 904 444 911 q 460 888 460 896 l 460 682 z "},"":{"ha":1040,"x_min":49,"x_max":592,"o":"m 265 185 q 227 189 246 185 q 189 199 208 193 l 183 199 q 177 200 179 199 q 171 202 174 200 q 161 208 167 204 q 144 218 155 212 q 100 258 118 233 q 71 312 82 283 q 54 370 59 340 q 49 424 49 400 q 56 487 49 455 q 75 547 63 518 q 107 602 88 576 q 149 646 125 627 q 201 676 173 665 q 263 687 230 687 q 277 687 270 687 q 292 686 284 687 q 294 686 293 686 q 297 686 296 686 q 354 686 330 686 q 399 682 379 685 q 436 674 419 679 q 469 659 453 668 q 524 615 501 638 q 562 564 547 592 q 585 504 577 537 q 592 432 592 471 q 583 357 592 394 q 555 287 573 320 q 552 281 554 285 q 548 274 550 277 q 544 268 545 271 q 541 265 542 265 l 536 262 q 488 216 516 233 q 429 192 461 200 q 364 183 398 185 q 300 182 331 182 q 282 183 291 182 q 265 185 274 185 m 286 390 q 286 380 286 388 q 287 360 287 372 q 289 336 288 349 q 290 311 290 323 q 292 291 291 299 q 294 279 293 282 l 303 248 q 308 244 304 245 q 314 242 311 242 q 326 251 321 242 q 335 275 331 260 q 342 308 339 289 q 347 348 345 327 q 350 388 349 368 q 352 426 351 408 q 353 456 353 443 q 353 474 353 469 q 353 481 353 473 q 353 502 353 489 q 351 531 352 516 q 347 561 349 547 q 340 584 344 574 q 330 593 336 593 q 314 580 322 593 q 303 537 307 568 l 286 406 l 286 390 z "},"":{"ha":1145,"x_min":81,"x_max":1093,"o":"m 746 472 q 713 490 733 480 q 673 511 692 500 q 641 529 654 521 q 627 543 627 538 q 626 597 627 565 q 625 686 626 630 l 625 717 q 626 722 627 719 q 627 729 625 726 q 626 757 627 743 q 625 785 625 771 q 630 810 625 803 q 649 818 634 818 l 653 818 q 660 819 655 819 q 666 818 663 819 q 672 818 669 818 q 861 719 764 771 q 1063 608 958 666 l 1078 586 q 1090 554 1087 572 q 1093 519 1093 537 q 1092 485 1093 501 q 1090 454 1090 469 l 1090 444 l 1092 390 l 1092 306 l 1075 236 l 1064 228 q 1015 194 1042 212 q 955 158 987 176 q 891 123 924 140 q 827 90 858 105 q 675 16 754 52 q 668 14 671 15 q 661 14 665 14 q 654 14 658 14 q 635 19 644 14 q 627 36 627 24 q 627 77 627 55 q 627 115 627 98 l 628 203 l 631 211 l 625 216 q 627 246 627 230 q 627 275 627 262 q 637 291 627 281 q 666 312 648 300 q 705 335 683 323 q 751 359 728 347 q 876 418 806 386 q 811 443 845 429 q 746 472 778 456 m 202 472 q 169 490 189 480 q 130 511 149 500 q 97 529 111 521 q 83 543 83 538 q 82 597 83 565 q 81 686 82 630 l 81 717 q 82 722 83 719 q 83 729 81 726 q 82 757 83 743 q 81 785 81 771 q 86 810 81 803 q 105 818 90 818 l 109 818 q 116 819 111 819 q 122 818 119 819 q 128 818 125 818 q 224 769 174 794 q 326 718 275 744 q 426 664 377 691 q 519 608 475 636 q 541 586 534 598 q 550 563 548 574 q 550 539 551 551 q 549 519 549 528 q 548 485 549 501 q 547 454 547 469 l 547 444 l 548 390 l 534 235 l 469 195 q 419 166 446 181 q 365 136 393 151 q 308 106 336 121 q 254 78 280 92 q 132 16 193 46 q 124 14 127 15 q 117 14 121 14 q 111 14 114 14 q 91 19 100 14 q 83 36 83 24 q 83 77 83 55 q 83 115 83 98 l 84 203 l 87 211 l 81 216 q 83 246 83 230 q 83 275 83 262 q 94 291 83 281 q 122 312 104 300 q 161 335 139 323 q 208 359 184 347 q 332 418 262 386 q 268 443 301 429 q 202 472 234 456 z "},"":{"ha":1674,"x_min":51,"x_max":1628,"o":"m 460 682 q 459 602 460 637 q 457 537 458 567 q 456 482 456 508 q 455 428 455 456 q 454 409 455 418 q 451 390 454 399 q 444 376 449 382 q 430 371 439 371 q 358 371 387 371 q 303 372 328 372 q 255 373 279 373 q 198 374 231 374 q 176 375 186 374 q 160 380 166 376 q 150 395 153 385 q 146 422 146 405 q 147 429 146 423 q 149 443 148 435 q 151 456 150 450 q 151 465 151 463 q 151 475 151 467 q 149 490 150 482 q 147 504 148 498 q 146 511 146 510 q 146 545 146 525 q 146 587 146 565 q 145 631 146 609 q 145 670 145 652 q 144 697 144 687 q 142 708 143 708 q 131 700 138 708 q 115 683 124 692 q 96 666 106 673 q 74 658 85 658 q 58 664 64 658 q 51 676 51 670 l 51 856 q 63 866 51 861 q 98 888 75 872 q 138 909 124 905 q 159 913 151 913 q 232 913 198 913 q 298 912 265 913 q 363 912 330 912 q 435 911 397 911 q 452 904 444 911 q 460 888 460 896 l 460 682 m 901 277 q 873 182 886 228 q 849 99 861 137 q 827 34 838 62 q 805 -7 816 6 q 778 -8 793 -7 q 749 -10 763 -9 q 726 -12 736 -11 q 716 -12 717 -12 l 712 -12 q 700 -9 703 -12 q 691 -7 696 -7 q 685 -9 688 -7 q 679 -12 679 -12 l 542 -12 q 530 -14 541 -13 q 507 -15 519 -14 q 482 -15 494 -15 q 466 -16 470 -16 q 446 -3 451 -16 q 440 26 440 9 q 442 51 440 38 q 446 76 444 64 q 451 97 448 87 q 454 113 453 107 q 479 201 466 156 q 507 292 493 246 q 535 382 521 337 q 562 471 549 427 l 703 924 q 706 927 703 925 q 711 932 708 930 q 716 936 713 934 q 718 939 718 937 q 724 938 723 939 q 730 937 726 937 q 773 942 751 937 q 819 946 795 946 q 865 946 838 946 q 919 946 892 947 q 967 944 946 946 q 994 939 988 943 q 1009 938 1004 938 q 1019 937 1015 937 q 1028 938 1025 937 q 1041 939 1030 939 q 1051 925 1047 939 q 1058 891 1055 911 q 1063 845 1061 870 q 1064 799 1064 821 q 1063 768 1064 782 q 1061 747 1062 755 l 1024 650 q 1011 614 1017 631 q 999 582 1004 596 q 991 559 994 568 q 988 550 988 551 q 981 529 988 549 q 965 479 975 509 q 944 414 956 449 q 924 350 933 380 q 907 299 914 319 q 901 277 901 278 m 1170 627 q 1196 627 1180 627 q 1230 626 1213 627 q 1262 625 1246 626 q 1286 625 1278 625 q 1302 629 1292 628 q 1319 629 1313 629 q 1357 628 1339 629 q 1397 627 1375 627 q 1399 627 1398 627 q 1400 628 1400 627 q 1421 627 1411 628 q 1442 627 1431 627 q 1445 627 1443 627 q 1450 627 1447 627 q 1456 628 1453 627 q 1463 627 1459 628 q 1468 627 1467 627 l 1474 627 q 1498 626 1485 627 q 1520 625 1512 625 q 1529 618 1527 625 q 1531 597 1531 610 q 1530 561 1531 582 q 1528 519 1528 541 q 1529 496 1528 507 q 1531 475 1531 486 q 1528 418 1531 465 q 1526 279 1526 371 l 1526 261 l 1594 261 q 1613 250 1607 261 q 1623 223 1620 239 q 1627 192 1626 208 q 1628 165 1628 175 q 1627 151 1628 161 q 1626 130 1627 141 q 1625 110 1626 119 q 1625 101 1625 101 q 1609 93 1622 95 q 1582 91 1597 91 q 1551 91 1567 90 q 1525 92 1535 92 l 1522 76 q 1521 42 1521 58 q 1520 16 1521 26 q 1515 -1 1519 5 q 1499 -7 1510 -7 q 1498 -6 1499 -7 q 1496 -5 1497 -5 q 1489 -7 1493 -5 l 1485 -8 q 1466 -7 1470 -8 q 1454 -5 1461 -5 q 1451 -6 1453 -5 q 1449 -8 1449 -7 l 1386 -8 q 1379 -9 1385 -8 q 1365 -13 1373 -11 q 1351 -16 1358 -14 q 1341 -17 1343 -17 q 1328 -8 1332 -17 q 1322 13 1323 1 q 1320 36 1320 24 q 1319 52 1320 47 l 1317 87 l 1313 87 q 1178 87 1244 87 q 1038 85 1112 87 q 1003 93 1010 86 q 995 104 995 100 q 995 155 995 135 q 996 190 995 175 q 999 217 997 205 q 1004 245 1000 230 q 1015 283 1008 261 q 1031 338 1021 305 q 1036 352 1030 338 q 1052 391 1042 367 q 1074 444 1061 414 q 1101 505 1087 474 q 1128 565 1114 536 q 1154 614 1142 593 q 1161 621 1157 618 q 1170 627 1166 624 m 1215 263 q 1260 263 1236 263 q 1308 262 1284 262 l 1308 515 q 1284 450 1297 486 q 1258 379 1271 414 q 1234 313 1245 344 q 1215 263 1222 282 z "},"":{"ha":1640,"x_min":50,"x_max":1589,"o":"m 900 277 q 873 182 886 228 q 848 99 860 137 q 826 34 837 62 q 804 -7 815 6 q 777 -8 792 -7 q 749 -10 762 -9 q 726 -12 735 -11 q 715 -12 716 -12 l 711 -12 q 699 -9 703 -12 q 690 -7 696 -7 q 684 -9 687 -7 q 678 -12 678 -12 l 541 -12 q 529 -14 540 -13 q 506 -15 519 -14 q 481 -15 493 -15 q 465 -16 469 -16 q 445 -3 450 -16 q 439 26 439 9 q 441 51 439 38 q 445 76 443 64 q 450 97 448 87 q 454 113 452 107 q 479 201 465 156 q 506 292 492 246 q 534 382 520 337 q 562 471 549 427 l 703 924 q 705 927 703 925 q 710 932 707 930 q 715 936 713 934 q 718 939 718 937 q 724 938 722 939 q 729 937 725 937 q 772 942 750 937 q 818 946 794 946 q 864 946 837 946 q 919 946 892 947 q 966 944 945 946 q 994 939 987 943 q 1009 938 1003 938 q 1018 937 1015 937 q 1027 938 1025 937 q 1040 939 1029 939 q 1050 925 1046 939 q 1058 891 1055 911 q 1062 845 1061 870 q 1063 799 1063 821 q 1062 768 1063 782 q 1060 747 1061 755 l 1023 650 q 1010 614 1017 631 q 999 582 1004 596 q 990 559 994 568 q 987 550 987 551 q 980 529 987 549 q 964 479 974 509 q 944 414 955 449 q 923 350 932 380 q 907 299 913 319 q 900 277 900 278 m 1314 -1 q 1271 -1 1293 -1 q 1229 -1 1250 -1 q 1165 0 1195 -1 q 1114 4 1136 1 q 1078 13 1091 7 q 1065 29 1065 19 q 1073 57 1065 44 q 1092 82 1080 70 q 1101 90 1093 82 q 1121 112 1109 98 q 1147 143 1133 125 q 1176 178 1162 160 q 1202 214 1190 197 q 1223 246 1215 232 q 1235 267 1228 254 q 1248 293 1242 279 q 1258 321 1254 307 q 1263 349 1263 336 q 1247 388 1263 376 q 1190 401 1232 401 q 1161 399 1175 401 q 1136 394 1148 397 q 1109 385 1123 390 q 1077 371 1095 379 q 1075 382 1076 371 q 1072 411 1074 393 q 1069 449 1070 428 q 1066 488 1067 469 q 1064 520 1065 507 q 1063 539 1063 534 q 1064 545 1063 544 l 1108 566 q 1162 582 1134 575 q 1220 593 1191 589 q 1279 600 1250 597 q 1335 602 1308 602 q 1428 592 1382 602 q 1509 559 1473 582 q 1566 500 1544 536 q 1588 410 1588 463 q 1553 307 1588 357 q 1444 202 1518 257 q 1486 203 1466 202 q 1528 203 1506 203 q 1548 203 1537 203 q 1568 199 1559 202 q 1583 191 1577 196 q 1589 176 1589 185 q 1588 139 1589 154 q 1587 111 1588 123 q 1586 86 1587 98 q 1586 58 1586 75 q 1584 27 1586 39 q 1571 9 1583 16 q 1531 0 1558 3 q 1451 -2 1503 -2 q 1414 -2 1433 -2 q 1377 -1 1395 -1 q 1342 -1 1358 -1 q 1314 -1 1326 -1 m 460 682 q 459 602 460 637 q 457 537 458 567 q 455 482 456 508 q 454 428 454 456 q 454 409 454 418 q 451 390 453 399 q 443 376 448 382 q 429 371 438 371 q 357 371 387 371 q 303 372 328 372 q 254 373 278 373 q 197 374 230 374 q 175 375 185 374 q 159 380 165 376 q 149 395 153 385 q 146 422 146 405 q 146 429 146 423 q 148 443 147 435 q 150 456 149 450 q 151 465 151 463 q 150 475 151 467 q 148 490 149 482 q 146 504 147 498 q 146 511 146 510 q 145 545 145 525 q 145 587 145 565 q 145 631 145 609 q 144 670 144 652 q 143 697 144 687 q 142 708 142 708 q 130 700 137 708 q 115 683 123 692 q 95 666 106 673 q 73 658 85 658 q 57 664 64 658 q 50 676 50 670 l 50 856 q 62 866 50 861 q 98 888 74 872 q 137 909 123 905 q 158 913 151 913 q 231 913 197 913 q 297 912 264 913 q 363 912 330 912 q 435 911 396 911 q 452 904 444 911 q 460 888 460 896 l 460 682 z "},"":{"ha":1792,"x_min":51,"x_max":1744,"o":"m 1005 277 q 978 182 991 228 q 954 99 965 137 q 931 34 942 62 q 909 -7 920 6 q 882 -8 897 -7 q 854 -10 867 -9 q 831 -12 840 -11 q 821 -12 821 -12 l 817 -12 q 804 -9 808 -12 q 795 -7 801 -7 q 789 -9 792 -7 q 783 -12 783 -12 l 646 -12 q 634 -14 645 -13 q 611 -15 624 -14 q 586 -15 598 -15 q 570 -16 574 -16 q 550 -3 555 -16 q 545 26 545 9 q 546 51 545 38 q 550 76 548 64 q 555 97 553 87 q 559 113 557 107 q 584 201 570 156 q 611 292 597 246 q 640 382 625 337 q 667 471 654 427 l 808 924 q 810 927 808 925 q 815 932 812 930 q 820 936 818 934 q 823 939 823 937 q 829 938 827 939 q 834 937 830 937 q 877 942 855 937 q 923 946 899 946 q 960 946 939 946 q 1005 947 982 947 q 1064 945 1038 947 q 1099 939 1091 944 q 1114 938 1108 938 q 1123 937 1120 937 q 1132 938 1130 937 q 1145 939 1135 939 q 1156 925 1152 939 q 1163 891 1160 911 q 1167 845 1166 870 q 1168 799 1168 821 q 1167 768 1168 782 q 1165 747 1166 755 l 1128 650 q 1115 614 1122 631 q 1104 582 1109 596 q 1096 559 1099 568 q 1093 550 1093 551 q 1085 529 1092 549 q 1069 479 1079 509 q 1049 414 1060 449 q 1028 350 1038 380 q 1012 299 1019 319 q 1005 277 1005 278 m 581 516 q 573 438 581 471 q 555 382 566 405 q 533 348 545 360 q 513 332 521 335 q 455 311 485 318 q 395 300 426 303 q 332 296 363 296 q 271 296 301 296 q 247 298 265 296 q 207 304 228 300 q 169 311 186 307 q 149 319 151 315 q 114 332 130 326 q 78 351 98 338 l 87 491 q 150 479 118 484 q 207 474 181 474 q 261 486 240 474 q 282 528 282 498 q 264 558 282 549 q 219 570 247 568 q 177 570 197 570 q 135 568 157 569 l 134 677 q 153 677 144 677 q 172 677 162 677 q 203 679 189 677 q 230 685 218 680 q 249 701 242 690 q 256 728 256 711 q 235 763 256 753 q 180 772 214 772 q 123 763 155 772 q 61 741 92 754 l 51 885 q 105 905 75 896 q 168 921 134 915 q 236 931 201 928 q 306 935 271 935 q 377 930 342 934 q 439 918 413 926 q 449 915 441 917 q 466 908 457 912 q 480 899 474 905 q 487 886 487 894 q 506 877 497 886 q 522 856 515 868 q 534 832 529 844 q 541 814 538 820 q 549 786 547 800 q 555 757 551 772 q 551 727 555 743 q 540 696 547 711 q 523 668 533 681 q 499 647 512 655 q 559 592 538 625 q 581 516 581 559 m 1253 633 q 1282 632 1263 633 q 1319 632 1300 632 q 1355 631 1338 631 q 1382 630 1373 630 q 1399 634 1388 633 q 1415 635 1409 635 q 1453 633 1435 635 q 1493 632 1472 632 q 1495 633 1494 633 q 1497 633 1496 633 q 1517 633 1507 633 q 1539 632 1527 632 q 1546 632 1540 632 q 1557 633 1551 632 q 1573 633 1565 633 q 1599 632 1582 633 q 1630 631 1616 631 q 1638 623 1636 631 q 1640 602 1640 616 q 1639 567 1640 587 q 1637 525 1637 547 q 1637 503 1637 508 q 1638 499 1638 498 q 1639 503 1638 500 q 1640 504 1639 506 q 1641 493 1640 503 q 1642 459 1641 483 q 1642 393 1642 435 q 1643 284 1643 351 l 1643 267 l 1711 267 q 1730 255 1723 267 q 1740 229 1737 244 q 1744 197 1743 214 q 1744 170 1744 180 q 1744 157 1744 167 q 1743 135 1744 146 q 1742 115 1742 124 q 1742 106 1742 106 q 1724 98 1737 100 q 1692 96 1710 96 q 1665 97 1678 96 q 1641 97 1651 97 l 1639 81 q 1638 47 1638 63 q 1637 21 1638 32 q 1631 4 1636 10 q 1616 -2 1627 -2 q 1615 -1 1615 -2 q 1613 0 1614 0 q 1606 -1 1610 0 l 1602 -3 q 1582 -1 1587 -3 q 1571 0 1577 0 l 1568 -1 l 1565 -3 l 1482 -3 q 1475 -4 1482 -3 q 1461 -7 1469 -5 q 1447 -10 1454 -9 q 1437 -12 1440 -12 q 1424 -3 1428 -12 q 1418 18 1419 6 q 1416 41 1417 30 q 1415 58 1416 52 l 1413 93 l 1409 93 q 1274 93 1340 93 q 1135 90 1208 92 q 1099 98 1107 92 q 1091 110 1091 105 q 1091 160 1091 140 q 1092 195 1091 180 q 1095 223 1093 210 q 1101 251 1097 235 q 1111 289 1105 267 q 1127 344 1118 311 q 1132 358 1126 343 q 1145 396 1137 372 q 1166 450 1154 420 q 1190 510 1177 479 q 1214 570 1202 541 q 1236 620 1226 599 q 1243 626 1239 623 q 1253 633 1248 629 m 1311 269 q 1356 268 1333 269 q 1404 268 1380 268 l 1404 520 q 1380 456 1394 492 q 1354 385 1367 420 q 1330 318 1341 349 q 1311 269 1318 288 z "},"":{"ha":851,"x_min":145,"x_max":817,"o":"m 475 589 q 514 588 494 589 q 551 587 534 587 q 568 589 562 587 l 706 589 q 734 580 724 589 q 749 554 744 571 q 757 514 755 538 q 758 460 758 490 q 758 419 758 440 q 758 383 758 399 q 748 337 758 355 q 723 307 739 319 q 687 285 707 294 q 643 265 666 275 q 595 241 619 254 q 548 206 570 227 q 536 197 543 203 q 523 185 529 191 q 513 171 517 178 q 509 158 509 164 q 514 137 509 145 q 533 124 519 129 q 574 117 548 119 q 643 115 601 115 q 723 119 682 115 q 801 133 764 123 q 804 134 802 134 q 813 127 811 134 q 816 110 816 120 q 814 82 816 98 q 811 54 812 67 q 806 -32 809 -1 q 799 -79 804 -64 q 787 -99 794 -95 q 768 -104 779 -103 q 613 -108 690 -108 q 491 -103 551 -108 q 380 -88 432 -99 q 285 -57 328 -77 q 211 -8 242 -38 q 162 64 180 22 q 145 162 145 106 q 161 226 145 197 q 202 278 177 254 q 260 322 228 302 q 326 362 293 343 q 389 400 359 381 q 442 439 420 418 l 442 459 q 440 500 441 480 q 439 535 439 517 q 439 564 439 553 q 442 583 439 576 q 454 589 445 589 l 475 589 m 388 1003 q 389 993 389 998 q 389 985 389 988 q 388 974 389 978 q 387 965 387 969 q 386 958 387 962 q 385 947 385 954 q 386 928 385 939 q 389 899 387 917 q 390 866 389 888 q 391 821 390 844 q 395 779 392 798 q 403 755 398 760 q 405 739 403 745 q 411 729 406 733 q 423 722 415 725 q 444 714 431 718 q 448 715 446 714 q 453 716 451 716 l 463 713 l 496 709 q 505 708 501 708 q 514 705 510 707 q 529 706 520 706 q 542 707 538 705 l 551 703 l 585 703 q 608 705 596 703 q 633 707 620 707 l 715 707 l 760 718 l 768 727 q 763 787 764 749 q 760 865 761 825 q 758 944 759 906 q 754 1003 757 981 q 742 1020 753 1016 q 715 1024 730 1024 q 676 1022 692 1024 q 642 1021 661 1021 q 592 1022 619 1021 q 530 1023 566 1023 q 516 1023 524 1023 q 501 1022 509 1023 q 486 1022 492 1022 q 477 1021 479 1021 q 450 1022 464 1021 q 423 1023 435 1023 q 397 1021 408 1023 q 387 1007 387 1018 q 388 1005 387 1006 q 388 1003 388 1004 z "},"":{"ha":1265,"x_min":76,"x_max":1199,"o":"m 485 925 q 496 925 486 925 q 522 926 507 926 q 555 928 537 927 q 587 929 572 928 q 612 931 602 930 q 621 932 621 931 q 644 932 625 932 q 691 932 664 932 q 749 932 718 932 q 807 932 780 932 q 852 929 833 931 q 873 925 871 928 q 911 928 893 925 q 949 932 929 932 q 965 928 957 932 q 982 924 973 924 q 988 924 986 924 q 994 925 991 925 q 1003 918 998 923 q 1008 909 1008 913 l 1105 471 q 1148 298 1127 387 q 1186 126 1168 210 q 1190 108 1187 120 q 1195 82 1193 96 q 1199 53 1198 68 q 1199 26 1200 39 q 1191 6 1197 14 q 1175 -1 1185 -1 q 1156 -1 1170 -1 q 1125 -1 1143 -1 q 1089 0 1107 -1 q 1054 0 1070 0 q 1027 1 1038 1 q 1015 1 1016 1 l 928 1 q 926 5 928 3 q 913 7 924 7 q 911 4 912 7 q 908 1 910 1 l 904 1 q 892 2 903 1 q 865 4 881 3 q 831 6 849 5 q 800 7 813 7 q 780 67 789 24 q 758 170 770 111 q 722 166 742 167 q 682 165 703 165 q 639 165 661 165 q 598 165 617 165 q 577 66 587 109 q 558 7 568 24 q 546 4 553 7 q 537 1 538 1 l 533 1 q 522 4 526 1 q 514 7 517 7 q 451 5 478 6 q 428 4 439 4 q 408 3 417 3 q 394 2 399 2 q 389 1 389 1 l 260 1 q 248 1 258 1 q 221 0 237 1 q 186 0 205 0 q 150 -1 167 -1 q 119 -1 132 -1 q 100 -1 105 -1 q 83 6 89 -1 q 76 26 78 14 q 76 53 75 39 q 80 82 77 68 q 85 108 83 96 q 89 126 87 120 q 127 298 106 210 q 170 471 148 387 l 267 909 q 271 918 267 913 q 281 925 276 923 q 287 924 284 925 q 293 924 289 924 q 330 928 311 924 q 368 932 349 932 q 425 928 397 932 q 485 925 452 925 m 675 689 q 672 670 675 688 q 664 624 669 652 q 652 558 659 595 q 639 484 646 522 q 626 409 633 446 q 615 343 620 372 l 686 343 q 691 346 688 345 q 696 347 694 347 l 699 347 q 723 344 712 347 q 743 339 733 341 q 732 405 738 368 q 719 480 726 441 q 706 556 712 519 q 694 623 699 593 q 686 670 689 652 q 683 689 683 688 q 682 694 682 692 q 681 701 681 697 q 679 710 680 705 q 677 701 677 705 q 675 694 676 697 q 675 689 675 692 m 579 1206 q 555 1254 566 1231 q 535 1301 545 1278 q 514 1347 525 1324 q 490 1393 504 1369 q 472 1424 482 1406 q 450 1461 461 1442 q 427 1499 438 1480 q 408 1533 416 1518 q 395 1559 399 1549 q 391 1571 390 1569 q 400 1586 391 1581 q 437 1597 410 1591 q 443 1596 441 1597 q 448 1596 444 1596 l 457 1598 l 517 1603 q 526 1604 521 1604 q 534 1607 530 1605 q 548 1606 539 1605 q 563 1604 556 1606 l 571 1608 q 647 1606 607 1608 q 736 1604 687 1604 l 796 1594 l 807 1585 q 834 1477 823 1528 q 857 1371 846 1426 q 866 1297 861 1334 q 877 1223 871 1260 q 885 1150 882 1186 q 889 1078 889 1114 q 885 1049 889 1063 q 863 1036 880 1036 q 825 1037 844 1036 q 787 1038 806 1038 l 747 1038 l 742 1042 l 732 1036 q 707 1038 722 1038 q 681 1038 693 1038 q 658 1057 671 1038 q 631 1103 645 1076 q 604 1159 617 1130 q 579 1206 590 1187 z "},"":{"ha":1265,"x_min":76,"x_max":1199,"o":"m 485 925 q 496 925 486 925 q 522 926 507 926 q 555 928 537 927 q 587 929 572 928 q 612 931 602 930 q 621 932 621 931 q 644 932 625 932 q 691 932 664 932 q 749 932 718 932 q 807 932 780 932 q 852 929 833 931 q 873 925 871 928 q 911 928 893 925 q 949 932 929 932 q 965 928 957 932 q 982 924 973 924 q 988 924 986 924 q 994 925 991 925 q 1003 918 998 923 q 1008 909 1008 913 l 1105 471 q 1148 298 1127 387 q 1186 126 1168 210 q 1190 108 1187 120 q 1195 82 1193 96 q 1199 53 1198 68 q 1199 26 1200 39 q 1191 6 1197 14 q 1175 -1 1185 -1 q 1156 -1 1170 -1 q 1125 -1 1143 -1 q 1089 0 1107 -1 q 1054 0 1070 0 q 1027 1 1038 1 q 1015 1 1016 1 l 928 1 q 926 5 928 3 q 913 7 924 7 q 911 4 912 7 q 908 1 910 1 l 904 1 q 892 2 903 1 q 865 4 881 3 q 831 6 849 5 q 800 7 813 7 q 780 67 789 24 q 758 170 770 111 q 722 166 742 167 q 682 165 703 165 q 639 165 661 165 q 598 165 617 165 q 577 66 587 109 q 558 7 568 24 q 546 4 553 7 q 537 1 538 1 l 533 1 q 522 4 526 1 q 514 7 517 7 q 451 5 478 6 q 428 4 439 4 q 408 3 417 3 q 394 2 399 2 q 389 1 389 1 l 260 1 q 248 1 258 1 q 221 0 237 1 q 186 0 205 0 q 150 -1 167 -1 q 119 -1 132 -1 q 100 -1 105 -1 q 83 6 89 -1 q 76 26 78 14 q 76 53 75 39 q 80 82 77 68 q 85 108 83 96 q 89 126 87 120 q 127 298 106 210 q 170 471 148 387 l 267 909 q 271 918 267 913 q 281 925 276 923 q 287 924 284 925 q 293 924 289 924 q 330 928 311 924 q 368 932 349 932 q 425 928 397 932 q 485 925 452 925 m 675 689 q 672 670 675 688 q 664 624 669 652 q 652 558 659 595 q 639 484 646 522 q 626 409 633 446 q 615 343 620 372 l 686 343 q 691 346 688 345 q 696 347 694 347 l 699 347 q 723 344 712 347 q 743 339 733 341 q 732 405 738 368 q 719 480 726 441 q 706 556 712 519 q 694 623 699 593 q 686 670 689 652 q 683 689 683 688 q 682 694 682 692 q 681 701 681 697 q 679 710 680 705 q 677 701 677 705 q 675 694 676 697 q 675 689 675 692 m 709 1221 q 685 1168 699 1200 q 657 1108 671 1137 q 631 1058 644 1079 q 608 1038 618 1038 q 581 1038 595 1038 q 556 1036 567 1038 l 547 1042 l 541 1038 l 501 1038 q 464 1037 482 1038 q 426 1036 445 1036 q 404 1049 408 1036 q 399 1078 399 1063 q 403 1150 399 1114 q 412 1223 407 1186 q 422 1297 417 1260 q 431 1371 428 1334 q 454 1477 442 1426 q 481 1585 466 1528 l 492 1594 l 552 1604 q 642 1606 602 1604 q 718 1608 682 1608 l 726 1604 q 741 1606 732 1606 q 755 1607 749 1605 q 763 1604 758 1605 q 772 1603 768 1604 l 831 1598 l 841 1596 q 846 1596 844 1596 q 851 1597 848 1597 q 888 1586 878 1591 q 898 1571 898 1581 q 894 1559 899 1569 q 881 1533 889 1549 q 861 1499 872 1518 q 839 1461 850 1480 q 817 1424 827 1442 q 798 1393 806 1406 q 774 1350 785 1371 q 754 1307 764 1329 q 733 1264 744 1286 q 709 1221 723 1243 z "},"":{"ha":1265,"x_min":76,"x_max":1199,"o":"m 485 925 q 496 925 486 925 q 522 926 507 926 q 555 928 537 927 q 587 929 572 928 q 612 931 602 930 q 621 932 621 931 q 644 932 625 932 q 691 932 664 932 q 749 932 718 932 q 807 932 780 932 q 852 929 833 931 q 873 925 871 928 q 911 928 893 925 q 949 932 929 932 q 965 928 957 932 q 982 924 973 924 q 988 924 986 924 q 994 925 991 925 q 1003 918 998 923 q 1008 909 1008 913 l 1105 471 q 1148 298 1127 387 q 1186 126 1168 210 q 1190 108 1187 120 q 1195 82 1193 96 q 1199 53 1198 68 q 1199 26 1200 39 q 1191 6 1197 14 q 1175 -1 1185 -1 q 1156 -1 1170 -1 q 1125 -1 1143 -1 q 1089 0 1107 -1 q 1054 0 1070 0 q 1027 1 1038 1 q 1015 1 1016 1 l 928 1 q 926 5 928 3 q 913 7 924 7 q 911 4 912 7 q 908 1 910 1 l 904 1 q 892 2 903 1 q 865 4 881 3 q 831 6 849 5 q 800 7 813 7 q 780 67 789 24 q 758 170 770 111 q 722 166 742 167 q 682 165 703 165 q 639 165 661 165 q 598 165 617 165 q 577 66 587 109 q 558 7 568 24 q 546 4 553 7 q 537 1 538 1 l 533 1 q 522 4 526 1 q 514 7 517 7 q 451 5 478 6 q 428 4 439 4 q 408 3 417 3 q 394 2 399 2 q 389 1 389 1 l 260 1 q 248 1 258 1 q 221 0 237 1 q 186 0 205 0 q 150 -1 167 -1 q 119 -1 132 -1 q 100 -1 105 -1 q 83 6 89 -1 q 76 26 78 14 q 76 53 75 39 q 80 82 77 68 q 85 108 83 96 q 89 126 87 120 q 127 298 106 210 q 170 471 148 387 l 267 909 q 271 918 267 913 q 281 925 276 923 q 287 924 284 925 q 293 924 289 924 q 330 928 311 924 q 368 932 349 932 q 425 928 397 932 q 485 925 452 925 m 675 689 q 672 670 675 688 q 664 624 669 652 q 652 558 659 595 q 639 484 646 522 q 626 409 633 446 q 615 343 620 372 l 686 343 q 691 346 688 345 q 696 347 694 347 l 699 347 q 723 344 712 347 q 743 339 733 341 q 732 405 738 368 q 719 480 726 441 q 706 556 712 519 q 694 623 699 593 q 686 670 689 652 q 683 689 683 688 q 682 694 682 692 q 681 701 681 697 q 679 710 680 705 q 677 701 677 705 q 675 694 676 697 q 675 689 675 692 m 728 1164 q 685 1220 705 1191 q 648 1276 665 1249 q 574 1157 608 1209 q 544 1113 559 1135 q 514 1075 528 1092 q 489 1048 500 1058 q 470 1038 477 1038 q 443 1038 458 1038 q 416 1036 428 1038 l 409 1042 l 403 1038 l 361 1038 q 323 1037 344 1038 q 283 1036 302 1036 q 268 1045 272 1036 q 263 1064 263 1053 q 263 1074 263 1069 q 264 1082 263 1078 q 286 1149 271 1116 q 316 1217 300 1183 q 350 1285 333 1251 q 380 1353 367 1319 q 420 1432 401 1394 q 466 1512 439 1470 l 475 1523 l 539 1539 l 621 1539 l 673 1537 q 694 1536 686 1536 q 710 1535 703 1535 q 727 1535 718 1535 q 755 1535 737 1535 l 796 1531 l 828 1512 q 885 1410 856 1462 q 942 1304 915 1358 q 992 1194 969 1250 q 1029 1082 1015 1139 q 1030 1074 1029 1078 q 1031 1064 1031 1069 q 1026 1045 1031 1053 q 1010 1036 1021 1036 q 979 1037 996 1036 q 946 1038 962 1038 l 932 1038 l 905 1036 q 854 1038 872 1038 q 824 1038 836 1038 q 805 1052 817 1038 q 780 1087 793 1067 q 753 1129 766 1107 q 728 1164 739 1150 z "},"":{"ha":1265,"x_min":76,"x_max":1199,"o":"m 485 925 q 496 925 486 925 q 522 926 507 926 q 555 928 537 927 q 587 929 572 928 q 612 931 602 930 q 621 932 621 931 q 644 932 625 932 q 691 932 664 932 q 749 932 718 932 q 807 932 780 932 q 852 929 833 931 q 873 925 871 928 q 911 928 893 925 q 949 932 929 932 q 965 928 957 932 q 982 924 973 924 q 988 924 986 924 q 994 925 991 925 q 1003 918 998 923 q 1008 909 1008 913 l 1105 471 q 1148 298 1127 387 q 1186 126 1168 210 q 1190 108 1187 120 q 1195 82 1193 96 q 1199 53 1198 68 q 1199 26 1200 39 q 1191 6 1197 14 q 1175 -1 1185 -1 q 1156 -1 1170 -1 q 1125 -1 1143 -1 q 1089 0 1107 -1 q 1054 0 1070 0 q 1027 1 1038 1 q 1015 1 1016 1 l 928 1 q 926 5 928 3 q 913 7 924 7 q 911 4 912 7 q 908 1 910 1 l 904 1 q 892 2 903 1 q 865 4 881 3 q 831 6 849 5 q 800 7 813 7 q 780 67 789 24 q 758 170 770 111 q 722 166 742 167 q 682 165 703 165 q 639 165 661 165 q 598 165 617 165 q 577 66 587 109 q 558 7 568 24 q 546 4 553 7 q 537 1 538 1 l 533 1 q 522 4 526 1 q 514 7 517 7 q 451 5 478 6 q 428 4 439 4 q 408 3 417 3 q 394 2 399 2 q 389 1 389 1 l 260 1 q 248 1 258 1 q 221 0 237 1 q 186 0 205 0 q 150 -1 167 -1 q 119 -1 132 -1 q 100 -1 105 -1 q 83 6 89 -1 q 76 26 78 14 q 76 53 75 39 q 80 82 77 68 q 85 108 83 96 q 89 126 87 120 q 127 298 106 210 q 170 471 148 387 l 267 909 q 271 918 267 913 q 281 925 276 923 q 287 924 284 925 q 293 924 289 924 q 330 928 311 924 q 368 932 349 932 q 425 928 397 932 q 485 925 452 925 m 675 689 q 672 670 675 688 q 664 624 669 652 q 652 558 659 595 q 639 484 646 522 q 626 409 633 446 q 615 343 620 372 l 686 343 q 691 346 688 345 q 696 347 694 347 l 699 347 q 723 344 712 347 q 743 339 733 341 q 732 405 738 368 q 719 480 726 441 q 706 556 712 519 q 694 623 699 593 q 686 670 689 652 q 683 689 683 688 q 682 694 682 692 q 681 701 681 697 q 679 710 680 705 q 677 701 677 705 q 675 694 676 697 q 675 689 675 692 m 788 1396 l 1000 1397 q 1018 1378 1010 1396 q 1033 1333 1027 1360 q 1043 1273 1040 1306 q 1044 1209 1046 1240 q 1029 1153 1042 1181 q 991 1098 1015 1124 q 935 1050 968 1072 q 861 1019 901 1029 q 829 1010 844 1013 q 794 1008 813 1008 q 720 1020 751 1008 q 663 1049 688 1031 q 617 1087 637 1067 q 578 1124 597 1107 q 539 1154 559 1142 q 497 1165 520 1165 q 477 1155 484 1165 q 467 1131 471 1145 q 461 1101 463 1117 q 458 1071 460 1084 q 453 1051 456 1058 q 444 1048 450 1044 q 365 1052 396 1050 q 316 1056 334 1053 q 289 1063 298 1059 q 276 1076 280 1068 q 270 1097 272 1084 q 262 1128 268 1109 q 264 1184 262 1153 q 273 1247 265 1215 q 296 1310 281 1280 q 341 1364 312 1341 q 414 1402 370 1388 q 522 1417 458 1417 q 558 1410 536 1417 q 603 1391 580 1402 q 647 1365 627 1379 q 679 1336 668 1351 q 694 1314 686 1326 q 711 1290 702 1301 q 732 1271 721 1278 q 759 1263 744 1263 q 787 1270 778 1263 q 797 1290 795 1278 q 794 1316 798 1301 q 785 1343 791 1330 q 771 1367 779 1356 q 760 1383 764 1378 q 767 1394 761 1391 q 781 1396 773 1396 l 788 1396 z "},"":{"ha":1265,"x_min":76,"x_max":1199,"o":"m 485 925 q 496 925 486 925 q 522 926 507 926 q 555 928 537 927 q 587 929 572 928 q 612 931 602 930 q 621 932 621 931 q 644 932 625 932 q 691 932 664 932 q 749 932 718 932 q 807 932 780 932 q 852 929 833 931 q 873 925 871 928 q 911 928 893 925 q 949 932 929 932 q 965 928 957 932 q 982 924 973 924 q 988 924 986 924 q 994 925 991 925 q 1003 918 998 923 q 1008 909 1008 913 l 1105 471 q 1148 298 1127 387 q 1186 126 1168 210 q 1190 108 1187 120 q 1195 82 1193 96 q 1199 53 1198 68 q 1199 26 1200 39 q 1191 6 1197 14 q 1175 -1 1185 -1 q 1156 -1 1170 -1 q 1125 -1 1143 -1 q 1089 0 1107 -1 q 1054 0 1070 0 q 1027 1 1038 1 q 1015 1 1016 1 l 928 1 q 926 5 928 3 q 913 7 924 7 q 911 4 912 7 q 908 1 910 1 l 904 1 q 892 2 903 1 q 865 4 881 3 q 831 6 849 5 q 800 7 813 7 q 780 67 789 24 q 758 170 770 111 q 722 166 742 167 q 682 165 703 165 q 639 165 661 165 q 598 165 617 165 q 577 66 587 109 q 558 7 568 24 q 546 4 553 7 q 537 1 538 1 l 533 1 q 522 4 526 1 q 514 7 517 7 q 451 5 478 6 q 428 4 439 4 q 408 3 417 3 q 394 2 399 2 q 389 1 389 1 l 260 1 q 248 1 258 1 q 221 0 237 1 q 186 0 205 0 q 150 -1 167 -1 q 119 -1 132 -1 q 100 -1 105 -1 q 83 6 89 -1 q 76 26 78 14 q 76 53 75 39 q 80 82 77 68 q 85 108 83 96 q 89 126 87 120 q 127 298 106 210 q 170 471 148 387 l 267 909 q 271 918 267 913 q 281 925 276 923 q 287 924 284 925 q 293 924 289 924 q 330 928 311 924 q 368 932 349 932 q 425 928 397 932 q 485 925 452 925 m 675 689 q 672 670 675 688 q 664 624 669 652 q 652 558 659 595 q 639 484 646 522 q 626 409 633 446 q 615 343 620 372 l 686 343 q 691 346 688 345 q 696 347 694 347 l 699 347 q 723 344 712 347 q 743 339 733 341 q 732 405 738 368 q 719 480 726 441 q 706 556 712 519 q 694 623 699 593 q 686 670 689 652 q 683 689 683 688 q 682 694 682 692 q 681 701 681 697 q 679 710 680 705 q 677 701 677 705 q 675 694 676 697 q 675 689 675 692 m 567 1341 q 579 1331 576 1341 q 582 1306 582 1321 q 581 1279 582 1294 q 581 1253 581 1265 q 581 1243 581 1249 q 581 1229 581 1236 q 582 1213 581 1221 q 582 1198 582 1204 q 583 1168 582 1183 q 584 1137 584 1153 q 579 1112 584 1124 q 563 1099 575 1101 l 286 1099 l 277 1108 l 267 1152 l 267 1193 q 266 1220 267 1206 q 269 1246 264 1233 l 275 1290 q 275 1295 275 1292 q 274 1299 274 1297 q 281 1320 278 1312 q 288 1332 284 1328 q 298 1338 292 1337 q 314 1340 304 1340 l 458 1340 q 487 1343 476 1342 q 506 1344 498 1344 q 517 1343 513 1344 q 525 1342 521 1343 q 532 1341 528 1341 q 543 1340 536 1340 q 552 1340 547 1340 q 563 1341 557 1340 l 567 1341 m 1000 1341 q 1013 1331 1010 1341 q 1015 1306 1015 1321 q 1015 1279 1015 1294 q 1014 1253 1014 1265 q 1014 1243 1014 1249 q 1015 1229 1015 1236 q 1015 1213 1015 1221 q 1015 1198 1015 1204 q 1014 1182 1015 1189 q 1013 1169 1013 1175 q 1015 1154 1013 1160 q 1017 1137 1017 1147 q 1013 1112 1017 1124 q 996 1099 1008 1101 l 789 1099 l 710 1108 l 701 1152 l 701 1193 q 700 1211 701 1203 q 697 1229 700 1218 q 696 1235 696 1232 q 696 1246 696 1238 q 695 1267 696 1254 q 694 1303 695 1281 q 694 1309 694 1305 q 693 1314 693 1312 q 703 1328 699 1322 q 713 1336 707 1333 q 726 1339 718 1339 q 747 1340 734 1340 l 892 1340 q 921 1343 909 1342 q 939 1344 932 1344 q 950 1343 946 1344 q 958 1342 954 1343 q 965 1341 961 1341 q 977 1340 970 1340 q 985 1340 981 1340 q 996 1341 990 1340 l 1000 1341 z "},"":{"ha":1265,"x_min":76,"x_max":1199,"o":"m 485 925 q 496 925 486 925 q 522 926 507 926 q 555 928 537 927 q 587 929 572 928 q 612 931 602 930 q 621 932 621 931 q 644 932 625 932 q 691 932 664 932 q 749 932 718 932 q 807 932 780 932 q 852 929 833 931 q 873 925 871 928 q 911 928 893 925 q 949 932 929 932 q 965 928 957 932 q 982 924 973 924 q 988 924 986 924 q 994 925 991 925 q 1003 918 998 923 q 1008 909 1008 913 l 1105 471 q 1148 298 1127 387 q 1186 126 1168 210 q 1190 108 1187 120 q 1195 82 1193 96 q 1199 53 1198 68 q 1199 26 1200 39 q 1191 6 1197 14 q 1175 -1 1185 -1 q 1156 -1 1170 -1 q 1125 -1 1143 -1 q 1089 0 1107 -1 q 1054 0 1070 0 q 1027 1 1038 1 q 1015 1 1016 1 l 928 1 q 926 5 928 3 q 913 7 924 7 q 911 4 912 7 q 908 1 910 1 l 904 1 q 892 2 903 1 q 865 4 881 3 q 831 6 849 5 q 800 7 813 7 q 780 67 789 24 q 758 170 770 111 q 722 166 742 167 q 682 165 703 165 q 639 165 661 165 q 598 165 617 165 q 577 66 587 109 q 558 7 568 24 q 546 4 553 7 q 537 1 538 1 l 533 1 q 522 4 526 1 q 514 7 517 7 q 451 5 478 6 q 428 4 439 4 q 408 3 417 3 q 394 2 399 2 q 389 1 389 1 l 260 1 q 248 1 258 1 q 221 0 237 1 q 186 0 205 0 q 150 -1 167 -1 q 119 -1 132 -1 q 100 -1 105 -1 q 83 6 89 -1 q 76 26 78 14 q 76 53 75 39 q 80 82 77 68 q 85 108 83 96 q 89 126 87 120 q 127 298 106 210 q 170 471 148 387 l 267 909 q 271 918 267 913 q 281 925 276 923 q 287 924 284 925 q 293 924 289 924 q 330 928 311 924 q 368 932 349 932 q 425 928 397 932 q 485 925 452 925 m 675 689 q 672 670 675 688 q 664 624 669 652 q 652 558 659 595 q 639 484 646 522 q 626 409 633 446 q 615 343 620 372 l 686 343 q 691 346 688 345 q 696 347 694 347 l 699 347 q 723 344 712 347 q 743 339 733 341 q 732 405 738 368 q 719 480 726 441 q 706 556 712 519 q 694 623 699 593 q 686 670 689 652 q 683 689 683 688 q 682 694 682 692 q 681 701 681 697 q 679 710 680 705 q 677 701 677 705 q 675 694 676 697 q 675 689 675 692 m 614 1041 q 525 1049 570 1040 q 437 1082 479 1057 q 386 1128 407 1099 q 353 1189 366 1156 q 334 1256 340 1222 q 328 1318 328 1289 q 345 1424 328 1371 q 394 1520 362 1477 q 470 1590 425 1563 q 572 1617 515 1617 q 588 1617 580 1617 q 604 1615 597 1617 q 608 1617 606 1617 q 612 1617 610 1617 q 676 1616 648 1617 q 727 1612 704 1615 q 769 1603 750 1609 q 808 1586 789 1596 q 870 1535 844 1562 q 914 1477 897 1508 q 939 1409 931 1446 q 947 1326 947 1371 q 933 1227 947 1276 q 890 1137 920 1178 l 884 1133 q 830 1081 861 1099 q 762 1053 798 1062 q 688 1043 726 1044 q 614 1041 650 1041 m 529 1295 q 532 1282 529 1294 q 545 1256 535 1270 q 574 1231 555 1242 q 625 1219 593 1219 q 677 1228 655 1219 q 714 1251 699 1237 q 739 1280 730 1264 q 754 1312 749 1297 q 761 1340 759 1328 q 762 1357 762 1352 q 762 1363 762 1356 q 758 1381 762 1371 q 746 1405 754 1392 q 723 1428 738 1417 q 683 1447 707 1439 q 625 1454 659 1454 q 594 1448 611 1454 q 563 1427 578 1442 q 538 1383 549 1411 q 528 1311 528 1356 q 528 1303 528 1308 q 529 1295 528 1299 z "},"":{"ha":1681,"x_min":71,"x_max":1607,"o":"m 695 925 q 704 925 696 925 q 725 926 713 926 q 752 928 738 927 q 778 929 766 928 q 798 931 790 930 q 805 932 806 931 q 832 932 810 932 q 886 932 855 932 q 950 932 916 932 q 1010 931 983 932 q 1144 934 1079 932 q 1274 937 1208 936 q 1410 937 1340 938 q 1560 929 1480 935 q 1575 912 1569 929 q 1584 869 1580 895 q 1590 813 1587 844 q 1599 755 1594 782 q 1598 729 1599 737 q 1595 719 1598 722 q 1589 716 1593 715 q 1581 717 1586 717 q 1448 716 1516 717 q 1312 715 1380 715 q 1301 699 1306 715 q 1293 659 1296 682 q 1288 614 1289 636 q 1286 581 1286 591 q 1291 556 1286 562 q 1308 551 1296 551 q 1432 552 1371 551 q 1554 546 1493 552 q 1572 544 1565 545 q 1585 541 1579 543 q 1594 532 1590 538 q 1601 514 1598 526 l 1607 390 l 1607 386 q 1593 367 1607 374 q 1557 357 1579 360 q 1505 352 1534 353 q 1445 351 1476 351 q 1352 353 1385 351 q 1303 350 1319 354 q 1284 334 1288 347 q 1281 296 1281 322 q 1278 247 1281 271 q 1277 197 1276 223 q 1411 198 1344 197 q 1544 199 1478 199 q 1549 189 1546 199 q 1554 162 1552 178 q 1560 126 1557 146 q 1565 89 1563 107 q 1568 57 1567 71 q 1569 36 1569 42 q 1563 15 1569 24 q 1541 7 1556 7 q 1457 4 1497 7 q 1372 1 1417 1 q 1266 1 1319 1 q 1158 1 1213 1 q 1149 -1 1154 -1 q 1129 -1 1143 -1 q 1098 -1 1116 -1 q 1061 0 1080 -1 q 1025 0 1042 0 l 932 0 q 925 0 930 0 q 913 1 920 1 l 903 1 l 903 3 l 887 5 q 883 1 885 1 l 879 1 q 867 2 878 1 q 840 4 856 3 q 807 6 825 5 q 775 7 789 7 q 769 67 769 24 q 770 170 769 111 q 700 165 740 164 q 623 165 659 165 q 580 66 600 109 q 547 7 561 24 q 534 4 542 7 q 526 1 526 1 l 522 1 q 510 4 514 1 q 503 7 507 7 q 440 5 467 6 q 417 4 428 4 q 397 3 406 3 q 382 2 388 2 q 377 1 377 1 l 248 1 q 236 1 247 1 q 209 0 225 1 q 174 0 193 0 q 138 -1 155 -1 q 106 -1 120 -1 q 88 -1 93 -1 q 74 6 77 -1 q 71 26 70 14 q 77 53 72 39 q 87 82 81 68 q 98 108 92 96 q 105 126 103 120 q 182 298 142 210 q 264 471 223 387 l 473 909 q 480 918 474 913 q 491 925 486 923 q 496 924 494 925 q 503 924 498 924 q 540 928 520 924 q 580 932 560 932 q 636 928 609 932 q 695 925 663 925 m 804 689 q 798 670 804 688 q 781 624 791 652 q 758 558 771 595 q 731 484 745 522 q 704 409 718 446 q 680 343 690 372 l 738 343 q 767 343 751 343 q 793 339 783 342 q 797 405 795 368 q 801 480 799 441 q 805 556 804 519 q 809 623 807 593 q 811 670 810 652 q 812 689 812 688 l 812 694 q 813 701 812 697 q 813 710 813 705 q 809 701 811 705 q 806 694 808 697 q 804 689 805 692 z "}}}
